{"glyphs":{"0":{"ha":684,"x_min":27,"x_max":656,"o":"m 27 456 q 49 649 27 562 q 112 800 71 737 q 212 899 153 863 q 345 934 271 934 q 581 814 505 934 q 656 456 656 694 q 634 263 656 351 q 571 113 612 176 q 473 15 530 50 q 345 -20 415 -20 q 209 13 268 -20 q 110 107 150 45 q 48 257 69 169 q 27 456 27 345 m 163 456 q 206 127 163 234 q 345 21 248 21 q 424 47 391 21 q 479 127 458 73 q 511 262 500 180 q 521 456 521 345 q 511 650 521 568 q 480 786 501 732 q 425 867 458 840 q 345 893 391 893 q 207 785 251 893 q 163 456 163 677 z "},"1":{"ha":401,"x_min":27,"x_max":361,"o":"m 27 756 l 292 913 l 292 84 q 311 42 292 55 q 361 30 330 30 l 361 0 q 285 7 321 3 q 208 12 250 12 q 153 9 182 12 q 88 1 123 7 l 88 31 q 118 35 104 32 q 142 44 132 38 q 157 59 152 50 q 163 83 163 68 l 163 788 l 27 709 l 27 756 z "},"2":{"ha":669,"x_min":33,"x_max":649,"o":"m 33 1 l 33 75 q 113 148 68 106 q 204 239 158 190 q 296 342 251 288 q 375 451 340 396 q 431 561 410 507 q 452 665 452 616 q 445 757 452 719 q 419 819 437 795 q 373 855 401 844 q 302 866 344 866 q 255 856 277 866 q 215 830 233 846 q 183 792 197 813 q 161 747 169 770 q 153 699 154 723 q 160 654 153 675 q 165 625 166 637 q 158 605 164 613 q 142 593 152 597 q 121 589 132 589 q 97 593 109 589 q 76 605 85 597 q 60 624 66 612 q 52 650 53 635 q 66 753 47 705 q 122 837 85 801 q 211 893 159 872 q 323 913 262 913 q 434 896 385 913 q 517 847 483 879 q 570 769 551 814 q 588 665 588 723 q 565 563 588 616 q 503 456 541 510 q 415 349 465 402 q 315 248 366 296 q 216 157 264 199 q 130 83 168 115 l 562 83 q 587 87 578 83 q 602 98 597 91 q 607 116 606 106 q 608 138 608 126 l 649 138 q 647 105 649 124 q 644 68 645 87 q 644 31 643 49 q 649 0 644 13 l 33 1 z "},"3":{"ha":649,"x_min":24,"x_max":608,"o":"m 137 127 q 152 85 141 105 q 179 48 162 64 q 220 23 197 33 q 273 14 243 14 q 360 32 323 14 q 422 84 397 50 q 460 167 448 118 q 473 278 473 216 q 456 358 473 320 q 412 424 439 395 q 350 469 385 452 q 280 486 316 486 q 227 475 251 486 l 218 488 q 285 539 252 510 q 346 603 319 568 q 389 677 372 637 q 406 759 406 716 q 399 809 406 786 q 378 848 391 831 q 347 873 365 864 q 306 882 328 882 q 232 865 264 882 q 177 821 199 848 q 146 761 156 794 q 142 694 137 727 q 143 668 145 679 q 135 650 140 656 q 121 640 129 643 q 103 636 113 636 q 78 642 91 636 q 55 656 65 647 q 39 680 45 666 q 35 710 33 693 q 66 805 42 765 q 126 871 90 845 q 209 910 162 897 q 306 922 255 922 q 400 910 357 922 q 474 877 443 898 q 524 826 506 855 q 542 762 542 796 q 523 678 542 715 q 474 612 505 641 q 407 561 444 583 q 330 522 369 538 q 430 504 380 522 q 519 454 479 486 q 584 377 559 422 q 608 277 608 332 q 527 51 608 128 q 273 -27 446 -27 q 216 -22 247 -27 q 156 -7 185 -16 q 102 14 127 2 q 62 39 77 26 q 29 85 34 62 q 33 125 24 107 q 60 153 42 142 q 95 163 77 163 q 122 155 110 163 q 137 127 134 146 z "},"4":{"ha":642,"x_min":7,"x_max":614,"o":"m 368 316 l 368 674 l 90 316 l 368 316 m 503 84 q 522 42 503 55 q 572 30 541 30 l 572 0 q 497 7 532 3 q 420 12 461 12 q 365 9 394 12 q 300 1 335 7 l 300 31 q 350 44 333 34 q 368 83 368 54 l 368 275 l 7 275 l 503 917 l 503 316 l 614 316 l 614 275 l 503 275 l 503 84 z "},"5":{"ha":646,"x_min":24,"x_max":619,"o":"m 137 151 q 153 106 141 128 q 183 66 165 84 q 226 38 201 49 q 281 27 251 27 q 379 44 340 27 q 441 95 418 62 q 474 178 465 129 q 484 290 484 227 q 441 476 484 413 q 315 540 398 540 q 269 535 298 540 q 209 521 240 530 q 150 502 178 513 q 106 478 122 490 q 105 499 105 477 q 104 557 104 521 q 104 640 104 593 q 105 735 104 686 q 105 830 105 783 q 106 912 106 876 l 557 912 q 553 872 554 890 q 554 836 553 853 q 557 800 555 818 q 564 761 560 782 l 534 761 q 519 812 530 794 q 480 830 509 830 l 172 829 l 172 547 q 207 565 186 558 q 249 575 227 572 q 293 580 271 579 q 332 581 315 581 q 453 561 400 581 q 544 504 507 541 q 600 411 581 466 q 619 288 619 357 q 596 160 619 216 q 530 65 574 104 q 424 6 487 26 q 280 -14 361 -14 q 222 -7 254 -14 q 159 11 190 0 q 103 35 129 22 q 62 62 77 49 q 29 108 34 85 q 33 148 24 130 q 60 175 42 165 q 96 186 78 186 q 122 178 110 186 q 137 151 134 170 z "},"6":{"ha":701,"x_min":34,"x_max":667,"o":"m 401 928 q 461 920 431 928 q 521 897 492 911 q 573 864 549 883 q 612 824 597 845 q 634 776 632 798 q 626 739 635 754 q 600 716 616 724 q 566 708 583 708 q 533 719 547 708 q 520 753 519 730 q 512 803 521 779 q 488 845 504 827 q 451 875 473 863 q 402 888 429 886 q 394 888 398 888 q 386 888 390 888 q 274 853 319 888 q 205 748 229 817 q 175 577 180 679 q 181 342 170 475 q 257 491 201 443 q 413 539 313 539 q 602 468 537 539 q 667 263 667 397 q 592 61 667 125 q 374 -2 517 -2 q 218 32 283 -2 q 113 125 154 66 q 53 262 72 184 q 34 429 34 340 q 56 642 34 549 q 122 798 77 734 q 236 895 167 861 q 401 928 306 928 m 204 223 q 219 158 207 191 q 254 98 232 125 q 306 55 275 72 q 374 39 336 39 q 439 54 410 39 q 489 99 469 70 q 521 169 510 127 q 532 263 532 211 q 495 438 532 379 q 387 498 458 498 q 311 477 347 498 q 250 420 275 456 q 212 333 225 383 q 204 223 199 283 z "},"7":{"ha":599,"x_min":7,"x_max":595,"o":"m 89 914 l 595 913 q 448 635 513 769 q 337 384 382 500 q 268 170 292 267 q 244 4 244 73 l 109 4 l 109 8 q 122 122 109 58 q 161 259 136 186 q 221 410 186 332 q 299 568 256 489 q 392 725 342 648 q 495 873 441 803 l 90 873 q 51 856 61 873 q 37 804 40 838 l 7 804 q 12 837 10 825 q 14 858 14 848 q 12 880 14 868 q 7 914 10 892 l 89 914 z "},"8":{"ha":741,"x_min":34,"x_max":707,"o":"m 34 208 q 47 306 34 262 q 88 382 60 349 q 158 438 115 415 q 260 477 201 462 q 188 511 220 489 q 131 562 155 532 q 94 628 107 591 q 80 705 80 665 q 102 811 80 768 q 163 883 124 855 q 257 923 203 910 q 376 935 311 935 q 493 922 439 935 q 587 879 547 908 q 649 806 627 850 q 671 701 671 762 q 624 565 671 621 q 484 477 576 508 q 652 384 597 444 q 707 231 707 323 q 624 46 707 106 q 368 -15 541 -15 q 230 1 292 -15 q 124 45 168 16 q 57 116 81 75 q 34 208 34 157 m 170 227 q 185 147 170 184 q 228 83 201 111 q 291 41 254 56 q 370 26 328 26 q 451 40 414 26 q 514 81 488 55 q 556 142 541 106 q 571 220 571 178 q 551 282 571 252 q 497 340 530 313 q 422 392 465 368 q 337 434 380 416 q 279 398 309 418 q 225 351 250 377 q 185 294 201 326 q 170 227 170 263 m 216 714 q 231 642 216 673 q 272 587 247 610 q 330 547 298 564 q 393 517 361 530 q 465 559 437 537 q 509 604 493 581 q 530 654 524 628 q 536 709 536 680 q 529 789 536 755 q 504 847 522 824 q 455 883 486 871 q 376 895 424 895 q 300 883 331 895 q 251 848 270 871 q 224 792 233 825 q 216 714 216 758 z "},"9":{"ha":688,"x_min":27,"x_max":654,"o":"m 309 431 q 451 485 400 431 q 503 651 503 539 q 491 748 503 703 q 457 825 479 792 q 406 877 436 858 q 338 896 375 895 q 267 878 299 897 q 213 826 235 859 q 177 748 190 793 q 164 651 164 703 q 174 559 164 600 q 202 490 184 518 q 248 446 221 461 q 309 431 275 431 m 294 -15 q 235 -6 267 -15 q 172 17 203 3 q 116 46 142 31 q 75 75 90 62 q 42 121 47 98 q 46 160 37 143 q 73 188 55 178 q 109 199 91 199 q 135 191 123 199 q 150 163 146 182 q 166 117 154 141 q 196 73 178 93 q 239 39 215 52 q 294 26 264 26 q 384 46 347 24 q 446 103 421 67 q 486 184 471 138 q 507 279 500 231 q 516 373 515 327 q 518 456 518 420 q 517 515 517 492 q 519 537 517 537 q 473 464 502 496 q 444 437 460 450 q 408 414 428 424 q 363 397 387 404 q 309 391 338 391 q 99 457 172 391 q 27 651 27 524 q 49 764 27 712 q 111 854 71 816 q 208 914 151 892 q 332 936 264 936 q 573 820 493 936 q 654 484 654 703 q 630 273 654 366 q 562 116 607 180 q 449 19 516 52 q 294 -15 382 -15 z "},"\u0000":{"ha":0,"x_min":0,"x_max":0,"o":""}," ":{"ha":319,"x_min":0,"x_max":0,"o":""}," ":{"ha":319,"x_min":0,"x_max":0,"o":""},"!":{"ha":263,"x_min":34,"x_max":229,"o":"m 125 977 q 154 975 136 977 q 187 967 171 972 q 214 951 203 961 q 225 924 225 941 q 222 844 225 884 q 214 764 218 804 q 204 683 209 724 q 195 604 199 643 q 177 426 186 515 q 155 249 168 338 l 113 249 q 99 336 105 291 q 89 427 94 381 q 80 518 84 473 q 72 607 76 564 q 63 685 68 646 q 54 764 58 724 q 46 843 50 804 q 43 921 43 882 q 52 945 43 935 q 73 963 60 956 q 100 973 86 970 q 125 977 114 977 m 34 94 q 42 132 34 114 q 63 163 50 150 q 94 184 76 176 q 132 191 111 191 q 170 184 152 191 q 201 163 188 176 q 222 132 214 150 q 229 94 229 114 q 222 56 229 73 q 201 25 214 38 q 170 4 188 12 q 132 -4 152 -4 q 94 4 111 -4 q 63 25 76 12 q 42 56 50 38 q 34 94 34 73 z "},"\"":{"ha":461,"x_min":34,"x_max":427,"o":"m 203 1013 l 165 720 l 63 720 l 34 1013 l 203 1013 m 427 1013 l 389 720 l 287 720 l 258 1013 l 427 1013 z "},"#":{"ha":804,"x_min":7,"x_max":798,"o":"m 36 372 l 139 372 l 209 584 l 90 584 l 119 673 l 238 673 l 325 938 l 468 938 l 381 673 l 565 673 l 653 942 l 796 942 l 708 673 l 798 673 l 768 584 l 679 584 l 609 372 l 714 372 l 685 283 l 580 283 l 488 3 l 345 3 l 437 283 l 253 283 l 160 -1 l 17 -1 l 110 283 l 7 283 l 36 372 m 282 372 l 466 372 l 536 584 l 352 584 l 282 372 z "},"$":{"ha":556,"x_min":34,"x_max":524,"o":"m 83 177 q 121 170 106 178 q 147 151 136 163 q 168 124 159 139 q 188 95 178 109 q 211 67 198 80 q 242 47 224 54 l 242 294 q 171 328 205 309 q 110 371 136 347 q 67 427 83 395 q 53 500 52 459 q 67 564 54 534 q 105 615 81 593 q 164 651 130 637 q 242 671 199 666 l 242 790 l 307 790 l 307 672 q 379 656 345 669 q 441 625 414 644 q 485 583 469 606 q 503 536 502 560 q 498 514 503 524 q 483 495 492 503 q 463 483 474 488 q 440 478 452 478 q 416 485 426 478 q 401 503 408 491 q 387 530 394 515 q 373 561 380 545 q 357 591 366 576 q 336 617 348 606 q 307 634 323 629 l 307 410 q 385 375 346 394 q 455 332 424 357 q 505 275 486 308 q 522 198 524 243 q 505 130 520 163 q 463 72 490 98 q 396 29 435 46 q 307 5 357 12 l 307 -117 l 242 -117 l 242 3 q 185 13 216 5 q 128 31 155 20 q 78 55 100 41 q 43 85 55 69 q 34 113 35 97 q 40 143 34 129 q 58 167 46 157 q 83 177 69 177 m 307 267 l 307 38 q 363 52 340 41 q 403 81 387 64 q 426 121 418 99 q 434 167 434 143 q 424 197 434 183 q 397 222 414 210 q 357 245 380 234 q 307 267 334 256 m 242 440 l 242 635 q 175 602 197 627 q 153 538 153 577 q 178 482 153 505 q 242 440 203 459 z "},"%":{"ha":696,"x_min":34,"x_max":663,"o":"m 471 987 l 607 987 l 221 0 l 85 0 l 471 987 m 34 819 q 44 879 34 850 q 74 930 55 908 q 121 965 94 952 q 181 979 148 979 q 240 965 214 979 q 287 930 267 952 q 317 879 307 908 q 328 819 328 850 q 317 756 328 785 q 286 706 306 728 q 238 673 266 685 q 176 661 210 661 q 118 674 144 661 q 73 709 92 687 q 44 759 54 730 q 34 819 34 787 m 514 304 q 574 291 547 304 q 621 255 601 277 q 651 204 640 233 q 663 143 663 175 q 651 82 663 111 q 620 32 640 53 q 572 -2 600 10 q 510 -15 544 -15 q 452 -2 478 -15 q 407 33 426 12 q 378 83 389 55 q 368 143 368 112 q 379 203 368 174 q 408 255 389 233 q 454 291 427 277 q 514 304 481 304 m 582 143 q 579 207 582 180 q 569 253 576 235 q 547 280 561 271 q 511 289 533 289 q 473 270 487 289 q 452 219 458 251 q 446 143 446 186 q 449 99 446 123 q 460 53 452 75 q 480 16 468 31 q 508 1 492 1 q 545 17 530 1 q 568 56 559 33 q 579 102 576 78 q 582 143 582 126 m 248 819 q 245 882 248 855 q 234 928 242 909 q 213 955 227 946 q 177 964 199 964 q 146 953 159 964 q 126 923 134 942 q 115 877 118 903 q 111 819 111 850 q 115 774 111 799 q 126 728 119 749 q 145 691 134 706 q 174 676 157 676 q 211 692 197 676 q 233 731 225 709 q 244 778 241 753 q 248 819 248 802 z "},"&":{"ha":890,"x_min":41,"x_max":856,"o":"m 41 276 q 56 380 41 335 q 101 458 71 425 q 175 517 131 492 q 276 558 218 541 q 202 589 233 572 q 152 627 172 605 q 124 680 133 650 q 115 753 115 710 q 131 838 115 799 q 177 906 148 878 q 245 951 205 935 q 332 967 286 967 q 464 941 414 967 q 528 854 514 914 q 520 832 531 839 q 494 825 509 825 q 467 832 479 825 q 454 852 454 839 q 449 892 454 876 q 434 918 445 908 q 406 932 424 928 q 363 936 389 936 l 352 936 q 276 890 301 935 q 250 753 250 845 q 258 681 250 711 q 283 629 266 650 q 329 593 301 608 q 398 568 357 579 q 421 558 416 563 q 421 550 425 553 q 406 543 416 546 q 382 536 395 539 q 294 502 332 526 q 230 443 256 477 q 190 363 203 408 q 177 266 177 319 q 186 177 177 220 q 217 100 196 134 q 273 46 239 66 q 358 26 308 26 q 443 46 404 26 q 508 99 481 66 q 551 175 536 132 q 566 263 566 218 q 563 299 566 281 q 553 336 559 317 q 538 371 547 354 q 520 401 530 388 q 472 385 496 396 q 427 357 447 374 q 393 315 406 340 q 378 256 380 290 l 350 256 q 358 345 345 300 q 401 422 371 389 q 446 458 421 445 q 497 480 470 472 q 552 490 524 488 q 609 493 581 493 q 695 499 655 493 q 765 522 736 505 q 810 572 795 540 q 822 659 826 605 l 850 659 l 856 592 q 840 504 856 538 q 798 448 823 469 q 739 420 772 428 q 672 412 706 412 q 689 376 684 395 q 696 336 694 357 q 699 295 699 316 q 699 255 699 275 q 675 150 699 199 q 607 64 651 101 q 500 6 563 28 q 358 -15 437 -15 q 229 4 287 -15 q 129 60 170 23 q 64 151 87 96 q 41 276 41 205 z "},"'":{"ha":237,"x_min":34,"x_max":203,"o":"m 34 1013 l 203 1013 l 165 720 l 63 720 l 34 1013 z "},"(":{"ha":389,"x_min":34,"x_max":355,"o":"m 34 450 q 48 608 34 524 q 92 773 63 692 q 166 925 121 854 q 270 1046 210 996 l 355 1046 q 315 1005 334 1033 q 280 940 296 977 q 250 858 264 903 q 224 765 235 812 q 203 671 212 718 q 189 582 195 624 q 179 506 182 541 q 176 450 176 471 q 217 173 176 307 q 328 -83 257 40 l 256 -83 q 164 36 205 -25 q 95 164 123 98 q 50 301 66 230 q 34 450 34 372 z "},")":{"ha":389,"x_min":34,"x_max":355,"o":"m 119 1046 q 223 925 178 996 q 296 773 267 854 q 340 608 326 692 q 355 450 355 524 q 339 301 355 372 q 294 164 323 230 q 224 36 265 98 q 133 -83 183 -25 l 61 -83 q 172 173 132 40 q 212 450 212 307 q 209 506 212 471 q 200 582 206 541 q 185 671 194 624 q 165 765 176 718 q 139 858 153 812 q 109 940 125 903 q 74 1005 92 977 q 34 1046 55 1033 l 119 1046 z "},"*":{"ha":371,"x_min":13,"x_max":361,"o":"m 24 859 q 85 883 53 872 q 149 905 118 894 q 121 915 140 908 q 80 929 101 921 q 40 947 58 937 q 15 966 21 956 q 14 977 13 969 q 20 992 16 985 q 32 1005 25 1000 q 47 1010 39 1011 q 76 999 58 1010 q 111 972 93 987 q 144 946 129 958 q 166 935 160 935 q 168 935 168 935 q 170 957 172 940 q 164 993 168 973 q 156 1032 160 1013 q 152 1059 152 1050 q 163 1072 152 1067 q 188 1077 175 1077 q 207 1073 199 1077 q 216 1058 216 1068 q 213 1027 216 1043 q 207 995 210 1010 q 202 963 204 979 q 203 933 201 947 q 227 949 209 937 q 265 975 245 962 q 302 999 286 989 q 321 1010 319 1010 l 325 1010 q 342 1003 334 1010 q 356 986 351 996 q 358 967 361 977 q 341 954 355 958 q 278 931 309 945 q 216 905 247 918 q 276 878 245 888 q 339 860 307 867 q 349 857 346 859 q 356 844 356 854 q 353 825 357 835 q 343 807 349 815 q 330 800 336 800 q 323 802 327 800 q 290 826 305 814 q 261 849 275 838 q 233 868 248 859 q 202 882 218 877 q 202 850 200 866 q 208 820 204 835 q 214 789 211 804 q 217 760 217 774 q 206 743 217 748 q 182 737 195 737 q 161 742 170 737 q 152 755 152 746 q 156 785 152 766 q 164 823 160 804 q 170 859 168 842 q 166 881 172 875 q 138 860 152 871 q 109 839 123 849 q 79 819 94 828 q 49 803 64 809 q 48 803 48 803 q 47 802 47 802 q 34 809 41 802 q 21 826 26 817 q 15 845 16 836 q 24 859 15 854 z "},"+":{"ha":469,"x_min":34,"x_max":435,"o":"m 34 292 l 34 413 l 179 413 l 179 553 l 308 553 l 308 413 l 435 413 l 435 292 l 308 292 l 308 139 l 179 139 l 179 292 l 34 292 z "},",":{"ha":265,"x_min":47,"x_max":242,"o":"m 47 84 q 55 122 47 104 q 76 153 62 140 q 106 174 89 166 q 144 182 124 182 q 183 174 165 182 q 214 153 201 166 q 235 122 227 140 q 242 84 242 104 q 228 6 242 43 q 190 -58 214 -30 q 131 -107 165 -87 q 58 -137 98 -127 l 58 -114 q 102 -91 83 -102 q 133 -67 120 -79 q 154 -42 146 -56 q 166 -12 162 -29 q 144 -14 156 -14 q 106 -6 124 -14 q 76 15 89 2 q 55 46 62 28 q 47 84 47 64 z "},"-":{"ha":377,"x_min":34,"x_max":343,"o":"m 34 270 l 34 391 l 343 391 l 343 270 l 34 270 z "},"­":{"ha":377,"x_min":34,"x_max":343,"o":"m 34 270 l 34 391 l 343 391 l 343 270 l 34 270 z "},".":{"ha":296,"x_min":47,"x_max":251,"o":"m 47 87 q 56 127 47 109 q 77 159 64 146 q 110 181 91 173 q 149 189 128 189 q 189 181 170 189 q 221 159 208 173 q 243 127 235 146 q 251 87 251 109 q 243 48 251 66 q 221 16 235 30 q 189 -6 208 2 q 149 -14 170 -14 q 110 -6 128 -14 q 77 16 91 2 q 56 48 64 30 q 47 87 47 66 z "},"/":{"ha":553,"x_min":7,"x_max":547,"o":"m 417 1019 l 547 1019 l 137 -37 l 7 -37 l 417 1019 z "},":":{"ha":263,"x_min":34,"x_max":229,"o":"m 34 84 q 42 122 34 104 q 63 153 50 140 q 94 174 76 166 q 132 182 111 182 q 170 174 152 182 q 201 153 188 166 q 222 122 214 140 q 229 84 229 104 q 222 46 229 64 q 201 15 214 28 q 170 -6 188 2 q 132 -14 152 -14 q 94 -6 111 -14 q 63 15 76 2 q 42 46 50 28 q 34 84 34 64 m 132 568 q 170 561 152 568 q 201 539 188 553 q 222 509 214 526 q 229 471 229 491 q 222 433 229 450 q 201 402 214 415 q 170 381 188 389 q 132 373 152 373 q 94 381 111 373 q 63 402 76 389 q 42 433 50 415 q 34 471 34 450 q 42 509 34 491 q 63 539 50 526 q 94 561 76 553 q 132 568 111 568 z "},";":{"ha":269,"x_min":34,"x_max":235,"o":"m 40 84 q 48 122 40 104 q 69 153 56 140 q 100 174 82 166 q 138 182 117 182 q 176 174 158 182 q 207 153 194 166 q 228 122 220 140 q 235 84 235 104 q 221 6 235 43 q 183 -58 208 -30 q 124 -107 158 -87 q 52 -137 91 -127 l 52 -114 q 95 -91 77 -102 q 126 -67 113 -79 q 147 -42 139 -56 q 159 -12 155 -29 q 138 -14 149 -14 q 100 -6 117 -14 q 69 15 82 2 q 48 46 56 28 q 40 84 40 64 m 132 568 q 170 561 152 568 q 201 539 188 553 q 222 509 214 526 q 229 471 229 491 q 222 433 229 450 q 201 402 214 415 q 170 381 188 389 q 132 373 152 373 q 94 381 111 373 q 63 402 76 389 q 42 433 50 415 q 34 471 34 450 q 42 509 34 491 q 63 539 50 526 q 94 561 76 553 q 132 568 111 568 z "},"<":{"ha":625,"x_min":34,"x_max":591,"o":"m 34 372 l 591 707 l 591 572 l 216 338 l 591 136 l 591 1 l 34 299 l 34 372 z "},"=":{"ha":445,"x_min":34,"x_max":411,"o":"m 34 184 l 34 306 l 411 306 l 411 184 l 34 184 m 411 517 l 411 395 l 34 395 l 34 517 l 411 517 z "},">":{"ha":625,"x_min":34,"x_max":591,"o":"m 591 372 l 591 299 l 34 1 l 34 136 l 409 338 l 34 572 l 34 707 l 591 372 z "},"?":{"ha":538,"x_min":32,"x_max":505,"o":"m 248 947 q 349 936 302 947 q 431 899 396 924 q 485 834 465 873 q 505 737 505 794 q 489 665 505 699 q 448 602 473 631 q 393 547 422 572 q 336 498 363 521 q 280 445 302 471 q 243 390 257 419 q 224 327 230 361 q 218 245 218 292 l 174 245 q 177 307 174 276 q 187 367 180 338 q 208 425 195 397 q 240 477 220 452 q 286 535 262 505 q 327 599 309 566 q 357 667 346 632 q 369 739 369 702 q 360 807 369 777 q 331 859 351 838 q 282 893 312 881 q 210 905 252 905 q 150 893 178 905 q 103 861 123 881 q 73 813 83 840 q 64 755 62 786 l 34 755 q 48 841 32 804 q 93 901 64 877 q 162 936 122 924 q 248 947 201 947 m 104 84 q 112 122 104 104 q 133 153 120 140 q 164 174 146 166 q 202 182 182 182 q 240 174 222 182 q 272 153 258 166 q 292 122 285 140 q 300 84 300 104 q 292 46 300 64 q 272 15 285 28 q 240 -6 258 2 q 202 -14 222 -14 q 164 -6 182 -14 q 133 15 146 2 q 112 46 120 28 q 104 84 104 64 z "},"@":{"ha":1295,"x_min":41,"x_max":1255,"o":"m 41 484 q 84 742 41 625 q 209 943 128 859 q 404 1074 290 1027 q 659 1121 518 1121 q 905 1090 797 1121 q 1089 995 1014 1059 q 1205 831 1165 930 q 1245 595 1245 732 q 1237 508 1245 554 q 1214 417 1230 462 q 1175 332 1198 372 q 1119 260 1151 291 q 1048 211 1088 229 q 960 193 1008 193 q 919 196 942 193 q 874 208 896 199 q 836 230 852 216 q 813 264 819 243 q 616 157 720 157 q 515 177 559 157 q 442 233 471 197 q 397 316 412 269 q 382 417 382 363 q 393 502 382 458 q 423 587 404 545 q 471 665 443 628 q 534 729 499 701 q 610 773 569 757 q 695 789 650 789 q 800 769 755 789 q 869 713 845 750 l 882 782 l 984 778 q 965 663 975 720 q 946 549 955 606 q 923 401 935 475 q 912 253 912 327 q 917 244 912 248 q 927 237 921 240 q 940 233 933 234 q 953 231 947 231 q 959 232 958 231 q 1012 266 989 242 q 1052 321 1035 289 q 1079 390 1068 353 q 1097 465 1090 427 q 1106 536 1103 502 q 1109 597 1109 570 q 1084 809 1109 718 q 1006 960 1060 899 q 867 1050 952 1020 q 659 1080 781 1080 q 467 1036 555 1080 q 314 912 378 991 q 214 724 250 833 q 178 486 178 615 q 196 333 178 406 q 245 199 213 260 q 321 87 277 137 q 421 3 366 38 q 540 -51 476 -32 q 673 -70 604 -70 q 988 -3 856 -70 q 1207 202 1120 64 l 1255 202 q 1153 68 1212 127 q 1019 -30 1093 10 q 858 -90 945 -69 q 673 -111 771 -111 q 399 -73 517 -111 q 202 40 281 -35 q 81 226 122 115 q 41 484 41 338 m 647 204 q 691 213 669 204 q 736 237 714 222 q 778 274 758 252 q 812 321 798 296 l 866 677 q 843 706 857 692 q 815 730 830 720 q 785 746 801 741 q 756 752 770 752 q 685 738 719 752 q 622 700 651 724 q 570 644 593 675 q 531 577 547 612 q 506 505 515 542 q 497 435 497 469 q 506 361 497 401 q 533 286 515 321 q 580 228 552 251 q 647 204 608 204 z "},"A":{"ha":895,"x_min":7,"x_max":895,"o":"m 14 35 q 21 35 16 35 q 31 34 26 34 q 50 38 41 34 q 64 56 59 42 l 383 970 l 521 970 q 676 532 608 725 q 715 423 696 477 q 751 320 734 369 q 783 229 768 271 q 809 156 798 187 q 826 107 820 125 q 833 89 833 90 q 837 78 833 87 q 846 59 840 69 q 863 41 852 50 q 888 33 873 33 l 895 3 q 832 9 859 4 q 781 14 806 14 q 751 11 766 14 q 718 1 736 9 l 615 294 q 539 322 578 317 q 457 328 499 328 l 406 328 q 359 329 385 328 q 307 334 333 330 q 257 346 281 338 q 216 368 233 354 l 88 1 q 74 6 81 5 q 60 7 66 7 q 33 4 45 7 q 8 1 20 1 l 7 1 l 14 35 m 231 408 q 294 372 256 382 q 376 361 332 361 l 387 361 q 414 362 400 362 q 441 362 427 362 q 522 358 482 362 q 599 341 562 355 l 402 901 l 231 408 z "},"B":{"ha":890,"x_min":47,"x_max":857,"o":"m 47 972 l 562 972 q 656 952 613 972 q 729 900 699 933 q 777 822 760 867 q 794 726 794 777 q 784 658 794 692 q 755 595 774 625 q 710 544 736 566 q 652 508 684 521 q 737 480 699 499 q 802 429 775 460 q 842 353 828 397 q 857 248 857 308 q 834 145 857 191 q 775 67 812 99 q 689 17 738 35 q 586 0 640 0 l 47 0 l 47 31 q 98 44 81 34 q 115 83 115 54 l 115 890 q 98 928 115 918 q 47 942 81 939 l 47 972 m 251 482 l 251 41 l 559 41 q 625 53 596 41 q 674 90 654 64 q 704 155 694 115 q 715 250 715 195 q 702 353 715 310 q 666 424 689 396 q 611 466 643 452 q 539 482 578 480 l 251 482 m 505 534 q 570 551 542 534 q 616 595 597 568 q 643 657 634 623 q 652 728 652 692 q 645 823 652 785 q 621 885 638 861 q 574 920 604 909 q 498 930 544 930 l 251 930 l 251 534 l 505 534 z "},"C":{"ha":954,"x_min":27,"x_max":932,"o":"m 473 985 q 624 965 554 985 q 747 909 694 944 q 829 829 799 875 q 859 734 859 784 q 852 708 859 720 q 835 689 846 696 q 811 677 825 682 q 784 673 798 673 q 759 677 771 673 q 736 689 746 681 q 721 709 726 697 q 717 739 716 722 q 659 892 723 839 q 472 945 595 945 q 379 927 422 945 q 303 877 337 909 q 245 801 270 844 q 203 707 220 758 q 178 600 186 656 q 170 488 170 544 q 179 375 170 431 q 209 268 189 319 q 257 172 229 216 q 323 96 286 128 q 406 45 360 64 q 506 27 452 27 q 599 36 550 27 q 692 70 648 45 q 771 138 736 95 q 821 250 806 182 q 851 308 831 290 q 890 326 871 326 q 921 308 909 326 q 922 255 932 290 q 886 174 910 211 q 829 107 861 137 q 758 55 797 77 q 677 17 719 32 q 591 -6 635 2 q 507 -14 548 -14 q 308 23 396 -14 q 157 126 219 60 q 61 284 94 192 q 27 488 27 376 q 58 694 27 602 q 148 851 90 786 q 288 950 205 916 q 473 985 371 985 z "},"D":{"ha":965,"x_min":47,"x_max":941,"o":"m 47 942 l 47 972 l 183 972 q 251 972 218 972 q 318 971 284 972 l 459 972 q 661 945 572 972 q 813 859 751 918 q 908 708 875 800 q 941 486 941 616 q 910 259 941 352 q 819 109 880 167 q 669 26 759 52 q 459 0 578 0 l 320 0 q 293 0 307 0 q 266 -1 279 -1 q 173 0 220 -1 q 79 1 126 1 l 47 1 l 47 31 q 98 44 81 34 q 115 83 115 54 l 115 890 q 98 928 115 918 q 47 942 81 939 m 251 877 l 251 84 q 256 61 251 70 q 270 48 261 52 q 292 42 279 43 q 320 41 304 41 l 452 41 q 618 73 551 41 q 725 162 684 104 q 782 303 765 220 q 798 486 798 385 q 790 598 798 543 q 764 703 781 654 q 719 794 746 753 q 653 866 691 836 q 565 913 614 897 q 453 930 515 930 l 320 930 q 269 918 288 930 q 251 877 251 905 z "},"E":{"ha":710,"x_min":47,"x_max":669,"o":"m 47 972 l 183 972 q 251 972 218 972 q 319 971 285 972 l 644 972 q 638 949 639 959 q 638 928 637 939 q 641 907 639 918 q 642 882 642 897 l 608 882 q 596 919 609 906 q 562 931 584 931 q 441 931 500 931 q 320 930 381 930 q 269 918 288 930 q 251 877 251 905 l 251 555 l 526 555 q 564 572 554 555 q 578 623 574 589 l 608 623 q 601 533 600 578 q 608 445 601 487 l 578 445 q 564 496 574 478 q 524 514 553 514 l 251 514 l 251 84 q 256 61 251 70 q 270 48 261 52 q 292 42 279 43 q 320 41 304 41 l 588 41 q 623 53 610 41 q 634 90 635 66 l 669 90 q 667 64 669 75 q 664 43 665 54 q 664 23 663 33 q 669 0 665 13 l 320 0 q 293 0 307 0 q 266 -1 279 -1 q 173 0 220 -1 q 79 1 126 1 l 47 1 l 47 31 q 98 44 81 34 q 115 83 115 54 l 115 890 q 98 928 115 918 q 47 942 81 939 l 47 972 z "},"F":{"ha":684,"x_min":47,"x_max":644,"o":"m 47 972 l 183 972 q 251 972 218 972 q 319 971 285 972 l 644 972 q 638 949 639 959 q 638 928 637 939 q 641 907 639 918 q 642 882 642 897 l 608 882 q 596 919 609 906 q 562 931 584 931 q 441 931 500 931 q 320 930 381 930 q 269 918 288 930 q 251 877 251 905 l 251 514 l 512 514 q 551 531 541 514 q 564 582 561 549 l 594 582 q 587 492 587 538 q 594 404 587 446 l 564 404 q 550 455 561 437 q 510 473 539 473 l 251 473 l 251 84 q 256 61 251 70 q 270 48 261 52 q 292 42 279 43 q 320 41 304 41 l 320 0 q 293 0 307 0 q 266 -1 279 -1 q 173 0 220 -1 q 79 1 126 1 l 47 1 l 47 31 q 98 44 81 34 q 115 83 115 54 l 115 890 q 98 928 115 918 q 47 942 81 939 l 47 972 z "},"G":{"ha":1058,"x_min":27,"x_max":1044,"o":"m 479 987 q 602 975 548 987 q 697 945 656 964 q 767 902 738 926 q 814 854 795 878 q 842 806 833 829 q 852 767 851 783 q 848 738 854 750 q 832 717 842 725 q 808 705 822 709 q 781 701 795 701 q 754 704 767 701 q 730 715 741 708 q 714 732 720 722 q 709 756 709 743 q 695 825 711 791 q 647 885 678 859 q 572 929 616 912 q 474 946 528 946 q 377 928 420 946 q 300 879 334 911 q 241 804 266 848 q 201 708 217 760 q 177 597 185 656 q 170 476 170 538 q 177 360 170 416 q 200 253 184 303 q 241 162 216 203 q 301 90 266 120 q 383 44 337 60 q 488 27 429 27 q 614 53 561 27 q 703 123 668 78 q 754 230 739 168 q 768 363 770 292 l 748 369 q 700 385 724 375 q 652 405 676 395 q 603 422 627 415 q 553 429 578 429 q 506 420 529 429 q 467 398 483 412 q 443 363 450 384 q 439 319 435 343 l 417 319 q 419 390 409 357 q 452 446 429 422 q 506 483 474 469 q 573 496 538 496 q 662 483 618 496 q 747 455 705 470 q 833 427 790 439 q 921 414 876 414 q 960 417 941 414 q 993 431 979 421 q 1013 457 1006 440 q 1014 500 1019 474 l 1036 500 q 1040 446 1044 473 q 1020 397 1036 418 q 976 361 1004 375 q 907 348 947 348 l 902 348 q 898 348 900 348 q 895 349 897 349 q 866 194 891 261 q 793 80 842 126 q 669 10 744 34 q 490 -14 594 -14 q 279 19 366 -14 q 135 115 191 52 q 53 268 79 178 q 27 475 27 359 q 142 856 27 725 q 479 987 257 987 z "},"H":{"ha":1046,"x_min":47,"x_max":998,"o":"m 115 83 l 115 890 q 98 928 115 918 q 47 942 81 939 l 47 972 q 89 969 73 972 q 118 963 105 966 q 146 958 132 960 q 184 955 161 955 q 221 958 208 955 q 248 963 235 960 q 276 969 260 966 q 316 972 291 972 l 320 972 l 320 942 q 269 928 287 939 q 251 888 251 917 l 251 404 q 337 433 293 425 q 438 440 381 440 q 476 439 454 440 q 523 438 498 439 q 569 436 547 437 q 607 435 592 435 q 711 445 667 435 q 793 482 755 454 l 793 890 q 776 928 793 918 q 726 942 759 939 l 726 972 q 767 969 751 972 q 797 963 783 966 q 824 958 810 960 q 862 955 839 955 q 900 958 886 955 q 926 963 913 960 q 954 969 939 966 q 994 972 969 972 l 998 972 l 998 942 q 947 928 965 939 q 929 888 929 917 l 929 84 q 947 44 929 55 q 998 31 965 34 l 998 1 l 991 1 q 952 3 966 1 q 925 9 938 6 q 899 15 913 12 q 862 18 885 18 q 824 15 839 18 q 797 9 810 12 q 767 3 783 6 q 726 1 751 1 l 726 31 q 776 44 759 34 q 793 83 793 54 l 793 435 q 753 414 773 422 q 710 401 732 406 q 663 395 688 397 q 608 394 638 394 q 571 395 593 394 q 524 397 548 396 q 477 399 499 398 q 439 399 454 399 q 384 397 409 399 q 335 391 358 395 q 292 378 313 387 q 251 358 271 370 l 251 84 q 269 44 251 55 q 320 31 287 34 l 320 1 l 313 1 q 274 3 288 1 q 247 9 260 6 q 221 15 235 12 q 184 18 207 18 q 146 15 161 18 q 118 9 132 12 q 89 3 105 6 q 47 1 73 1 l 47 31 q 98 44 81 34 q 115 83 115 54 z "},"I":{"ha":368,"x_min":47,"x_max":320,"o":"m 47 972 q 89 969 73 972 q 118 963 105 966 q 146 958 132 960 q 184 955 161 955 q 221 958 208 955 q 248 963 235 960 q 276 969 260 966 q 316 972 291 972 l 320 972 l 320 942 q 269 928 287 939 q 251 888 251 917 l 251 84 q 269 44 251 55 q 320 31 287 34 l 320 1 l 313 1 q 274 3 288 1 q 247 9 260 6 q 221 15 235 12 q 184 18 207 18 q 146 15 161 18 q 118 9 132 12 q 89 3 105 6 q 47 1 73 1 l 47 31 q 98 44 81 34 q 115 83 115 54 l 115 890 q 98 928 115 918 q 47 942 81 939 l 47 972 z "},"J":{"ha":607,"x_min":20,"x_max":559,"o":"m 106 169 q 121 148 117 162 q 129 117 125 134 q 138 82 133 100 q 154 50 143 64 q 182 26 164 35 q 231 16 201 16 q 290 30 267 16 q 327 64 313 43 q 347 111 340 85 q 355 164 353 138 q 357 216 357 191 q 356 258 356 241 l 356 885 q 338 925 356 914 q 287 939 320 935 l 287 968 l 294 968 q 333 966 319 968 q 358 961 347 964 q 384 955 370 958 q 420 952 397 952 q 458 955 444 952 q 487 960 473 957 q 517 966 501 963 q 559 968 534 968 l 559 939 q 509 925 526 935 q 492 886 492 916 l 492 241 q 474 133 492 181 q 422 50 456 84 q 338 -3 388 16 q 225 -21 289 -21 q 145 -13 182 -21 q 80 14 108 -4 q 37 57 53 31 q 20 117 21 83 q 26 140 20 130 q 40 159 31 151 q 61 171 50 167 q 83 176 72 176 q 106 169 97 176 z "},"K":{"ha":876,"x_min":47,"x_max":849,"o":"m 47 31 q 98 44 81 34 q 115 83 115 54 l 115 888 q 98 927 115 918 q 47 941 81 937 l 47 970 q 90 968 73 970 q 120 963 106 966 q 149 957 134 960 q 187 954 164 954 q 224 957 210 954 q 249 963 237 960 q 274 968 260 966 q 313 970 288 970 l 320 970 l 320 941 q 269 927 287 937 q 251 887 251 916 l 251 526 q 258 526 254 526 q 267 526 262 526 q 329 531 293 526 q 405 548 366 537 q 486 576 445 559 q 562 614 526 592 q 624 662 597 635 q 663 721 650 689 q 669 789 675 753 q 635 867 664 825 q 618 904 621 886 q 621 936 614 922 q 641 960 627 950 q 677 972 655 970 q 680 973 678 972 q 684 973 682 973 q 711 967 697 973 q 736 947 724 960 q 756 915 747 935 q 769 867 765 895 q 752 766 776 819 q 678 665 729 713 q 549 578 627 617 q 368 520 471 540 q 485 498 435 515 q 569 456 534 481 q 627 399 604 431 q 666 332 650 367 q 692 260 682 296 q 711 189 702 223 q 729 124 720 155 q 754 71 739 94 q 792 34 770 47 q 849 18 814 20 l 849 -12 q 729 3 777 -12 q 650 43 681 18 q 603 100 620 68 q 575 170 585 133 q 557 244 564 206 q 539 319 550 283 q 509 389 528 356 q 458 446 491 421 q 376 484 426 470 q 251 499 326 498 l 251 84 q 269 44 251 55 q 320 31 287 34 l 320 1 l 313 1 q 274 3 288 1 q 249 9 260 6 q 224 15 237 12 q 187 18 210 18 q 149 15 164 18 q 120 9 134 12 q 90 3 106 6 q 47 1 73 1 l 47 31 z "},"L":{"ha":690,"x_min":47,"x_max":669,"o":"m 47 31 q 98 44 81 34 q 115 83 115 54 l 115 890 q 98 928 115 918 q 47 941 81 938 l 47 970 q 90 968 73 970 q 120 963 106 966 q 149 957 134 960 q 187 954 164 954 q 224 957 210 954 q 249 963 237 960 q 274 968 260 966 q 313 970 288 970 l 320 970 l 320 941 q 269 927 287 937 q 251 887 251 916 l 251 84 q 256 61 251 70 q 270 48 261 52 q 292 42 279 43 q 320 41 304 41 l 588 41 q 623 53 610 41 q 634 90 635 66 l 669 90 q 667 64 669 75 q 664 43 665 54 q 664 23 663 33 q 669 0 665 13 l 320 0 q 293 0 307 0 q 266 -1 279 -1 q 173 0 220 -1 q 79 1 126 1 l 47 1 l 47 31 z "},"M":{"ha":1413,"x_min":54,"x_max":1366,"o":"m 54 1 l 54 31 q 105 45 87 34 q 123 84 123 56 l 123 893 q 119 916 123 907 q 106 930 115 925 q 85 937 98 935 q 56 941 73 939 l 56 970 q 96 968 81 970 q 121 963 110 966 q 144 957 132 960 q 179 954 157 954 q 211 957 197 954 q 235 963 224 960 q 257 969 246 966 q 280 972 268 972 l 284 972 l 717 149 l 1140 972 q 1163 969 1152 972 q 1184 963 1173 966 q 1209 957 1196 960 q 1240 954 1222 954 q 1275 957 1263 954 q 1298 963 1287 960 q 1324 968 1310 966 q 1364 970 1338 970 l 1364 941 q 1335 937 1348 939 q 1314 930 1322 935 q 1301 916 1305 925 q 1297 893 1297 907 l 1297 84 q 1315 44 1297 55 q 1366 31 1333 34 l 1366 1 l 1358 1 q 1320 3 1334 1 q 1295 9 1306 6 q 1270 15 1283 12 q 1233 18 1256 18 q 1195 15 1210 18 q 1165 9 1179 12 q 1135 3 1152 6 q 1093 1 1119 1 l 1093 31 q 1144 44 1126 34 q 1161 83 1161 54 l 1161 923 l 686 0 l 640 0 l 163 910 l 164 83 q 181 44 164 54 q 232 31 199 34 l 232 1 q 188 6 210 4 q 144 7 166 7 q 98 6 121 7 q 54 1 76 4 z "},"N":{"ha":998,"x_min":54,"x_max":944,"o":"m 123 84 l 123 893 q 119 916 123 907 q 106 930 115 925 q 85 937 98 935 q 56 941 73 939 l 56 970 q 96 968 81 970 q 121 963 110 966 q 144 957 132 960 q 179 954 157 954 q 211 957 197 954 q 235 963 224 960 q 257 969 246 966 q 280 972 268 972 l 284 972 l 835 52 l 836 888 q 818 927 836 917 q 766 941 800 938 l 766 971 q 810 966 788 968 q 856 964 833 964 q 900 966 878 964 q 944 971 922 968 l 944 941 q 893 928 911 938 q 876 889 876 918 l 876 0 l 706 0 l 163 910 l 164 83 q 181 44 164 54 q 232 31 199 34 l 232 1 q 188 6 210 4 q 144 7 166 7 q 98 6 121 7 q 54 1 76 4 l 54 31 q 105 45 87 34 q 123 84 123 56 z "},"O":{"ha":987,"x_min":27,"x_max":960,"o":"m 27 488 q 58 690 27 599 q 149 848 90 782 q 295 949 209 913 q 492 985 382 985 q 690 949 603 985 q 837 848 777 913 q 928 690 897 782 q 960 488 960 599 q 928 284 960 376 q 836 126 896 192 q 689 23 776 60 q 492 -14 602 -14 q 295 23 382 -14 q 150 126 209 60 q 59 284 90 192 q 27 488 27 376 m 170 488 q 178 375 170 431 q 205 268 187 319 q 250 172 223 216 q 313 96 277 128 q 394 45 349 64 q 492 27 439 27 q 591 45 547 27 q 672 96 636 64 q 736 172 709 128 q 781 268 763 216 q 808 375 799 319 q 817 488 817 431 q 808 601 817 545 q 781 707 799 656 q 736 802 763 758 q 672 877 709 845 q 591 927 636 909 q 492 945 546 945 q 394 927 439 945 q 313 877 349 909 q 250 801 277 844 q 205 707 223 758 q 178 600 187 656 q 170 488 170 544 z "},"P":{"ha":809,"x_min":47,"x_max":768,"o":"m 115 83 l 115 890 q 98 928 115 918 q 47 942 81 939 l 47 972 l 451 972 q 577 947 519 972 q 677 880 635 923 q 744 778 720 837 q 768 650 768 720 q 745 522 768 580 q 679 421 722 463 q 577 356 636 379 q 446 333 517 333 l 251 333 l 251 84 q 270 42 251 55 q 320 30 289 30 l 320 0 q 244 7 280 3 q 168 12 209 12 q 112 9 142 12 q 47 1 83 7 l 47 31 q 98 44 81 34 q 115 83 115 54 m 445 374 q 522 396 488 374 q 581 456 557 418 q 619 544 606 494 q 632 650 632 594 q 619 758 632 707 q 583 847 606 808 q 525 908 559 886 q 450 931 492 931 l 251 931 l 251 374 l 445 374 z "},"Q":{"ha":1007,"x_min":27,"x_max":1227,"o":"m 27 488 q 58 690 27 599 q 149 848 90 782 q 295 949 209 913 q 492 985 382 985 q 690 949 603 985 q 837 848 777 913 q 928 690 897 782 q 960 488 960 599 q 923 269 960 366 q 815 104 886 172 q 858 71 833 91 q 910 27 882 50 q 967 -19 938 4 q 1025 -60 997 -42 q 1079 -90 1053 -79 q 1124 -102 1104 -102 q 1153 -98 1139 -102 q 1179 -90 1166 -95 q 1203 -76 1191 -84 q 1227 -60 1215 -68 q 1157 -133 1200 -104 q 1055 -161 1115 -161 q 998 -151 1028 -161 q 936 -125 968 -141 q 872 -88 905 -109 q 810 -46 840 -67 q 751 -6 779 -26 q 699 27 723 14 q 602 -3 654 7 q 492 -14 551 -14 q 295 23 382 -14 q 150 126 209 60 q 59 284 90 192 q 27 488 27 376 m 359 62 q 401 116 378 90 q 450 161 423 142 q 508 193 477 181 q 575 204 538 204 q 654 191 616 204 q 727 159 692 178 q 766 231 749 192 q 794 312 783 269 q 811 398 806 354 q 817 488 817 443 q 808 601 817 545 q 781 707 799 656 q 736 802 763 758 q 672 877 709 845 q 591 927 636 909 q 492 945 546 945 q 394 927 439 945 q 313 877 349 909 q 250 801 277 844 q 205 707 223 758 q 178 600 187 656 q 170 488 170 544 q 181 358 170 422 q 217 237 193 294 q 276 135 241 180 q 359 62 312 90 m 492 27 q 564 36 531 27 q 627 63 597 45 q 585 81 605 75 q 546 90 566 87 q 506 94 526 93 q 460 94 485 94 q 424 79 443 94 q 389 47 405 64 q 492 27 437 27 z "},"R":{"ha":931,"x_min":47,"x_max":897,"o":"m 47 942 l 47 972 l 424 972 q 555 952 496 972 q 655 895 613 932 q 719 807 696 859 q 741 691 741 755 q 724 591 741 636 q 676 513 706 547 q 606 457 646 479 q 524 426 567 435 q 624 407 577 420 q 699 367 670 393 q 737 307 727 342 q 749 233 747 271 q 750 156 751 194 q 753 88 749 118 q 771 39 757 58 q 819 20 785 20 q 892 60 851 20 l 897 47 q 838 2 877 20 q 747 -16 799 -16 q 667 3 694 -16 q 628 50 640 21 q 615 117 616 79 q 614 192 614 154 q 611 266 614 230 q 591 327 608 301 q 554 362 578 349 q 502 382 531 375 q 440 393 473 390 q 376 395 408 395 q 307 394 340 395 q 251 391 275 392 l 251 84 q 270 42 251 55 q 320 30 289 30 l 320 0 q 244 7 280 3 q 168 12 209 12 q 112 9 142 12 q 47 1 83 7 l 47 31 q 98 44 81 34 q 115 83 115 54 l 115 890 q 98 928 115 918 q 47 942 81 939 m 418 456 q 502 474 467 456 q 560 523 537 492 q 594 598 583 555 q 605 692 605 641 q 592 783 605 740 q 555 860 579 827 q 498 912 532 892 q 423 931 465 931 l 320 931 q 269 918 288 931 q 251 877 251 905 l 251 456 l 418 456 z "},"S":{"ha":785,"x_min":34,"x_max":753,"o":"m 107 241 q 114 242 111 241 q 121 242 118 242 q 165 227 147 242 q 199 189 183 212 q 230 139 214 166 q 268 89 246 113 q 320 48 290 65 q 395 30 351 32 l 407 30 q 490 46 452 30 q 556 90 528 62 q 600 156 584 117 q 615 239 615 194 q 592 297 615 271 q 532 347 570 323 q 447 394 495 371 q 349 441 399 416 q 251 494 299 466 q 164 556 202 522 q 101 633 125 591 q 75 729 77 675 q 95 830 73 783 q 158 910 117 876 q 257 964 199 945 q 385 984 315 984 q 461 977 424 984 q 533 957 499 970 q 595 927 566 945 q 644 889 623 910 q 676 845 665 868 q 689 797 688 821 q 684 769 690 781 q 668 747 678 756 q 645 734 658 739 q 617 729 631 729 q 572 743 593 729 q 548 772 557 753 q 530 812 538 790 q 511 858 522 835 q 484 900 500 881 q 442 931 467 919 q 378 943 416 943 q 239 900 284 943 q 197 772 194 856 q 224 708 199 736 q 289 655 249 680 q 378 609 328 631 q 481 564 429 587 q 582 513 533 541 q 670 452 631 486 q 730 375 708 418 q 751 275 753 332 q 717 160 749 213 q 636 67 686 106 q 523 6 586 28 q 395 -16 460 -16 q 295 -6 348 -16 q 194 19 242 3 q 106 57 145 35 q 47 106 67 79 q 34 145 35 123 q 43 188 34 168 q 69 222 52 208 q 107 241 86 237 z "},"T":{"ha":821,"x_min":10,"x_max":811,"o":"m 10 971 l 811 971 q 805 937 807 949 q 804 915 804 925 q 806 894 804 905 q 811 861 808 882 l 781 861 q 767 912 778 895 q 728 930 756 930 l 475 930 l 475 84 q 494 42 475 55 q 544 30 513 30 l 544 0 q 468 7 504 3 q 391 12 433 12 q 336 9 366 12 q 271 1 307 7 l 271 31 q 322 44 304 34 q 339 83 339 54 l 339 930 l 94 930 q 54 912 64 930 q 40 861 43 895 l 10 861 q 15 894 14 882 q 17 915 17 905 q 15 937 17 925 q 10 971 14 949 z "},"U":{"ha":1001,"x_min":47,"x_max":947,"o":"m 47 970 q 90 968 73 970 q 120 963 106 966 q 149 957 134 960 q 187 954 164 954 q 224 957 210 954 q 249 963 237 960 q 274 968 260 966 q 313 970 288 970 l 320 970 l 320 941 q 269 925 287 937 q 251 884 251 913 l 251 385 q 260 294 251 339 q 287 210 269 250 q 330 135 304 170 q 387 76 355 101 q 456 37 418 52 q 536 23 494 23 q 650 50 595 23 q 746 124 704 77 q 813 235 788 171 q 838 375 838 300 l 838 888 q 820 928 838 918 q 769 942 802 939 l 769 972 q 813 967 791 968 q 859 965 836 965 q 903 967 881 965 q 947 972 925 968 l 947 942 q 896 929 913 939 q 879 890 879 919 l 879 375 q 851 216 879 288 q 774 92 823 144 q 656 11 724 40 q 508 -18 588 -18 q 353 13 425 -18 q 228 97 281 44 q 145 222 176 151 q 115 375 115 294 l 115 884 q 98 925 115 913 q 47 941 81 937 l 47 970 z "},"V":{"ha":899,"x_min":3,"x_max":892,"o":"m 3 943 l 3 973 q 37 970 22 972 q 66 966 53 968 q 93 963 80 964 q 118 962 105 962 q 148 964 132 962 q 180 975 163 967 l 496 89 l 810 975 q 824 970 817 971 q 839 968 831 968 q 867 972 854 968 q 892 975 880 975 l 892 941 q 885 941 890 941 q 876 941 881 941 q 851 937 864 941 q 833 918 839 933 l 508 0 l 384 0 l 67 887 q 46 928 60 915 q 3 943 33 942 z "},"W":{"ha":1385,"x_min":3,"x_max":1379,"o":"m 3 943 l 3 973 q 37 970 22 972 q 66 966 53 968 q 93 963 80 964 q 118 962 105 962 q 148 964 132 962 q 180 975 163 967 l 496 89 l 667 571 l 554 887 q 533 928 547 915 q 490 943 520 942 l 490 973 q 524 970 509 972 q 553 966 540 968 q 579 963 567 964 q 605 962 592 962 q 634 964 619 962 q 667 975 650 967 l 739 774 l 810 975 q 824 970 817 971 q 839 968 831 968 q 867 972 854 968 q 892 975 880 975 l 892 941 q 885 941 890 941 q 876 941 881 941 q 851 937 864 941 q 833 918 839 933 l 760 713 l 983 89 l 1297 975 q 1311 970 1304 971 q 1326 968 1318 968 q 1354 972 1341 968 q 1379 975 1367 975 l 1379 941 q 1372 941 1377 941 q 1362 941 1368 941 q 1338 937 1351 941 q 1320 918 1326 933 l 995 0 l 871 0 l 688 510 l 508 0 l 384 0 l 67 887 q 46 928 60 915 q 3 943 33 942 z "},"X":{"ha":747,"x_min":3,"x_max":741,"o":"m 200 972 l 424 524 l 669 964 q 683 960 676 961 q 694 958 689 958 q 717 962 707 958 q 739 965 728 965 l 741 965 l 741 930 l 739 930 q 707 928 722 930 q 682 908 692 925 l 446 481 l 654 60 q 670 49 660 53 q 692 43 681 45 q 713 40 704 41 q 726 36 723 39 l 732 1 q 663 9 694 3 q 602 16 632 16 q 569 13 585 16 q 535 0 553 9 q 439 188 492 82 q 330 410 386 294 l 85 1 q 58 8 71 8 q 36 4 46 8 q 14 1 25 1 l 14 35 l 16 35 q 47 39 33 35 q 72 58 62 42 l 309 454 q 248 579 278 517 q 188 701 217 642 q 132 813 159 760 q 81 912 104 867 q 65 924 76 920 q 43 930 54 928 q 22 933 32 932 q 10 937 13 934 l 3 971 q 39 968 22 970 q 73 963 56 966 q 104 958 89 960 q 134 956 119 956 q 166 960 151 956 q 200 972 182 963 z "},"Y":{"ha":743,"x_min":3,"x_max":736,"o":"m 194 968 l 411 490 l 665 968 q 680 963 673 964 q 692 962 686 962 q 715 965 705 962 q 736 968 725 968 l 736 934 l 735 934 q 719 933 727 934 q 703 931 710 933 q 689 924 695 929 q 678 911 683 920 l 435 452 l 435 84 q 454 42 435 55 q 505 30 473 30 l 505 0 q 429 7 465 3 q 352 12 393 12 q 297 9 326 12 q 232 1 267 7 l 232 31 q 282 44 265 34 q 300 83 300 54 l 300 407 q 281 448 294 420 q 251 514 268 477 q 214 595 234 551 q 175 682 195 639 q 136 766 155 726 q 104 838 118 806 q 82 888 90 869 q 73 907 73 907 q 59 919 69 915 q 38 924 49 922 q 17 928 26 926 q 5 932 7 929 l 3 966 q 38 963 22 966 q 70 958 55 961 q 99 954 85 956 q 127 951 113 951 q 159 955 143 951 q 194 968 176 958 z "},"Z":{"ha":897,"x_min":34,"x_max":863,"o":"m 603 930 l 481 930 l 130 930 q 104 927 114 930 q 90 918 95 924 q 84 902 85 911 q 83 881 83 893 l 49 881 q 51 906 49 895 q 54 927 53 917 q 55 948 55 937 q 49 971 54 958 l 787 970 l 218 43 l 753 42 q 827 90 829 42 l 862 90 q 860 64 862 75 q 857 43 859 54 q 857 23 856 33 q 863 0 858 13 l 34 3 l 603 930 z "},"[":{"ha":393,"x_min":47,"x_max":359,"o":"m 47 1063 l 359 1063 l 359 1022 l 176 1022 l 176 -59 l 359 -59 l 359 -100 l 47 -100 l 47 1063 z "},"\\":{"ha":553,"x_min":7,"x_max":547,"o":"m 7 1019 l 137 1019 l 547 -37 l 417 -37 l 7 1019 z "},"]":{"ha":393,"x_min":34,"x_max":345,"o":"m 345 1063 l 345 -100 l 34 -100 l 34 -59 l 216 -59 l 216 1022 l 34 1022 l 34 1063 l 345 1063 z "},"^":{"ha":498,"x_min":34,"x_max":464,"o":"m 249 1022 l 464 641 l 359 641 l 248 886 l 138 641 l 34 641 l 249 1022 z "},"_":{"ha":698,"x_min":34,"x_max":664,"o":"m 34 -82 l 34 23 l 664 23 l 664 -82 l 34 -82 z "},"`":{"ha":279,"x_min":34,"x_max":245,"o":"m 245 1016 l 133 1016 l 34 1210 l 95 1210 l 245 1016 z "},"a":{"ha":757,"x_min":34,"x_max":716,"o":"m 34 204 q 37 245 34 227 q 49 281 41 264 q 70 315 57 298 q 100 348 82 331 q 151 372 120 366 q 219 378 181 378 q 297 375 256 378 q 378 372 338 372 q 456 379 419 372 q 519 406 493 386 l 519 412 q 517 452 519 429 q 509 498 515 474 q 495 545 504 522 q 472 586 486 568 q 441 615 459 604 q 400 626 423 626 q 336 615 363 626 q 290 588 310 604 q 256 552 271 572 q 228 517 241 533 q 200 490 214 500 q 166 479 185 479 q 140 483 155 479 q 112 495 125 488 q 89 511 98 502 q 80 530 80 520 q 97 570 80 552 q 142 603 115 589 q 205 628 170 617 q 276 646 240 639 q 345 657 312 653 q 403 661 378 661 q 498 641 454 661 q 576 588 543 622 q 629 510 610 555 q 648 414 648 465 l 648 83 q 666 44 648 54 q 716 31 683 34 l 716 1 q 672 6 690 3 q 638 12 654 9 q 604 16 622 14 q 560 18 586 18 q 539 18 549 18 q 519 17 529 18 q 479 11 498 16 q 443 1 461 6 q 405 -8 425 -4 q 359 -13 385 -13 l 348 -13 q 207 1 266 -13 q 109 42 147 15 q 52 111 71 70 q 34 204 34 151 m 171 204 q 172 167 171 188 q 179 125 174 146 q 195 83 184 104 q 224 47 206 63 q 270 21 243 31 q 337 12 298 12 q 375 14 355 12 q 418 21 395 16 l 519 42 l 519 373 q 446 344 485 353 q 368 332 406 336 q 293 324 329 328 q 231 308 258 320 q 187 272 203 296 q 171 204 171 248 z "},"b":{"ha":777,"x_min":41,"x_max":753,"o":"m 41 968 l 41 998 q 84 992 66 995 q 119 987 102 989 q 153 982 135 984 q 197 981 171 981 q 218 981 208 981 q 237 981 228 981 l 237 602 q 450 658 315 658 q 587 638 529 658 q 681 577 644 618 q 736 473 718 536 q 753 323 753 410 q 736 176 753 239 q 681 71 718 113 q 587 8 644 28 q 450 -13 529 -13 q 329 3 382 -13 q 237 49 277 18 l 237 17 q 218 18 228 18 q 197 18 208 18 q 153 16 171 18 q 119 12 135 14 q 84 6 102 9 q 41 1 66 3 l 41 31 q 91 44 74 34 q 109 83 109 54 l 109 916 q 91 955 109 945 q 41 968 74 964 m 237 545 l 237 139 q 307 53 261 83 q 418 22 352 22 q 570 98 522 22 q 617 323 617 174 q 566 548 617 475 q 405 621 514 621 q 237 545 290 621 z "},"c":{"ha":686,"x_min":27,"x_max":661,"o":"m 345 658 q 466 646 413 658 q 555 611 519 634 q 610 556 591 589 q 629 484 629 524 q 612 460 629 468 q 574 452 596 452 q 531 461 553 452 q 499 487 510 469 q 486 513 492 499 q 473 542 480 528 q 457 571 467 557 q 433 595 448 585 q 397 613 418 606 q 345 621 376 620 q 262 603 296 621 q 206 548 228 585 q 174 455 184 511 q 163 323 163 399 q 212 96 163 174 q 368 19 261 19 q 433 31 406 19 q 480 63 460 42 q 517 111 500 83 q 549 172 533 139 q 578 203 559 192 q 616 214 597 214 q 646 203 633 214 q 659 172 659 193 q 638 109 661 142 q 576 48 615 76 q 483 3 536 21 q 370 -16 430 -16 q 221 4 285 -16 q 114 64 157 23 q 49 169 71 105 q 27 323 27 233 q 49 473 27 410 q 113 577 71 536 q 213 638 154 618 q 345 658 272 658 z "},"d":{"ha":764,"x_min":24,"x_max":736,"o":"m 24 323 q 41 473 24 410 q 96 577 59 536 q 191 638 134 618 q 328 658 248 658 q 540 602 463 658 l 540 918 q 535 942 540 932 q 523 957 531 951 q 502 966 514 963 q 472 970 489 969 l 472 1000 q 516 995 498 998 q 550 989 534 992 q 584 985 566 987 q 629 983 602 983 q 649 983 640 983 q 669 984 659 983 l 669 83 q 686 44 669 54 q 736 31 703 34 l 736 1 q 693 6 711 3 q 659 12 675 9 q 625 16 643 14 q 581 18 607 18 q 559 18 570 18 q 540 17 549 18 l 540 49 q 449 3 501 18 q 328 -13 396 -13 q 191 8 248 -13 q 96 71 134 28 q 41 176 59 113 q 24 323 24 239 m 359 22 q 471 53 426 22 q 540 139 516 83 l 540 545 q 372 621 487 621 q 212 548 264 621 q 160 323 160 475 q 208 98 160 174 q 359 22 256 22 z "},"e":{"ha":686,"x_min":27,"x_max":661,"o":"m 345 658 q 441 644 398 658 q 517 608 484 631 q 574 556 550 585 q 613 495 598 526 q 636 431 629 463 q 642 372 643 399 l 165 372 q 164 348 164 360 q 163 323 163 336 q 212 96 163 174 q 368 19 261 19 q 433 31 406 19 q 480 63 460 42 q 517 111 500 83 q 549 172 533 139 q 578 203 559 192 q 616 214 597 214 q 646 203 633 214 q 659 172 659 193 q 638 109 661 142 q 576 48 615 76 q 483 3 536 21 q 370 -16 430 -16 q 221 4 285 -16 q 114 64 157 23 q 49 169 71 105 q 27 323 27 233 q 49 473 27 410 q 113 577 71 536 q 213 638 154 618 q 345 658 272 658 m 498 407 q 496 446 500 424 q 484 492 492 469 q 461 538 475 515 q 431 579 448 561 q 392 609 413 597 q 345 621 370 620 q 220 568 262 621 q 167 407 178 516 l 498 407 z "},"f":{"ha":569,"x_min":41,"x_max":545,"o":"m 127 644 l 127 673 q 142 769 127 724 q 189 848 158 814 q 266 902 220 882 q 372 922 311 922 q 439 915 408 922 q 493 890 470 907 q 531 849 517 874 q 545 789 545 824 q 540 766 545 777 q 526 748 534 755 q 506 735 517 740 q 483 731 494 731 q 459 738 469 731 q 445 758 450 745 q 437 788 440 772 q 430 822 433 804 q 419 853 427 839 q 397 876 411 867 q 359 885 382 885 q 313 873 332 885 q 284 841 295 861 q 268 797 273 822 q 260 747 262 772 q 257 698 258 722 q 256 657 257 674 l 256 644 l 416 644 l 416 609 l 256 609 l 256 84 q 274 44 256 55 q 326 31 292 34 l 326 1 l 318 1 q 279 3 294 1 q 254 9 265 6 q 229 15 242 12 q 192 18 215 18 q 155 15 169 18 q 128 9 141 12 q 100 3 115 6 q 59 1 85 1 l 59 31 q 89 35 76 32 q 110 44 101 38 q 122 59 118 50 q 127 83 127 68 l 127 609 l 41 609 l 41 644 l 127 644 z "},"g":{"ha":785,"x_min":33,"x_max":764,"o":"m 121 -43 l 131 -43 q 202 -55 172 -43 q 257 -87 232 -68 q 306 -129 283 -106 q 355 -170 329 -151 q 414 -202 382 -189 q 492 -214 447 -214 q 592 -187 557 -214 q 628 -93 628 -159 q 616 -12 628 -43 q 583 36 604 19 q 534 60 562 54 q 474 66 506 66 q 428 64 452 66 q 381 60 405 62 q 335 56 358 58 q 290 54 312 54 q 215 66 248 54 q 163 113 181 78 q 155 160 150 140 q 174 194 159 180 q 208 217 188 208 q 243 230 227 225 q 168 312 195 262 q 142 427 142 361 q 166 534 142 490 q 232 605 191 578 q 326 644 273 632 q 434 656 378 656 q 445 689 437 669 q 466 730 452 709 q 521 775 486 761 q 593 789 556 789 q 636 785 616 789 q 673 770 657 780 q 699 746 689 760 q 709 713 709 732 q 704 690 709 701 q 689 671 699 680 q 669 659 680 663 q 646 654 658 654 q 623 661 633 654 q 601 682 612 669 q 578 708 590 695 q 555 729 567 720 q 532 739 544 739 q 509 729 519 739 q 491 706 498 720 q 477 679 483 693 q 469 654 472 664 q 564 632 522 650 q 637 586 607 615 q 683 517 667 557 q 699 427 699 477 q 680 331 699 376 q 624 252 660 286 q 538 200 588 219 q 427 180 488 180 q 294 203 353 180 q 260 177 267 191 q 257 151 252 163 q 275 127 261 138 q 304 109 288 117 q 348 100 324 100 q 395 106 370 100 q 446 122 419 113 q 501 137 472 130 q 563 144 530 144 q 643 131 606 144 q 706 94 680 118 q 749 34 733 69 q 764 -47 764 -1 q 740 -146 764 -105 q 676 -213 715 -187 q 587 -250 637 -238 q 486 -261 537 -261 q 409 -254 443 -261 q 348 -237 376 -248 q 296 -215 320 -227 q 249 -192 273 -203 q 200 -175 225 -182 q 144 -168 175 -168 q 115 -170 130 -168 q 108 -171 111 -171 q 101 -171 104 -171 q 62 -162 78 -171 q 40 -139 47 -153 q 34 -109 33 -125 q 45 -78 35 -92 q 74 -54 56 -64 q 121 -43 93 -44 m 308 347 q 384 260 345 292 q 467 229 424 229 q 537 252 502 229 q 580 299 568 273 q 590 358 593 326 q 572 427 588 390 q 530 503 556 463 q 458 587 494 558 q 384 615 422 615 q 315 592 350 615 q 271 546 285 572 q 257 488 257 519 q 270 421 257 456 q 308 347 283 385 z "},"h":{"ha":793,"x_min":41,"x_max":753,"o":"m 41 999 q 82 996 66 999 q 110 990 97 994 q 137 985 123 987 q 174 982 151 982 q 211 985 197 982 q 236 990 224 987 q 263 996 248 994 q 302 999 277 999 l 307 999 l 307 969 q 255 955 273 966 q 237 916 237 944 l 237 587 q 317 640 270 619 q 430 661 364 661 q 540 641 492 661 q 620 588 587 622 q 668 510 652 555 q 684 414 684 465 l 684 84 q 702 44 684 55 q 753 31 720 34 l 753 1 l 745 1 q 707 3 721 1 q 682 9 693 6 q 656 15 670 12 q 620 18 643 18 q 583 15 597 18 q 556 9 569 12 q 528 3 543 6 q 487 1 513 1 l 487 31 q 537 44 520 34 q 555 83 555 54 l 555 412 q 552 452 555 429 q 544 498 550 474 q 528 545 538 522 q 503 586 518 568 q 467 615 488 604 q 418 626 446 626 q 354 609 382 626 q 302 565 325 591 q 264 507 280 538 q 237 447 248 475 l 237 84 q 255 44 237 55 q 307 31 273 34 l 307 1 l 299 1 q 261 3 275 1 q 235 9 247 6 q 210 15 224 12 q 174 18 197 18 q 137 15 151 18 q 110 9 123 12 q 82 3 97 6 q 41 1 66 1 l 41 31 q 91 44 74 34 q 109 83 109 54 l 109 917 q 91 956 109 945 q 41 969 74 966 l 41 999 z "},"i":{"ha":347,"x_min":41,"x_max":307,"o":"m 174 629 q 211 632 197 629 q 236 638 224 635 q 263 644 248 641 q 302 646 277 646 l 307 646 l 307 616 q 255 602 273 613 q 237 563 237 591 l 237 84 q 255 44 237 55 q 307 31 273 34 l 307 1 l 299 1 q 261 3 275 1 q 235 9 247 6 q 210 15 224 12 q 174 18 197 18 q 137 15 151 18 q 110 9 123 12 q 82 3 97 6 q 41 1 66 1 l 41 31 q 91 44 74 34 q 109 83 109 54 l 109 564 q 91 603 109 593 q 41 616 74 613 l 41 646 q 82 644 66 646 q 110 638 97 641 q 137 632 123 635 q 174 629 151 629 m 77 810 q 84 849 77 831 q 105 880 92 867 q 136 901 119 893 q 174 908 154 908 q 213 901 195 908 q 244 880 231 893 q 264 849 257 867 q 272 810 272 831 q 264 772 272 790 q 244 742 257 755 q 213 721 231 728 q 174 713 195 713 q 136 721 154 713 q 105 742 119 728 q 84 772 92 755 q 77 810 77 790 z "},"j":{"ha":551,"x_min":24,"x_max":510,"o":"m 110 -94 q 124 -114 120 -101 q 132 -144 129 -127 q 139 -178 136 -161 q 150 -209 142 -195 q 172 -232 158 -223 q 210 -241 186 -241 q 256 -229 238 -241 q 286 -198 275 -217 q 303 -154 298 -178 q 311 -103 309 -129 q 313 -54 313 -78 q 313 -14 313 -31 l 313 559 q 295 599 313 589 q 244 613 277 610 l 244 643 l 252 643 q 290 641 276 643 q 315 635 304 638 q 340 629 327 632 q 377 627 354 627 q 414 629 400 627 q 441 634 429 631 q 469 640 454 637 q 510 643 484 643 l 510 613 q 459 600 477 610 q 442 561 442 590 l 442 -30 q 427 -126 442 -81 q 380 -205 411 -171 q 303 -259 349 -239 q 197 -279 258 -279 q 130 -271 161 -279 q 76 -247 99 -263 q 38 -205 52 -231 q 24 -146 24 -180 q 29 -123 24 -134 q 44 -104 35 -112 q 64 -92 53 -96 q 86 -87 75 -87 q 110 -94 100 -87 m 277 810 q 285 849 277 831 q 306 880 293 867 q 337 901 319 893 q 375 908 355 908 q 413 901 395 908 q 444 880 431 893 q 465 849 457 867 q 473 810 473 831 q 465 772 473 790 q 444 742 457 755 q 413 721 431 728 q 375 713 395 713 q 337 721 355 713 q 306 742 319 728 q 285 772 293 755 q 277 810 277 790 z "},"k":{"ha":808,"x_min":41,"x_max":788,"o":"m 109 83 l 109 917 q 91 956 109 945 q 41 969 74 966 l 41 999 q 82 996 66 999 q 110 990 97 994 q 137 985 123 987 q 174 982 151 982 q 211 985 197 982 q 236 990 224 987 q 263 996 248 994 q 302 999 277 999 l 307 999 l 307 969 q 255 955 273 966 q 237 916 237 944 l 237 419 l 242 419 q 296 422 265 419 q 359 433 326 426 q 423 453 391 441 q 479 484 454 466 q 519 527 505 503 q 534 583 534 551 q 537 623 533 607 q 549 648 541 639 q 573 662 558 658 q 609 667 587 667 q 643 659 628 667 q 666 636 657 651 q 677 602 675 622 q 672 557 679 582 q 643 496 663 523 q 590 451 624 470 q 504 420 556 432 q 377 401 452 408 q 492 378 447 397 q 564 332 536 359 q 607 270 592 304 q 632 202 623 237 q 651 134 642 167 q 675 76 660 102 q 717 35 691 50 q 788 18 743 19 l 788 -12 l 774 -12 q 659 5 704 -12 q 585 49 614 22 q 539 112 556 77 q 507 184 522 147 q 477 256 492 220 q 436 318 461 291 q 372 363 411 346 q 270 380 332 380 q 254 379 262 380 q 237 378 246 379 l 237 84 q 255 44 237 55 q 307 31 273 34 l 307 1 l 299 1 q 261 3 275 1 q 235 9 247 6 q 210 15 224 12 q 174 18 197 18 q 137 15 151 18 q 110 9 123 12 q 82 3 97 6 q 41 1 66 1 l 41 31 q 91 44 74 34 q 109 83 109 54 z "},"l":{"ha":347,"x_min":41,"x_max":307,"o":"m 41 1 l 41 31 q 91 44 74 34 q 109 83 109 54 l 109 1070 l 174 1070 q 211 1073 197 1070 q 236 1079 224 1076 q 263 1084 248 1082 q 302 1087 277 1087 l 307 1087 l 307 1057 q 255 1043 273 1054 q 237 1004 237 1032 l 237 84 q 255 44 237 55 q 307 31 273 34 l 307 1 l 299 1 q 261 3 275 1 q 235 9 247 6 q 210 15 224 12 q 174 18 197 18 q 137 15 151 18 q 110 9 123 12 q 82 3 97 6 q 41 1 66 1 z "},"m":{"ha":1234,"x_min":27,"x_max":1207,"o":"m 27 611 l 27 641 q 89 631 59 637 q 149 625 119 625 q 186 629 168 625 q 224 645 205 633 l 224 573 q 317 640 265 618 q 430 661 368 661 q 568 628 512 661 q 653 541 624 595 q 753 631 694 602 q 884 661 812 661 q 994 641 947 661 q 1074 588 1042 622 q 1122 510 1106 555 q 1138 414 1138 465 l 1138 84 q 1156 44 1138 55 q 1207 31 1174 34 l 1207 1 l 1200 1 q 1161 3 1175 1 q 1136 9 1147 6 q 1111 15 1124 12 q 1074 18 1097 18 q 1037 15 1051 18 q 1010 9 1023 12 q 982 3 998 6 q 941 1 967 1 l 941 31 q 992 44 975 34 q 1009 83 1009 54 l 1009 412 q 1007 452 1009 429 q 998 498 1004 474 q 982 545 992 522 q 955 586 971 568 q 917 615 939 604 q 865 626 895 626 q 799 609 829 626 q 746 567 769 593 q 706 509 722 541 q 682 445 690 477 q 684 430 684 437 q 684 414 684 422 l 684 84 q 702 44 684 55 q 753 31 720 34 l 753 1 l 745 1 q 707 3 721 1 q 682 9 693 6 q 656 15 670 12 q 620 18 643 18 q 583 15 597 18 q 556 9 569 12 q 528 3 543 6 q 487 1 513 1 l 487 31 q 537 44 520 34 q 555 83 555 54 l 555 412 q 552 452 555 429 q 544 498 550 474 q 527 545 538 522 q 501 586 517 568 q 463 615 485 604 q 411 626 440 626 q 340 607 372 626 q 284 558 308 588 q 245 493 260 529 q 224 425 229 458 l 224 84 q 225 60 224 70 q 232 44 227 50 q 248 35 237 38 q 274 31 258 32 l 274 1 l 267 1 q 230 3 243 1 q 205 9 216 6 q 182 15 195 12 q 146 18 169 18 q 111 15 123 18 q 89 9 99 12 q 66 3 79 6 q 27 1 53 1 l 27 31 q 78 44 60 34 q 95 83 95 54 l 95 559 q 78 597 95 587 q 27 611 60 608 z "},"n":{"ha":802,"x_min":41,"x_max":761,"o":"m 41 611 l 41 641 q 102 631 73 637 q 162 625 132 625 q 200 629 181 625 q 237 645 218 633 l 237 579 q 329 641 277 621 q 438 661 380 661 q 548 641 500 661 q 628 588 595 622 q 676 510 660 555 q 692 414 692 465 l 692 84 q 710 44 692 55 q 761 31 728 34 l 761 1 l 753 1 q 715 3 729 1 q 690 9 701 6 q 665 15 678 12 q 628 18 651 18 q 591 15 605 18 q 564 9 577 12 q 536 3 551 6 q 495 1 521 1 l 495 31 q 546 44 528 34 q 563 83 563 54 l 563 412 q 561 452 563 429 q 552 498 558 474 q 535 545 546 522 q 509 586 525 568 q 471 615 493 604 q 419 626 449 626 q 354 610 384 626 q 301 569 324 594 q 262 512 278 543 q 237 450 245 481 l 237 84 q 239 60 237 70 q 246 44 241 50 q 261 35 251 38 q 288 31 271 32 l 288 1 l 280 1 q 243 3 256 1 q 219 9 230 6 q 195 15 208 12 q 159 18 182 18 q 124 15 136 18 q 102 9 113 12 q 79 3 92 6 q 41 1 66 1 l 41 31 q 91 44 74 34 q 109 83 109 54 l 109 559 q 91 597 109 587 q 41 611 74 608 z "},"o":{"ha":691,"x_min":34,"x_max":657,"o":"m 353 661 q 490 641 433 661 q 585 579 548 621 q 640 473 622 537 q 657 323 657 410 q 640 175 657 239 q 585 70 622 112 q 490 7 548 28 q 353 -14 433 -14 q 34 323 34 -14 q 114 579 34 497 q 353 661 193 661 m 170 323 q 216 96 170 172 q 353 20 261 20 q 480 97 440 20 q 521 323 521 174 q 480 550 521 476 q 353 624 439 624 q 216 547 262 624 q 170 323 170 470 z "},"p":{"ha":781,"x_min":41,"x_max":753,"o":"m 41 613 l 41 643 q 84 637 66 640 q 119 632 102 635 q 153 628 135 629 q 197 626 171 626 q 218 626 208 626 q 237 627 228 626 l 237 595 q 329 641 277 625 q 450 656 382 656 q 587 636 529 656 q 681 573 644 615 q 736 468 718 531 q 753 321 753 406 q 736 171 753 234 q 681 66 718 107 q 587 5 644 25 q 450 -14 529 -14 q 237 42 315 -14 l 237 -338 q 218 -337 228 -337 q 197 -337 208 -337 q 153 -339 171 -337 q 119 -343 135 -340 q 84 -349 102 -346 q 41 -354 66 -351 l 41 -324 q 91 -311 74 -321 q 109 -272 109 -301 l 109 561 q 91 600 109 590 q 41 613 74 610 m 405 23 q 566 96 514 23 q 617 321 617 168 q 570 546 617 471 q 418 622 522 622 q 307 591 352 622 q 237 504 261 560 l 237 98 q 405 23 290 23 z "},"q":{"ha":767,"x_min":27,"x_max":740,"o":"m 332 656 q 452 641 399 656 q 543 595 505 625 l 543 627 q 563 626 553 626 q 584 626 573 626 q 628 628 610 626 q 663 632 646 629 q 696 637 679 635 q 740 643 714 640 l 740 613 q 689 600 707 610 q 672 561 672 590 l 672 -340 q 653 -340 663 -340 q 632 -340 643 -340 q 588 -341 606 -340 q 553 -346 570 -343 q 519 -351 537 -349 q 475 -357 501 -354 l 475 -327 q 505 -322 492 -326 q 526 -314 517 -319 q 539 -298 534 -308 q 543 -275 543 -289 l 543 42 q 332 -14 467 -14 q 194 5 252 -14 q 100 66 137 25 q 45 171 62 107 q 27 321 27 234 q 45 468 27 406 q 100 573 62 531 q 194 636 137 615 q 332 656 252 656 m 163 321 q 215 96 163 168 q 376 23 267 23 q 543 98 490 23 l 543 505 q 474 591 519 560 q 363 622 429 622 q 211 546 259 622 q 163 321 163 471 z "},"r":{"ha":578,"x_min":41,"x_max":555,"o":"m 237 583 q 308 634 267 614 q 399 654 349 654 q 458 646 430 654 q 507 621 486 637 q 541 579 528 604 q 555 521 554 554 q 549 498 555 509 q 535 479 544 488 q 515 467 526 471 q 493 462 505 462 q 469 469 480 462 q 454 490 459 476 q 447 519 450 503 q 440 553 444 536 q 429 585 437 570 q 408 609 422 600 q 372 618 395 618 l 369 618 q 328 610 347 618 q 291 587 308 602 q 261 553 275 572 q 237 511 248 533 l 237 84 q 239 60 237 70 q 246 44 241 50 q 261 35 251 38 q 288 31 271 32 l 288 1 l 280 1 q 243 3 256 1 q 219 9 230 6 q 196 15 209 12 q 160 18 183 18 q 125 15 137 18 q 103 9 113 12 q 80 3 93 6 q 41 1 66 1 l 41 31 q 91 44 74 34 q 109 83 109 54 l 109 559 q 91 597 109 587 q 41 611 74 608 l 41 641 q 102 631 73 637 q 162 625 132 625 q 200 629 181 625 q 237 645 218 633 l 237 583 z "},"s":{"ha":556,"x_min":34,"x_max":523,"o":"m 83 161 q 126 151 110 161 q 156 126 143 141 q 179 92 168 111 q 204 58 190 74 q 239 32 218 43 q 290 22 259 22 q 354 32 327 22 q 399 61 381 43 q 425 102 416 79 q 434 151 434 125 q 417 189 434 172 q 373 220 401 205 q 311 249 346 235 q 240 278 277 262 q 170 312 204 294 q 109 356 136 331 q 67 412 83 380 q 53 485 52 444 q 71 555 54 523 q 117 609 87 587 q 190 645 147 632 q 286 657 233 657 q 365 645 326 657 q 433 614 403 633 q 483 570 464 595 q 503 521 502 546 q 497 498 503 509 q 483 479 492 488 q 463 467 474 471 q 440 462 452 462 q 416 469 427 462 q 399 490 407 476 q 385 521 392 504 q 369 555 377 538 q 349 588 360 573 q 321 612 337 603 q 282 623 304 622 q 185 596 218 623 q 153 522 153 569 q 169 477 153 496 q 212 441 185 457 q 272 410 238 425 q 340 380 305 395 q 408 347 375 365 q 467 306 441 329 q 508 253 493 283 q 522 182 523 222 q 496 96 519 133 q 435 35 472 59 q 354 -2 399 10 q 264 -14 309 -14 q 205 -7 238 -14 q 140 11 172 -1 q 82 37 109 22 q 43 68 56 52 q 34 97 35 81 q 40 127 34 113 q 58 151 46 141 q 83 161 69 161 z "},"t":{"ha":562,"x_min":34,"x_max":539,"o":"m 34 645 l 43 645 q 94 667 73 648 q 129 711 114 686 q 155 765 143 736 q 179 819 166 794 q 208 860 192 844 q 249 876 224 876 l 250 645 l 416 645 l 416 610 l 250 610 l 250 251 q 250 210 250 234 q 252 161 250 186 q 259 111 254 136 q 277 67 265 86 q 307 35 288 47 q 352 23 325 23 q 390 32 376 23 q 412 55 404 41 q 423 86 420 69 q 430 120 427 104 q 438 150 433 137 q 452 170 442 163 q 476 177 462 177 q 499 173 488 177 q 519 160 510 168 q 534 142 528 153 q 538 119 539 131 q 524 59 538 84 q 486 18 510 34 q 430 -6 462 1 q 359 -14 397 -14 q 256 3 301 -14 q 181 52 212 20 q 136 130 151 84 q 120 235 120 176 l 120 610 l 34 610 l 34 645 z "},"u":{"ha":802,"x_min":41,"x_max":761,"o":"m 761 36 l 761 6 q 699 16 729 9 q 640 22 669 22 q 602 18 621 22 q 564 2 583 14 l 564 68 q 473 5 524 25 q 363 -14 423 -14 q 254 5 301 -14 q 174 59 206 25 q 126 137 142 92 q 110 233 110 182 l 110 562 q 92 602 110 591 q 41 616 74 613 l 41 646 l 45 646 q 85 644 71 646 q 112 638 100 641 q 137 632 123 635 q 174 629 151 629 q 211 632 197 629 q 238 638 225 635 q 266 644 250 641 q 307 646 281 646 l 307 616 q 256 603 273 613 q 239 564 239 593 l 239 235 q 241 196 239 218 q 250 149 243 173 q 267 102 256 125 q 293 61 277 79 q 331 32 309 43 q 382 21 353 21 q 448 37 418 21 q 500 78 477 53 q 540 135 524 103 q 564 197 556 166 l 564 562 q 563 586 564 576 q 556 602 561 596 q 541 611 551 608 q 514 616 530 614 l 514 646 l 518 646 q 557 644 544 646 q 582 638 571 641 q 606 632 593 635 q 642 629 619 629 q 677 632 665 629 q 699 638 689 635 q 722 644 709 641 q 761 646 735 646 l 761 616 q 710 603 728 613 q 693 564 693 593 l 693 88 q 710 49 693 59 q 761 36 728 39 z "},"v":{"ha":743,"x_min":3,"x_max":736,"o":"m 3 643 q 38 640 22 642 q 70 635 55 637 q 99 630 85 632 q 127 628 113 628 q 159 631 143 628 q 194 644 176 635 l 411 92 l 665 644 q 679 640 673 641 q 691 638 686 638 q 713 642 703 638 q 735 645 724 645 l 736 645 l 736 610 l 735 610 l 724 610 q 699 607 712 610 q 678 588 686 603 l 407 0 l 301 0 q 258 109 278 60 q 221 203 239 159 q 188 291 204 248 q 153 378 171 334 q 115 473 135 423 q 72 584 96 524 q 58 596 68 592 q 37 602 48 600 q 17 605 26 604 q 5 608 7 606 l 3 643 z "},"w":{"ha":1076,"x_min":3,"x_max":1069,"o":"m 194 644 l 411 92 l 512 311 q 463 435 488 370 q 404 584 437 500 q 390 596 400 592 q 370 602 380 600 q 349 605 359 604 q 338 608 340 606 l 336 643 q 371 640 354 642 q 402 635 387 637 q 431 630 417 632 q 460 628 446 628 q 492 631 475 628 q 526 644 508 635 l 591 481 l 665 644 q 679 640 673 641 q 691 638 686 638 q 713 642 703 638 q 735 645 724 645 l 736 645 l 736 610 l 735 610 l 724 610 q 699 607 712 610 q 678 588 686 604 l 608 436 l 743 92 l 998 644 q 1011 640 1005 641 q 1023 638 1018 638 q 1046 642 1036 638 q 1067 645 1056 645 l 1069 645 l 1069 610 l 1067 610 l 1056 610 q 1031 607 1044 610 q 1010 588 1018 603 l 739 0 l 633 0 q 604 76 618 40 q 577 144 590 111 q 553 206 564 176 q 530 265 541 236 l 407 0 l 301 0 q 258 109 278 60 q 221 203 239 159 q 188 291 204 248 q 153 378 171 334 q 115 473 135 423 q 72 584 96 524 q 58 596 68 592 q 37 602 48 600 q 17 605 26 604 q 5 608 7 606 l 3 643 q 38 640 22 642 q 70 635 55 637 q 99 630 85 632 q 127 628 113 628 q 159 631 143 628 q 194 644 176 635 z "},"x":{"ha":555,"x_min":3,"x_max":548,"o":"m 194 644 l 314 395 l 460 644 q 474 640 467 641 q 486 638 480 638 q 507 642 497 638 q 529 645 517 645 l 530 645 l 530 610 l 528 610 q 497 607 512 610 q 472 588 481 604 l 334 352 l 474 60 q 489 49 479 53 q 511 43 500 45 q 531 40 522 41 q 543 36 541 39 l 548 1 q 513 4 530 2 q 481 9 496 7 q 452 14 466 12 q 423 16 437 16 q 391 13 408 16 q 357 0 375 9 q 291 139 320 77 q 235 256 262 200 l 85 1 q 59 8 71 8 q 36 4 46 8 q 14 1 26 1 l 14 35 l 16 35 q 48 39 33 35 q 73 58 63 42 l 214 300 q 183 363 199 331 q 152 429 168 395 q 117 502 135 464 q 77 584 98 541 q 62 596 73 592 q 41 602 52 600 q 20 605 30 604 q 8 608 11 606 l 3 643 q 39 640 22 642 q 71 635 56 637 q 100 630 86 632 q 129 628 115 628 q 160 631 144 628 q 194 644 176 635 z "},"y":{"ha":713,"x_min":3,"x_max":707,"o":"m 194 644 l 420 174 l 632 644 q 646 640 640 641 q 659 638 653 638 q 683 642 672 638 q 705 645 694 645 l 707 645 l 707 610 q 696 610 704 610 q 678 607 688 609 q 659 599 668 604 q 643 583 649 593 l 293 -193 q 263 -248 279 -223 q 229 -290 247 -273 q 189 -318 210 -308 q 144 -328 168 -328 q 98 -319 123 -328 q 75 -299 83 -313 q 65 -271 67 -286 q 68 -241 63 -256 q 85 -219 73 -227 q 107 -214 93 -214 q 147 -219 125 -214 q 191 -224 169 -224 q 231 -214 212 -224 q 264 -172 250 -204 l 349 17 q 299 121 322 74 q 256 212 277 169 q 215 297 235 256 q 174 382 195 338 q 129 476 153 427 q 77 584 105 525 q 62 596 73 592 q 41 602 52 600 q 20 605 30 604 q 8 608 11 606 l 3 643 q 39 640 22 642 q 71 635 56 637 q 100 630 86 632 q 129 628 115 628 q 160 631 144 628 q 194 644 176 635 z "},"z":{"ha":596,"x_min":17,"x_max":572,"o":"m 377 610 l 313 610 l 128 610 q 102 606 112 610 q 88 594 93 602 q 82 576 83 587 q 82 554 81 566 l 47 554 q 50 579 47 568 q 53 601 52 591 q 53 621 54 611 q 47 644 53 631 l 553 644 l 195 35 l 491 34 q 517 38 507 34 q 531 50 526 42 q 537 67 536 57 q 537 90 538 77 l 572 90 q 570 64 572 75 q 567 43 568 54 q 567 23 566 33 q 572 0 568 13 l 17 0 l 17 3 l 377 610 z "},"{":{"ha":425,"x_min":34,"x_max":391,"o":"m 151 713 q 145 810 147 764 q 149 896 144 857 q 166 968 153 936 q 207 1025 180 1001 q 275 1064 233 1049 q 379 1083 317 1079 l 379 1036 q 307 1002 332 1023 q 271 957 281 982 q 262 902 261 932 q 269 841 263 873 q 281 776 275 809 q 288 710 288 743 q 273 633 288 666 q 234 574 258 600 q 177 528 209 548 q 109 490 144 508 l 106 489 q 172 443 139 470 q 231 384 205 416 q 270 314 256 351 q 275 235 283 276 q 266 174 271 206 q 259 110 260 142 q 263 50 258 79 q 283 -3 269 20 q 324 -41 298 -26 q 391 -58 350 -56 l 391 -100 q 318 -96 355 -100 q 248 -74 281 -92 q 178 -13 201 -48 q 148 63 156 22 q 141 149 140 104 q 142 235 142 193 q 136 306 142 275 q 117 364 130 337 q 83 416 104 391 q 34 467 62 440 l 34 515 q 75 554 54 532 q 115 603 97 576 q 143 657 132 629 q 151 713 153 686 z "},"|":{"ha":224,"x_min":47,"x_max":176,"o":"m 47 -140 l 47 1027 l 176 1027 l 176 -140 l 47 -140 z "},"}":{"ha":425,"x_min":34,"x_max":391,"o":"m 34 -100 l 34 -58 q 101 -41 75 -56 q 142 -3 127 -26 q 162 50 157 20 q 166 110 167 79 q 160 174 165 142 q 150 235 155 206 q 156 314 142 276 q 194 384 169 351 q 253 443 220 416 q 319 489 286 470 l 316 490 q 249 528 281 508 q 192 574 216 548 q 152 633 167 600 q 138 710 138 666 q 144 776 138 743 q 156 841 151 809 q 163 902 162 873 q 154 957 164 932 q 119 1002 144 982 q 46 1036 94 1023 l 46 1083 q 150 1064 108 1079 q 219 1025 192 1049 q 259 968 245 1001 q 277 896 272 936 q 280 810 281 857 q 274 713 278 764 q 282 657 272 686 q 311 603 293 629 q 350 554 328 576 q 391 515 372 532 l 391 467 q 342 416 363 440 q 309 364 322 391 q 289 306 296 337 q 283 235 283 275 q 284 149 283 193 q 277 63 286 104 q 247 -13 269 22 q 178 -74 224 -48 q 107 -96 144 -92 q 34 -100 71 -100 z "},"~":{"ha":782,"x_min":34,"x_max":748,"o":"m 187 500 q 249 490 216 500 q 315 465 281 480 q 384 431 349 449 q 451 397 418 413 q 514 372 484 382 q 569 361 544 361 q 586 363 577 361 q 602 368 594 364 q 621 392 614 376 q 632 429 629 409 q 637 467 636 448 q 638 498 638 486 l 748 498 q 738 425 748 463 q 705 356 727 387 q 650 305 683 325 q 572 285 617 285 q 507 298 541 285 q 437 330 472 311 q 368 371 402 349 q 300 413 333 394 q 239 445 268 432 q 186 458 210 458 q 166 448 174 458 q 152 422 157 438 q 143 388 146 407 q 139 350 140 369 q 137 316 138 332 q 137 291 137 300 l 34 291 q 43 360 34 323 q 72 428 53 397 q 120 480 91 459 q 187 500 149 500 z "},"¡":{"ha":263,"x_min":34,"x_max":229,"o":"m 43 45 q 45 140 43 85 q 53 256 48 195 q 63 382 57 317 q 77 509 70 448 q 92 624 84 570 q 106 717 99 677 l 161 717 q 175 618 168 673 q 190 503 182 564 q 203 379 197 443 q 214 256 210 316 q 222 140 219 195 q 225 42 225 85 q 214 16 225 25 q 187 2 203 7 q 154 -3 171 -2 q 125 -4 136 -4 q 100 -2 114 -4 q 73 6 86 1 q 52 21 60 12 q 43 45 43 31 m 34 872 q 42 910 34 892 q 63 941 50 928 q 94 962 76 954 q 132 970 111 970 q 170 962 152 970 q 201 941 188 954 q 222 910 214 928 q 229 872 229 892 q 222 834 229 852 q 201 803 214 817 q 170 782 188 790 q 132 774 152 774 q 94 782 111 774 q 63 803 76 790 q 42 834 50 817 q 34 872 34 852 z "},"¢":{"ha":700,"x_min":34,"x_max":667,"o":"m 34 511 q 51 646 34 587 q 101 745 68 704 q 180 809 134 785 q 286 841 227 833 l 286 1006 l 415 1006 l 415 842 q 579 788 522 832 q 635 671 635 743 q 619 648 635 656 q 581 640 602 640 q 538 648 559 640 q 506 675 517 656 q 491 706 497 689 q 475 741 484 724 q 452 772 466 758 q 415 796 438 787 l 415 211 q 462 231 442 217 q 498 263 482 244 q 528 307 515 283 q 556 359 542 332 q 585 390 567 379 q 622 401 604 401 q 652 391 640 401 q 666 359 665 380 q 648 302 667 332 q 595 245 629 272 q 515 199 562 219 q 415 174 469 180 l 415 11 l 286 11 l 286 178 q 98 277 161 197 q 34 511 34 357 m 170 511 q 198 324 170 395 q 286 224 227 252 l 286 798 q 197 706 224 777 q 170 511 170 635 z "},"£":{"ha":677,"x_min":34,"x_max":644,"o":"m 340 467 q 362 391 353 429 q 370 314 370 353 q 361 252 370 281 q 338 198 352 222 q 308 155 324 174 q 277 122 292 136 q 251 101 262 109 q 237 92 240 93 l 644 92 l 644 0 l 100 0 q 79 5 90 0 q 62 19 68 9 q 56 44 56 29 q 70 79 57 58 q 104 117 83 100 q 148 149 125 134 q 195 179 172 163 q 238 212 219 194 q 268 252 256 230 q 280 304 280 274 q 261 380 280 339 q 216 467 243 421 l 34 467 l 34 545 l 171 545 q 119 651 142 597 q 96 759 97 705 q 115 856 96 813 q 170 929 134 899 q 260 974 207 958 q 381 989 313 989 q 473 971 431 989 q 545 922 515 954 q 593 847 576 890 q 610 753 610 804 q 603 723 610 736 q 585 702 596 710 q 559 689 573 693 q 530 685 545 685 q 504 689 516 685 q 483 702 491 694 q 473 724 475 711 q 478 754 471 737 q 488 820 491 785 q 471 883 485 854 q 433 930 456 911 q 381 949 410 949 q 267 909 303 949 q 231 785 231 870 q 238 729 231 758 q 256 670 245 701 q 281 609 267 640 q 309 545 295 577 l 556 545 l 556 467 l 340 467 z "},"¤":{"ha":410,"x_min":34,"x_max":376,"o":"m 34 655 q 43 677 34 669 q 66 686 53 686 q 90 673 81 686 l 129 620 q 166 635 146 629 q 205 640 185 640 q 281 620 247 640 l 321 673 q 345 686 330 686 q 367 677 359 686 q 376 654 376 668 q 370 637 376 648 q 355 616 363 627 q 339 596 347 606 q 328 581 332 586 q 364 476 364 534 q 352 415 364 444 q 319 362 340 386 q 332 345 323 357 q 352 320 342 334 q 369 295 361 307 q 376 276 376 283 q 367 253 376 262 q 345 244 359 244 q 331 248 338 244 q 321 257 325 252 l 269 327 q 205 313 238 313 q 172 317 188 313 q 140 327 156 321 l 89 257 q 65 245 80 245 q 43 253 52 245 q 35 275 35 262 q 42 295 35 283 q 58 320 49 307 q 77 344 67 333 q 92 362 87 355 q 58 415 70 386 q 45 476 45 444 q 82 581 45 534 q 70 596 78 586 q 54 616 62 606 q 40 638 46 627 q 34 655 34 648 m 205 354 q 242 364 227 354 q 269 391 258 374 q 284 430 279 408 q 290 476 290 452 q 286 529 290 506 q 272 568 281 552 q 246 591 262 583 q 205 600 229 600 q 162 589 178 600 q 136 561 145 578 q 123 522 127 544 q 120 476 120 500 q 125 430 120 452 q 141 391 130 408 q 167 364 151 374 q 205 354 183 354 z "},"¥":{"ha":740,"x_min":0,"x_max":733,"o":"m 191 968 l 408 490 l 662 968 q 676 963 669 964 q 688 962 683 962 q 711 965 701 962 q 733 968 722 968 l 733 934 l 732 934 q 715 933 724 934 q 699 931 707 933 q 686 924 692 929 q 675 911 680 920 l 432 452 l 432 416 l 532 416 l 532 338 l 432 338 l 432 260 l 532 260 l 532 182 l 432 182 l 432 84 q 451 42 432 55 q 501 30 470 30 l 501 0 q 426 7 461 3 q 349 12 390 12 q 293 9 323 12 q 229 1 264 7 l 229 31 q 279 44 262 34 q 296 83 296 54 l 296 182 l 182 182 l 182 260 l 296 260 l 296 338 l 182 338 l 182 416 l 292 416 q 271 463 285 433 q 240 530 258 492 q 204 610 223 568 q 165 695 184 653 q 129 775 146 736 q 99 842 112 813 q 78 889 85 871 q 70 907 70 907 q 56 919 66 915 q 34 924 45 922 q 14 928 23 926 q 2 932 4 929 l 0 966 q 35 963 18 966 q 66 958 52 961 q 96 954 81 956 q 124 951 110 951 q 156 955 140 951 q 191 968 172 958 z "},"¦":{"ha":224,"x_min":47,"x_max":177,"o":"m 177 447 l 177 1 l 47 1 l 47 447 l 177 447 m 47 543 l 47 989 l 177 989 l 177 543 l 47 543 z "},"§":{"ha":574,"x_min":34,"x_max":541,"o":"m 141 652 q 77 711 100 675 q 53 795 53 747 q 73 874 53 840 q 124 933 92 909 q 196 970 156 958 q 277 983 236 983 q 343 975 309 983 q 406 950 376 966 q 457 909 435 933 q 492 852 480 884 q 494 836 494 844 q 483 805 494 819 q 454 792 471 792 q 422 805 435 792 q 410 837 410 819 q 398 885 410 865 q 368 918 387 905 q 326 937 349 930 q 277 943 302 943 q 227 937 250 943 q 186 918 203 931 q 159 884 169 905 q 149 834 149 864 q 166 785 149 807 q 205 748 184 762 q 266 718 231 731 q 338 691 301 704 q 412 663 376 677 q 477 627 448 648 q 523 579 505 607 q 541 511 541 551 q 532 458 541 484 q 508 412 524 433 q 473 373 493 391 q 429 342 453 355 q 495 290 468 322 q 522 212 522 258 q 499 123 522 163 q 441 57 477 84 q 360 16 405 31 q 270 2 315 2 q 201 10 237 2 q 133 34 165 18 q 76 74 101 50 q 37 131 50 98 q 35 146 35 137 q 46 174 35 162 q 73 185 57 185 q 94 180 87 185 q 106 168 102 176 q 111 151 110 161 q 113 130 113 140 q 133 87 116 104 q 173 60 149 70 q 222 46 196 50 q 270 43 249 43 q 326 49 295 43 q 382 70 356 56 q 427 105 409 83 q 445 158 445 127 q 439 184 445 172 q 424 209 433 197 q 404 230 415 220 q 382 246 393 239 q 317 276 354 264 q 242 301 281 289 q 166 329 203 314 q 99 366 129 344 q 52 418 70 387 q 34 492 34 448 q 63 588 34 547 q 141 652 92 629 m 131 532 q 150 479 131 502 q 196 439 169 456 q 254 411 224 422 q 308 391 285 399 q 359 373 334 382 q 410 351 385 363 q 449 397 435 371 q 463 454 463 422 q 443 512 463 488 q 393 553 422 536 q 329 582 363 570 q 270 600 296 593 q 221 616 245 608 q 174 635 197 624 q 131 532 131 592 z "},"¨":{"ha":454,"x_min":34,"x_max":420,"o":"m 34 1088 q 41 1123 34 1107 q 60 1151 48 1139 q 88 1170 72 1163 q 123 1177 104 1177 q 157 1170 141 1177 q 185 1151 174 1163 q 204 1123 197 1139 q 212 1088 212 1107 q 204 1054 212 1070 q 185 1026 197 1038 q 157 1007 174 1014 q 123 1000 141 1000 q 88 1007 104 1000 q 60 1026 72 1014 q 41 1054 48 1038 q 34 1088 34 1070 m 332 1177 q 366 1170 350 1177 q 394 1151 382 1163 q 413 1123 406 1139 q 420 1088 420 1107 q 413 1054 420 1070 q 394 1026 406 1038 q 366 1007 382 1014 q 332 1000 350 1000 q 297 1007 313 1000 q 269 1026 281 1014 q 250 1054 257 1038 q 243 1088 243 1070 q 250 1123 243 1107 q 269 1151 257 1139 q 297 1170 281 1163 q 332 1177 313 1177 z "},"©":{"ha":1116,"x_min":34,"x_max":1082,"o":"m 34 490 q 167 865 34 739 q 562 991 300 991 q 769 954 674 991 q 934 849 865 916 q 1043 690 1004 782 q 1082 490 1082 598 q 1063 353 1082 418 q 1011 232 1045 288 q 930 130 977 176 q 824 52 882 84 q 699 1 766 19 q 558 -16 631 -16 q 343 20 439 -16 q 177 122 246 56 q 71 281 109 188 q 34 490 34 375 m 560 24 q 718 59 645 24 q 843 155 790 93 q 926 303 896 217 q 956 492 956 389 q 925 675 956 591 q 840 821 894 760 q 714 916 787 882 q 560 951 642 951 q 395 920 469 951 q 269 829 321 888 q 188 683 216 769 q 160 486 160 596 q 191 300 160 385 q 275 154 221 216 q 402 59 329 93 q 560 24 475 24 m 234 484 q 256 634 234 570 q 319 738 278 697 q 420 799 361 779 q 552 819 479 819 q 673 807 620 819 q 762 772 726 795 q 817 717 798 749 q 836 644 836 685 q 819 621 836 629 q 781 613 803 613 q 738 622 760 613 q 706 648 717 630 q 693 674 699 660 q 680 703 687 688 q 664 731 673 718 q 640 756 654 745 q 604 774 625 767 q 551 781 583 781 q 469 763 503 781 q 413 709 435 745 q 380 616 391 672 q 370 484 370 560 q 419 257 370 334 q 574 180 468 180 q 640 191 613 180 q 687 223 667 203 q 724 272 707 244 q 756 332 740 300 q 785 363 766 353 q 823 374 804 374 q 853 364 840 374 q 866 332 865 354 q 845 270 867 303 q 783 209 822 237 q 690 163 743 182 q 576 145 637 145 q 428 164 492 145 q 320 225 363 184 q 256 330 277 266 q 234 484 234 394 z "},"ª":{"ha":511,"x_min":34,"x_max":471,"o":"m 34 846 q 43 899 34 877 q 77 946 53 922 q 109 963 89 959 q 152 968 128 968 q 202 965 176 968 q 254 963 229 963 q 304 968 280 963 q 345 987 328 972 l 345 991 q 341 1035 345 1009 q 329 1084 337 1060 q 306 1124 320 1107 q 269 1141 291 1141 q 228 1133 245 1141 q 198 1114 211 1125 q 176 1089 186 1103 q 158 1064 167 1076 q 140 1045 150 1053 q 119 1038 131 1038 q 102 1041 112 1038 q 84 1048 93 1044 q 70 1060 75 1053 q 64 1074 64 1067 q 75 1102 64 1089 q 103 1124 85 1114 q 143 1142 121 1135 q 189 1155 166 1150 q 233 1163 212 1160 q 270 1165 254 1165 q 331 1152 302 1165 q 381 1115 360 1138 q 415 1060 403 1091 q 427 993 427 1028 l 427 761 q 438 733 427 741 q 471 724 449 726 l 471 703 q 443 707 454 705 q 421 711 431 709 q 399 714 410 713 q 370 715 387 715 q 357 715 363 715 q 345 715 351 715 q 319 712 330 715 q 295 705 307 709 q 271 697 283 701 q 242 694 258 694 l 234 694 q 82 733 130 694 q 34 846 34 772 m 121 846 q 124 805 121 828 q 137 761 126 782 q 169 726 148 740 q 228 711 191 711 q 280 718 251 711 l 345 732 l 345 964 q 297 944 323 949 q 247 935 272 938 q 200 929 222 932 q 160 918 177 926 q 132 893 142 910 q 121 846 121 876 z "},"«":{"ha":854,"x_min":34,"x_max":821,"o":"m 34 321 l 444 532 l 444 396 l 127 267 l 444 147 l 444 12 l 34 206 l 34 321 m 820 541 l 820 405 l 534 279 l 821 144 l 821 9 l 441 218 l 441 333 l 820 541 z "},"¬":{"ha":707,"x_min":34,"x_max":673,"o":"m 34 508 l 673 508 l 673 241 l 572 241 l 572 379 l 34 379 l 34 508 z "},"®":{"ha":1116,"x_min":34,"x_max":1082,"o":"m 562 991 q 769 954 674 991 q 934 849 865 916 q 1043 690 1004 782 q 1082 490 1082 598 q 1063 353 1082 418 q 1011 232 1045 288 q 930 130 977 176 q 824 52 882 84 q 699 1 766 19 q 558 -16 631 -16 q 343 20 439 -16 q 177 122 246 56 q 71 281 109 188 q 34 490 34 375 q 167 865 34 739 q 562 991 300 991 m 560 24 q 718 59 645 24 q 843 155 790 93 q 926 303 896 217 q 956 492 956 389 q 925 675 956 591 q 840 821 894 760 q 714 916 787 882 q 560 951 642 951 q 395 920 469 951 q 269 829 321 888 q 188 683 216 769 q 160 486 160 596 q 191 300 160 385 q 275 154 221 216 q 402 59 329 93 q 560 24 475 24 m 329 183 l 329 202 q 360 211 349 204 q 370 235 370 217 l 370 755 q 360 781 370 774 q 329 789 349 787 l 329 808 l 558 808 q 638 795 602 808 q 699 759 673 783 q 738 702 724 736 q 751 628 751 669 q 741 564 751 593 q 711 513 730 534 q 669 477 693 491 q 619 456 646 463 q 680 445 652 453 q 726 419 708 436 q 749 380 743 403 q 757 333 755 357 q 757 283 758 308 q 759 239 756 258 q 769 208 761 220 q 798 195 778 195 q 844 221 818 195 l 846 213 q 810 184 834 195 q 755 172 787 172 q 706 184 723 172 q 682 215 689 196 q 674 257 675 233 q 674 306 673 281 q 672 353 674 330 q 660 393 670 376 q 637 415 652 407 q 605 429 623 424 q 568 436 587 434 q 528 437 548 437 q 487 436 507 437 q 453 435 467 435 l 453 237 q 465 210 453 218 q 495 201 476 201 l 495 182 q 449 187 471 184 q 401 190 427 190 q 329 183 369 190 m 453 476 l 555 476 q 606 488 585 476 q 641 519 627 499 q 662 568 655 540 q 669 628 669 595 q 661 687 669 659 q 638 736 653 715 q 603 770 624 758 q 557 783 583 783 l 495 783 q 464 774 475 783 q 453 747 453 766 l 453 476 z "},"¯":{"ha":539,"x_min":34,"x_max":505,"o":"m 505 946 l 34 946 l 34 1017 l 505 1017 l 505 946 z "},"°":{"ha":475,"x_min":34,"x_max":441,"o":"m 243 1166 q 394 1113 347 1166 q 441 945 441 1059 q 394 780 441 835 q 243 725 347 725 q 34 945 34 725 q 86 1113 34 1059 q 243 1166 138 1166 m 123 945 q 243 747 123 747 q 326 797 300 747 q 352 945 352 846 q 326 1094 352 1046 q 243 1142 299 1142 q 153 1092 183 1142 q 123 945 123 1042 z "},"±":{"ha":496,"x_min":34,"x_max":463,"o":"m 193 363 l 193 532 l 321 532 l 321 363 l 463 363 l 463 286 l 321 286 l 321 119 l 193 119 l 193 286 l 34 286 l 34 363 l 193 363 m 387 -4 l 98 -4 l 98 74 l 387 74 l 387 -4 z "},"²":{"ha":504,"x_min":34,"x_max":470,"o":"m 34 644 l 34 697 q 91 748 59 719 q 155 812 122 778 q 219 885 188 847 q 276 963 251 924 q 315 1041 300 1002 q 330 1114 330 1079 q 325 1179 330 1152 q 307 1223 319 1206 q 274 1248 294 1240 q 224 1256 254 1256 q 176 1241 198 1256 q 140 1204 154 1226 q 120 1155 125 1181 q 123 1107 115 1129 q 122 1072 132 1083 q 96 1060 112 1060 q 79 1063 87 1060 q 64 1071 71 1065 q 52 1084 57 1076 q 47 1103 47 1093 q 58 1176 44 1142 q 97 1236 71 1211 q 159 1275 123 1261 q 239 1290 196 1290 q 317 1278 283 1290 q 376 1243 352 1265 q 414 1187 401 1220 q 427 1114 427 1155 q 410 1042 427 1080 q 366 966 393 1004 q 304 890 339 928 q 234 819 270 853 q 164 755 198 785 q 103 703 130 725 l 408 702 q 426 705 419 702 q 436 713 433 708 q 440 726 439 718 q 440 741 441 733 l 470 741 q 469 718 470 731 q 466 691 467 705 q 466 666 465 678 q 470 644 466 653 l 34 644 z "},"³":{"ha":475,"x_min":33,"x_max":441,"o":"m 111 739 q 121 708 114 723 q 141 681 129 693 q 169 662 153 669 q 206 655 185 655 q 267 668 241 655 q 311 706 293 682 q 337 766 328 731 q 346 844 346 801 q 334 900 346 873 q 303 946 322 926 q 260 978 284 966 q 211 990 236 990 q 174 983 191 990 l 168 991 q 215 1027 191 1007 q 257 1072 238 1047 q 287 1124 275 1096 q 299 1181 299 1152 q 280 1243 299 1219 q 229 1267 260 1267 q 177 1255 200 1267 q 139 1224 155 1243 q 117 1182 124 1206 q 115 1135 111 1159 q 109 1104 118 1114 q 87 1095 100 1095 q 69 1098 78 1095 q 53 1109 60 1102 q 42 1125 46 1116 q 39 1147 38 1135 q 60 1213 43 1185 q 103 1259 77 1241 q 161 1286 128 1278 q 229 1295 193 1295 q 295 1287 265 1295 q 348 1263 326 1278 q 382 1227 370 1248 q 395 1183 395 1207 q 381 1124 395 1150 q 347 1078 368 1099 q 300 1042 326 1057 q 247 1015 273 1027 q 316 1003 281 1015 q 379 967 351 990 q 424 913 406 945 q 441 844 441 882 q 384 683 441 739 q 206 627 328 627 q 166 631 188 627 q 124 643 144 635 q 86 659 104 650 q 58 677 68 668 q 36 709 39 694 q 39 737 33 725 q 57 756 45 749 q 81 764 69 764 q 100 758 92 764 q 111 739 108 752 z "},"´":{"ha":279,"x_min":34,"x_max":245,"o":"m 34 1019 l 184 1215 l 245 1215 l 145 1019 l 34 1019 z "},"µ":{"ha":802,"x_min":41,"x_max":761,"o":"m 41 660 l 47 660 q 79 657 63 660 q 111 651 95 654 q 142 646 126 648 q 174 643 158 643 q 208 646 191 643 q 241 651 224 648 q 273 657 257 654 q 307 660 290 660 l 307 630 q 281 626 294 629 q 259 618 269 624 q 244 604 250 613 q 239 578 239 594 l 239 249 q 246 178 239 216 q 270 109 254 140 q 314 56 287 77 q 382 35 342 35 q 444 50 415 35 q 497 89 473 64 q 538 144 521 113 q 564 208 555 175 l 564 576 q 562 601 564 591 q 555 617 560 611 q 539 626 549 623 q 514 630 530 629 l 514 660 l 520 660 q 551 657 536 660 q 581 651 566 654 q 611 646 596 648 q 642 643 627 643 q 672 646 658 643 q 702 651 687 648 q 731 657 716 654 q 761 660 745 660 l 761 630 q 735 626 748 629 q 714 618 723 624 q 699 604 705 613 q 693 578 693 594 l 693 102 q 699 76 693 85 q 714 60 705 66 q 735 53 723 55 q 761 50 748 51 l 761 20 q 701 29 730 23 q 640 35 671 35 q 601 30 621 35 q 564 16 582 26 l 564 81 q 479 21 528 43 q 363 -1 430 -1 q 295 7 327 -1 q 235 28 263 14 l 235 -231 l 110 -231 l 110 576 q 104 602 110 592 q 89 617 98 612 q 67 626 79 623 q 41 630 54 629 l 41 660 z "},"¶":{"ha":599,"x_min":27,"x_max":551,"o":"m 283 982 q 382 956 336 982 l 382 975 l 551 975 l 551 -1 l 486 -1 l 486 929 l 447 929 l 447 -1 l 382 -1 l 382 340 q 283 315 336 315 q 172 346 220 315 q 92 427 124 378 q 43 534 60 475 q 27 648 27 593 q 43 762 27 703 q 92 870 60 821 q 173 950 125 919 q 283 982 220 982 z "},"·":{"ha":263,"x_min":34,"x_max":229,"o":"m 34 418 q 42 456 34 438 q 63 487 50 474 q 94 508 76 500 q 132 515 111 515 q 170 508 152 515 q 201 487 188 500 q 222 456 214 474 q 229 418 229 438 q 222 380 229 397 q 201 349 214 362 q 170 328 188 336 q 132 320 152 320 q 94 328 111 320 q 63 349 76 336 q 42 380 50 362 q 34 418 34 397 z "},"∙":{"ha":263,"x_min":34,"x_max":229,"o":"m 34 418 q 42 456 34 438 q 63 487 50 474 q 94 508 76 500 q 132 515 111 515 q 170 508 152 515 q 201 487 188 500 q 222 456 214 474 q 229 418 229 438 q 222 380 229 397 q 201 349 214 362 q 170 328 188 336 q 132 320 152 320 q 94 328 111 320 q 63 349 76 336 q 42 380 50 362 q 34 418 34 397 z "},"¸":{"ha":294,"x_min":34,"x_max":260,"o":"m 59 24 l 98 22 l 77 -39 q 95 -37 85 -38 q 114 -35 103 -36 q 138 -35 125 -35 q 180 -37 158 -35 q 219 -48 201 -40 q 249 -71 237 -56 q 260 -109 260 -85 q 248 -149 260 -134 q 216 -174 235 -165 q 171 -186 196 -182 q 123 -189 146 -189 q 83 -187 102 -189 q 52 -184 64 -185 l 56 -154 q 80 -156 66 -155 q 110 -157 94 -157 q 140 -156 125 -157 q 166 -149 155 -154 q 185 -135 178 -144 q 193 -111 193 -125 q 186 -86 193 -96 q 170 -71 180 -77 q 147 -63 160 -65 q 119 -60 134 -60 q 71 -65 95 -60 q 34 -75 47 -70 l 59 24 z "},"¹":{"ha":287,"x_min":20,"x_max":253,"o":"m 20 1170 l 205 1280 l 205 701 q 218 672 205 682 q 253 663 231 663 l 253 643 q 200 648 225 645 q 146 650 176 650 q 108 649 129 650 q 63 644 87 648 l 63 664 q 100 673 86 666 q 115 701 115 680 l 115 1192 l 20 1137 l 20 1170 z "},"º":{"ha":499,"x_min":34,"x_max":466,"o":"m 34 962 q 49 1095 34 1035 q 92 1198 64 1155 q 160 1266 120 1242 q 252 1290 201 1290 q 414 1208 362 1290 q 466 962 466 1126 q 451 829 466 890 q 407 726 435 769 q 340 659 379 683 q 252 635 300 635 q 159 658 199 635 q 90 723 118 680 q 48 826 62 765 q 34 962 34 886 m 127 962 q 157 736 127 809 q 252 664 186 664 q 344 736 315 664 q 372 962 372 808 q 345 1189 372 1116 q 252 1262 317 1262 q 158 1188 188 1262 q 127 962 127 1114 z "},"»":{"ha":854,"x_min":34,"x_max":821,"o":"m 411 532 l 821 321 l 821 206 l 411 12 l 411 147 l 728 267 l 411 396 l 411 532 m 320 279 l 35 405 l 35 541 l 413 333 l 413 218 l 34 9 l 34 144 l 320 279 z "},"¼":{"ha":936,"x_min":34,"x_max":916,"o":"m 548 1021 l 687 1021 l 299 -37 l 161 -37 l 548 1021 m 834 673 l 834 212 l 916 212 l 916 201 l 834 201 l 834 60 q 848 29 834 39 q 885 20 862 20 l 885 -2 q 829 3 855 0 q 771 6 802 6 q 731 4 752 6 q 684 -1 710 3 l 684 20 q 721 30 709 23 q 734 59 734 37 l 734 201 l 469 201 l 834 673 m 34 913 l 219 1023 l 218 446 q 232 416 218 425 q 267 408 245 408 l 267 387 q 214 391 239 389 q 160 394 189 394 q 122 393 142 394 q 77 387 101 391 l 77 408 q 114 417 100 410 q 128 444 128 424 l 129 936 l 34 881 l 34 913 m 734 231 l 734 494 l 530 231 l 734 231 z "},"½":{"ha":1110,"x_min":34,"x_max":1006,"o":"m 172 -37 l 559 1021 l 698 1021 l 310 -37 l 172 -37 m 867 469 q 862 534 867 507 q 844 578 857 561 q 811 603 831 595 q 761 611 791 611 q 713 596 735 611 q 677 559 691 581 q 657 510 663 536 q 661 462 652 484 q 659 427 669 438 q 633 415 648 415 q 616 418 625 415 q 601 426 608 420 q 589 439 594 431 q 584 458 585 448 q 595 531 581 497 q 634 590 608 565 q 696 630 660 616 q 776 645 733 645 q 854 633 819 645 q 913 598 888 621 q 950 543 937 575 q 963 469 963 510 q 946 397 963 435 q 903 321 930 359 q 841 245 876 283 q 770 174 806 208 q 700 110 734 140 q 640 58 666 80 l 945 57 q 963 60 956 57 q 973 68 970 63 q 977 81 977 73 q 977 96 978 88 l 1006 96 q 1005 73 1006 86 q 1003 46 1004 60 q 1002 21 1002 33 q 1006 -1 1003 8 l 571 -1 l 571 52 q 628 103 596 74 q 692 168 659 133 q 756 240 725 202 q 813 318 788 279 q 852 396 838 357 q 867 469 867 434 m 219 1023 l 218 446 q 232 416 218 425 q 267 408 245 408 l 267 387 q 214 391 239 389 q 160 394 189 394 q 122 393 142 394 q 77 387 101 391 l 77 408 q 114 417 100 410 q 128 444 128 424 l 128 936 l 34 881 l 34 913 l 219 1023 z "},"¾":{"ha":1069,"x_min":33,"x_max":1056,"o":"m 301 -37 l 688 1021 l 827 1021 l 439 -37 l 301 -37 m 609 201 l 975 673 l 975 231 l 1056 231 l 1056 201 l 975 201 l 975 60 q 988 29 975 39 q 1025 20 1002 20 l 1025 -2 q 969 3 996 0 q 911 6 943 6 q 871 4 892 6 q 825 -1 850 3 l 825 20 q 862 30 849 23 q 875 59 875 37 l 875 201 l 609 201 m 58 417 q 36 449 39 433 q 39 477 33 465 q 57 496 45 489 q 82 504 70 504 q 100 498 92 504 q 111 479 108 493 q 140 429 116 448 q 206 409 164 409 q 346 585 346 409 q 334 640 346 614 q 303 687 322 667 q 260 719 284 707 q 211 730 236 730 q 174 723 191 730 l 168 732 q 215 768 191 747 q 257 812 238 788 q 287 864 275 837 q 299 922 299 892 q 280 984 299 960 q 229 1008 260 1008 q 177 996 200 1008 q 139 965 155 984 q 117 923 124 946 q 115 876 111 899 q 109 845 118 854 q 87 836 100 836 q 69 839 78 836 q 53 850 60 843 q 42 866 46 857 q 39 887 38 876 q 60 954 43 926 q 103 1000 77 982 q 161 1027 128 1019 q 229 1036 193 1036 q 295 1028 265 1036 q 348 1004 326 1019 q 382 968 370 989 q 395 924 395 948 q 381 865 395 891 q 347 819 368 839 q 300 783 326 798 q 247 755 273 767 q 316 743 281 755 q 379 708 351 730 q 424 654 406 685 q 441 585 441 623 q 384 430 441 479 q 206 380 328 380 q 166 383 188 380 q 124 390 144 385 q 86 401 104 395 q 58 417 68 408 m 875 231 l 875 494 l 671 231 l 875 231 z "},"¿":{"ha":538,"x_min":34,"x_max":507,"o":"m 34 197 q 50 269 34 235 q 91 332 66 302 q 146 387 116 361 q 203 435 176 413 q 259 489 237 463 q 295 544 281 515 q 314 608 309 573 q 320 688 320 643 l 365 688 q 362 627 365 658 q 351 566 359 596 q 331 509 344 536 q 298 457 318 481 q 252 398 275 429 q 211 335 229 368 q 181 267 193 302 q 170 195 170 232 q 179 127 170 157 q 207 75 188 96 q 257 41 227 53 q 328 29 287 29 q 388 41 361 29 q 436 73 416 52 q 466 120 456 93 q 475 178 477 147 l 505 179 q 491 93 507 130 q 446 33 475 57 q 377 -2 417 9 q 291 -14 337 -14 q 190 -2 237 -14 q 108 35 142 9 q 54 100 73 60 q 34 197 34 140 m 239 850 q 247 888 239 870 q 268 919 254 906 q 298 940 281 932 q 336 947 316 947 q 375 940 357 947 q 406 919 393 932 q 427 888 419 906 q 434 850 434 870 q 427 812 434 829 q 406 781 419 794 q 375 760 393 768 q 336 752 357 752 q 298 760 316 752 q 268 781 281 768 q 247 812 254 794 q 239 850 239 829 z "},"À":{"ha":895,"x_min":7,"x_max":895,"o":"m 7 1 l 14 35 q 20 35 16 35 q 31 34 25 34 q 50 38 40 34 q 64 56 59 42 l 383 970 l 521 970 q 676 532 608 725 q 715 423 696 477 q 751 320 734 369 q 783 229 768 271 q 809 156 798 187 q 826 107 820 125 q 833 89 833 90 q 837 78 833 87 q 846 59 840 69 q 863 41 853 50 q 888 33 873 33 l 895 3 q 832 9 858 4 q 781 14 806 14 q 751 11 766 14 q 718 1 736 9 l 615 294 q 539 322 578 317 q 457 328 499 328 l 406 328 q 359 329 385 328 q 307 334 333 330 q 256 346 280 338 q 216 368 233 354 l 88 1 q 74 6 81 5 q 60 7 66 7 q 33 4 45 7 q 8 1 20 1 l 7 1 m 230 408 q 293 372 256 382 q 376 361 331 361 l 386 361 q 413 362 399 362 q 440 362 427 362 q 522 358 482 362 q 599 341 562 355 l 402 901 l 230 408 m 338 1211 l 488 1016 l 376 1016 l 277 1211 l 338 1211 z "},"Á":{"ha":895,"x_min":7,"x_max":895,"o":"m 7 1 l 14 35 q 20 35 16 35 q 31 34 25 34 q 50 38 40 34 q 64 56 59 42 l 383 970 l 521 970 q 676 532 608 725 q 715 423 696 477 q 751 320 734 369 q 783 229 768 271 q 809 156 798 187 q 826 107 820 125 q 833 89 833 90 q 837 78 833 87 q 846 59 840 69 q 863 41 853 50 q 888 33 873 33 l 895 3 q 832 9 858 4 q 781 14 806 14 q 751 11 766 14 q 718 1 736 9 l 615 294 q 539 322 578 317 q 457 328 499 328 l 406 328 q 359 329 385 328 q 307 334 333 330 q 256 346 280 338 q 216 368 233 354 l 88 1 q 74 6 81 5 q 60 7 66 7 q 33 4 45 7 q 8 1 20 1 l 7 1 m 230 408 q 293 372 256 382 q 376 361 331 361 l 386 361 q 413 362 399 362 q 440 362 427 362 q 522 358 482 362 q 599 341 562 355 l 402 901 l 230 408 m 518 1213 l 579 1213 l 480 1017 l 369 1017 l 518 1213 z "},"Â":{"ha":895,"x_min":7,"x_max":895,"o":"m 7 1 l 14 35 q 20 35 16 35 q 31 34 25 34 q 50 38 40 34 q 64 56 59 42 l 339 846 q 347 889 349 871 q 335 919 345 907 q 311 937 326 931 q 283 943 297 943 l 290 972 l 304 972 q 392 967 352 972 q 466 962 432 962 q 495 964 481 962 q 521 970 509 966 q 676 532 608 725 q 715 423 696 477 q 751 320 734 369 q 783 229 768 271 q 809 156 798 187 q 826 107 820 125 q 833 89 833 90 q 837 78 833 87 q 846 59 840 69 q 863 41 853 50 q 888 33 873 33 l 895 3 q 832 9 858 4 q 781 14 806 14 q 751 11 766 14 q 718 1 736 9 l 615 294 q 539 322 578 317 q 457 328 499 328 l 406 328 q 359 329 385 328 q 307 334 333 330 q 257 346 281 338 q 216 367 233 353 l 89 1 q 74 6 81 5 q 60 7 67 7 q 33 4 45 7 q 8 1 20 1 l 7 1 m 231 408 q 293 372 256 382 q 376 361 331 361 l 386 361 q 413 362 399 362 q 440 362 427 362 q 522 358 482 362 q 599 341 562 355 l 402 901 l 231 408 m 256 1021 l 405 1217 l 467 1217 l 616 1021 l 505 1021 l 436 1156 l 368 1021 l 256 1021 z "},"Ã":{"ha":902,"x_min":7,"x_max":895,"o":"m 14 35 q 20 35 16 35 q 31 34 25 34 q 50 38 40 34 q 64 56 59 42 l 383 970 l 521 970 q 676 532 608 725 q 715 423 696 477 q 751 320 734 369 q 783 229 768 271 q 809 156 798 187 q 826 107 820 125 q 833 89 833 90 q 837 78 833 87 q 846 59 840 69 q 863 41 853 50 q 888 33 873 33 l 895 3 q 832 9 858 4 q 781 14 806 14 q 751 11 766 14 q 718 1 736 9 l 615 294 q 539 322 578 317 q 457 328 499 328 l 406 328 q 359 329 385 328 q 307 334 333 330 q 256 346 280 338 q 216 368 233 354 l 88 1 q 74 6 81 5 q 60 7 66 7 q 33 4 45 7 q 8 1 20 1 l 7 1 l 14 35 m 230 408 q 293 372 256 382 q 376 361 331 361 l 386 361 q 413 362 399 362 q 440 362 427 362 q 522 358 482 362 q 599 341 562 355 l 402 901 l 230 408 m 235 1028 q 257 1127 235 1090 q 330 1164 279 1164 q 369 1158 352 1164 q 399 1143 386 1152 q 424 1124 412 1135 q 446 1105 435 1114 q 468 1091 456 1097 q 494 1085 479 1085 q 517 1093 507 1085 q 534 1113 527 1101 q 545 1138 541 1125 q 549 1162 549 1152 l 637 1161 q 627 1107 637 1133 q 598 1061 616 1081 q 555 1029 580 1041 q 500 1019 530 1018 q 463 1027 478 1019 q 435 1046 447 1034 q 415 1070 424 1057 q 399 1095 407 1084 q 382 1114 391 1106 q 361 1121 373 1121 q 337 1113 346 1121 q 323 1092 328 1105 q 320 1062 319 1079 q 326 1029 321 1046 l 235 1028 z "},"Ä":{"ha":895,"x_min":7,"x_max":895,"o":"m 7 1 l 14 35 q 20 35 16 35 q 31 34 25 34 q 50 38 40 34 q 64 56 59 42 l 383 970 l 521 970 q 676 532 608 725 q 715 423 696 477 q 751 320 734 369 q 783 229 768 271 q 809 156 798 187 q 826 107 820 125 q 833 89 833 90 q 837 78 833 87 q 846 59 840 69 q 863 41 853 50 q 888 33 873 33 l 895 3 q 832 9 858 4 q 781 14 806 14 q 751 11 766 14 q 718 1 736 9 l 615 294 q 539 322 578 317 q 457 328 499 328 l 406 328 q 359 329 385 328 q 307 334 333 330 q 256 346 280 338 q 216 368 233 354 l 88 1 q 74 6 81 5 q 60 7 66 7 q 33 4 45 7 q 8 1 20 1 l 7 1 m 230 408 q 293 372 256 382 q 376 361 331 361 l 386 361 q 413 362 399 362 q 440 362 427 362 q 522 358 482 362 q 599 341 562 355 l 402 901 l 230 408 m 315 1194 q 349 1187 333 1194 q 377 1168 366 1181 q 396 1140 389 1156 q 404 1106 404 1124 q 396 1072 404 1088 q 377 1043 389 1055 q 349 1024 366 1031 q 315 1017 333 1017 q 280 1024 296 1017 q 252 1043 264 1031 q 233 1072 240 1055 q 226 1106 226 1088 q 233 1140 226 1124 q 252 1168 240 1156 q 280 1187 264 1181 q 315 1194 296 1194 m 435 1106 q 442 1140 435 1124 q 461 1168 449 1156 q 489 1187 473 1181 q 524 1194 505 1194 q 558 1187 542 1194 q 586 1168 574 1181 q 605 1140 598 1156 q 612 1106 612 1124 q 605 1072 612 1088 q 586 1043 598 1055 q 558 1024 574 1031 q 524 1017 542 1017 q 489 1024 505 1017 q 461 1043 473 1031 q 442 1072 449 1055 q 435 1106 435 1088 z "},"Å":{"ha":1051,"x_min":27,"x_max":916,"o":"m 34 35 q 41 35 36 35 q 52 34 45 34 q 70 38 60 34 q 84 56 79 42 l 404 970 l 541 970 q 696 532 628 725 q 735 423 716 477 q 771 320 754 369 q 804 229 789 271 q 829 156 819 187 q 847 107 840 125 q 853 89 853 90 q 857 78 854 87 q 867 59 860 69 q 884 41 873 50 q 909 33 894 33 l 916 3 q 852 9 878 4 q 801 14 826 14 q 771 11 787 14 q 739 1 756 9 l 635 294 q 559 322 599 317 q 477 328 519 328 l 427 328 q 379 329 406 328 q 327 334 353 330 q 277 346 300 338 q 237 368 253 354 l 109 1 q 94 6 101 5 q 80 7 87 7 q 53 4 66 7 q 28 1 40 1 l 27 1 l 34 35 m 250 408 q 314 372 276 382 q 396 361 351 361 l 406 361 q 433 362 420 362 q 460 362 447 362 q 543 358 503 362 q 619 341 583 355 l 422 901 l 250 408 m 331 1130 q 339 1173 331 1153 q 363 1208 348 1194 q 399 1232 378 1223 q 442 1241 419 1241 q 486 1232 465 1241 q 521 1208 506 1223 q 545 1173 536 1194 q 553 1130 553 1153 q 545 1086 553 1107 q 521 1051 536 1066 q 486 1027 506 1036 q 442 1019 465 1019 q 399 1027 419 1019 q 363 1051 378 1036 q 339 1086 348 1066 q 331 1130 331 1107 m 442 1064 q 468 1069 456 1064 q 489 1083 479 1074 q 503 1104 498 1092 q 508 1130 508 1116 q 503 1155 508 1143 q 489 1176 498 1167 q 468 1191 479 1185 q 442 1196 456 1196 q 416 1191 429 1196 q 395 1176 404 1185 q 381 1155 387 1167 q 376 1130 376 1143 q 395 1083 376 1102 q 442 1064 414 1064 z "},"Æ":{"ha":1550,"x_min":7,"x_max":1509,"o":"m 7 1 l 14 35 q 20 35 16 35 q 31 34 25 34 q 50 38 40 34 q 64 56 59 42 l 339 846 q 347 889 349 871 q 335 919 345 907 q 311 937 326 931 q 283 943 297 943 l 290 972 l 304 972 q 392 967 352 972 q 466 962 432 962 q 495 964 481 962 q 521 970 509 966 q 676 532 608 725 q 715 423 696 477 q 751 320 734 369 q 783 229 768 271 q 809 156 798 187 q 826 107 820 125 q 833 89 833 90 q 837 78 833 87 q 846 60 840 69 q 863 42 852 50 q 888 33 873 34 q 938 46 921 36 q 955 85 955 56 l 955 892 q 938 931 955 921 q 887 945 921 941 l 887 975 l 1023 975 q 1092 975 1058 975 q 1159 974 1125 975 l 1483 975 q 1477 951 1478 962 q 1478 931 1476 941 q 1481 910 1479 921 q 1482 885 1482 899 l 1448 885 q 1437 921 1449 909 q 1401 934 1424 934 q 1281 933 1340 934 q 1160 933 1221 933 q 1109 921 1128 933 q 1091 880 1091 908 l 1091 557 l 1365 557 q 1404 575 1394 557 q 1417 625 1414 592 l 1447 625 q 1440 535 1440 581 q 1447 448 1440 490 l 1417 448 q 1403 499 1414 481 q 1364 517 1393 517 l 1091 517 l 1091 87 q 1096 64 1091 73 q 1110 51 1101 55 q 1132 45 1119 46 q 1160 43 1145 43 l 1428 43 q 1462 56 1450 43 q 1474 92 1475 68 l 1508 92 q 1507 67 1508 78 q 1503 45 1505 56 q 1503 25 1502 35 q 1509 1 1504 14 l 718 1 l 615 294 q 539 322 578 317 q 457 328 499 328 l 406 328 q 359 329 385 328 q 307 334 333 330 q 257 346 281 338 q 216 367 233 353 l 89 1 q 74 6 81 5 q 60 7 67 7 q 33 4 45 7 q 8 1 20 1 l 7 1 m 231 408 q 293 372 256 382 q 376 361 331 361 l 386 361 q 413 362 399 362 q 440 362 427 362 q 522 358 482 362 q 599 341 562 355 l 402 901 l 231 408 z "},"Ç":{"ha":954,"x_min":27,"x_max":932,"o":"m 473 985 q 624 965 554 985 q 747 909 694 944 q 829 829 799 875 q 859 734 859 784 q 852 708 859 720 q 835 689 846 696 q 811 677 825 682 q 784 673 798 673 q 759 677 771 673 q 736 689 746 681 q 721 709 726 697 q 717 739 716 722 q 659 892 723 839 q 472 945 595 945 q 379 927 422 945 q 303 877 337 909 q 245 801 270 844 q 203 707 220 758 q 178 600 186 656 q 170 488 170 544 q 179 375 170 431 q 209 268 189 319 q 257 172 229 216 q 323 96 286 128 q 406 45 360 64 q 506 27 452 27 q 599 36 550 27 q 692 70 648 45 q 771 138 736 95 q 821 250 806 182 q 851 308 831 290 q 890 326 871 326 q 921 308 909 326 q 922 255 932 290 q 886 174 910 211 q 829 107 861 137 q 758 55 797 77 q 677 17 719 32 q 591 -6 635 2 q 507 -14 548 -14 q 308 23 396 -14 q 157 126 219 60 q 61 284 94 192 q 27 488 27 376 q 58 694 27 602 q 148 851 90 786 q 288 950 205 916 q 473 985 371 985 m 462 24 l 500 22 l 479 -39 q 498 -37 488 -38 q 517 -35 506 -36 q 541 -35 528 -35 q 583 -37 561 -35 q 622 -48 604 -40 q 652 -71 640 -56 q 663 -109 663 -85 q 651 -149 663 -134 q 618 -174 638 -165 q 574 -186 599 -182 q 526 -189 549 -189 q 486 -187 505 -189 q 454 -184 467 -185 l 459 -154 q 483 -156 469 -155 q 513 -157 497 -157 q 543 -156 528 -157 q 569 -149 557 -154 q 588 -135 581 -144 q 595 -111 595 -125 q 589 -86 595 -96 q 573 -71 583 -77 q 550 -63 563 -65 q 522 -60 536 -60 q 474 -65 498 -60 q 437 -75 450 -70 l 462 24 z "},"È":{"ha":710,"x_min":47,"x_max":669,"o":"m 319 971 l 644 972 q 638 949 639 959 q 638 928 637 939 q 641 907 639 918 q 642 882 642 897 l 608 882 q 596 919 609 906 q 562 931 584 931 q 441 931 500 931 q 320 930 381 930 q 269 918 288 930 q 251 877 251 905 l 251 555 l 526 555 q 564 572 554 555 q 578 623 574 589 l 608 623 q 601 533 600 578 q 608 445 601 487 l 578 445 q 564 496 574 478 q 524 514 553 514 l 251 514 l 251 84 q 256 61 251 70 q 270 48 261 52 q 292 42 279 43 q 320 41 304 41 l 588 41 q 623 53 610 41 q 634 90 635 66 l 669 90 q 667 64 669 75 q 664 43 665 54 q 664 23 663 33 q 669 0 665 13 l 320 0 q 293 0 307 0 q 266 -1 279 -1 q 173 0 220 -1 q 79 1 126 1 l 47 1 l 47 31 q 98 44 81 34 q 115 83 115 54 l 115 890 q 98 928 115 918 q 47 942 81 939 l 47 972 l 183 972 q 251 972 218 972 q 319 971 285 972 m 277 1211 l 427 1015 l 315 1015 l 216 1211 l 277 1211 z "},"É":{"ha":710,"x_min":47,"x_max":669,"o":"m 319 971 l 644 972 q 638 949 639 959 q 638 928 637 939 q 641 907 639 918 q 642 882 642 897 l 608 882 q 596 919 609 906 q 562 931 584 931 q 441 931 500 931 q 320 930 381 930 q 269 918 288 930 q 251 877 251 905 l 251 555 l 526 555 q 564 572 554 555 q 578 623 574 589 l 608 623 q 601 533 600 578 q 608 445 601 487 l 578 445 q 564 496 574 478 q 524 514 553 514 l 251 514 l 251 84 q 256 61 251 70 q 270 48 261 52 q 292 42 279 43 q 320 41 304 41 l 588 41 q 623 53 610 41 q 634 90 635 66 l 669 90 q 667 64 669 75 q 664 43 665 54 q 664 23 663 33 q 669 0 665 13 l 320 0 q 293 0 307 0 q 266 -1 279 -1 q 173 0 220 -1 q 79 1 126 1 l 47 1 l 47 31 q 98 44 81 34 q 115 83 115 54 l 115 890 q 98 928 115 918 q 47 942 81 939 l 47 972 l 183 972 q 251 972 218 972 q 319 971 285 972 m 458 1210 l 519 1210 l 420 1015 l 309 1015 l 458 1210 z "},"Ê":{"ha":710,"x_min":47,"x_max":669,"o":"m 47 972 l 183 972 q 251 972 218 972 q 319 971 285 972 l 644 972 q 638 949 639 959 q 638 928 637 939 q 641 907 639 918 q 642 882 642 897 l 608 882 q 596 919 609 906 q 562 931 584 931 q 441 931 500 931 q 320 930 381 930 q 269 918 288 930 q 251 877 251 905 l 251 555 l 526 555 q 564 572 554 555 q 578 623 574 589 l 608 623 q 601 533 600 578 q 608 445 601 487 l 578 445 q 564 496 574 478 q 524 514 553 514 l 251 514 l 251 84 q 256 61 251 70 q 270 48 261 52 q 292 42 279 43 q 320 41 304 41 l 588 41 q 623 53 610 41 q 634 90 635 66 l 669 90 q 667 64 669 75 q 664 43 665 54 q 664 23 663 33 q 669 0 665 13 l 320 0 q 293 0 307 0 q 266 -1 279 -1 q 173 0 220 -1 q 79 1 126 1 l 47 1 l 47 31 q 98 44 81 34 q 115 83 115 54 l 115 890 q 98 928 115 918 q 47 942 81 939 l 47 972 m 170 1012 l 319 1207 l 380 1207 l 530 1012 l 418 1012 l 350 1147 l 281 1012 l 170 1012 z "},"Ë":{"ha":710,"x_min":47,"x_max":669,"o":"m 47 972 l 183 972 q 251 972 218 972 q 319 971 285 972 l 644 972 q 638 949 639 959 q 638 928 637 939 q 641 907 639 918 q 642 882 642 897 l 608 882 q 596 919 609 906 q 562 931 584 931 q 441 931 500 931 q 320 930 381 930 q 269 918 288 930 q 251 877 251 905 l 251 555 l 526 555 q 564 572 554 555 q 578 623 574 589 l 608 623 q 601 533 600 578 q 608 445 601 487 l 578 445 q 564 496 574 478 q 524 514 553 514 l 251 514 l 251 84 q 256 61 251 70 q 270 48 261 52 q 292 42 279 43 q 320 41 304 41 l 588 41 q 623 53 610 41 q 634 90 635 66 l 669 90 q 667 64 669 75 q 664 43 665 54 q 664 23 663 33 q 669 0 665 13 l 320 0 q 293 0 307 0 q 266 -1 279 -1 q 173 0 220 -1 q 79 1 126 1 l 47 1 l 47 31 q 98 44 81 34 q 115 83 115 54 l 115 890 q 98 928 115 918 q 47 942 81 939 l 47 972 m 177 1110 q 184 1144 177 1128 q 203 1173 191 1160 q 231 1192 215 1185 q 266 1198 248 1198 q 300 1192 284 1198 q 329 1173 317 1185 q 348 1144 340 1160 q 355 1110 355 1128 q 348 1076 355 1092 q 329 1047 340 1059 q 300 1028 317 1036 q 266 1021 284 1021 q 231 1028 248 1021 q 203 1047 215 1036 q 184 1076 191 1059 q 177 1110 177 1092 m 386 1110 q 393 1144 386 1128 q 412 1173 400 1160 q 440 1192 424 1185 q 475 1198 456 1198 q 509 1192 493 1198 q 537 1173 525 1185 q 556 1144 549 1160 q 563 1110 563 1128 q 556 1076 563 1092 q 537 1047 549 1059 q 509 1028 525 1036 q 475 1021 493 1021 q 440 1028 456 1021 q 412 1047 424 1036 q 393 1076 400 1059 q 386 1110 386 1092 z "},"Ì":{"ha":368,"x_min":37,"x_max":320,"o":"m 47 31 q 98 44 81 34 q 115 83 115 54 l 115 890 q 98 928 115 918 q 47 942 81 939 l 47 972 q 89 969 73 972 q 118 963 105 966 q 146 958 132 960 q 184 955 161 955 q 221 958 208 955 q 248 963 235 960 q 276 969 260 966 q 316 972 291 972 l 320 972 l 320 942 q 269 928 287 939 q 251 888 251 917 l 251 84 q 269 44 251 55 q 320 31 287 34 l 320 1 l 313 1 q 274 3 288 1 q 247 9 260 6 q 221 15 235 12 q 184 18 207 18 q 146 15 161 18 q 118 9 132 12 q 89 3 105 6 q 47 1 73 1 l 47 31 m 37 1215 l 98 1215 l 247 1019 l 136 1019 l 37 1215 z "},"Í":{"ha":368,"x_min":47,"x_max":326,"o":"m 47 31 q 98 44 81 34 q 115 83 115 54 l 115 890 q 98 928 115 918 q 47 942 81 939 l 47 972 q 89 969 73 972 q 118 963 105 966 q 146 958 132 960 q 184 955 161 955 q 221 958 208 955 q 248 963 235 960 q 276 969 260 966 q 316 972 291 972 l 320 972 l 320 942 q 269 928 287 939 q 251 888 251 917 l 251 84 q 269 44 251 55 q 320 31 287 34 l 320 1 l 313 1 q 274 3 288 1 q 247 9 260 6 q 221 15 235 12 q 184 18 207 18 q 146 15 161 18 q 118 9 132 12 q 89 3 105 6 q 47 1 73 1 l 47 31 m 115 1015 l 264 1211 l 326 1211 l 227 1015 l 115 1015 z "},"Î":{"ha":368,"x_min":-17,"x_max":343,"o":"m 47 31 q 98 44 81 34 q 115 83 115 54 l 115 890 q 98 928 115 918 q 47 942 81 939 l 47 972 q 89 969 73 972 q 118 963 105 966 q 146 958 132 960 q 184 955 161 955 q 221 958 208 955 q 248 963 235 960 q 276 969 260 966 q 316 972 291 972 l 320 972 l 320 942 q 269 928 287 939 q 251 888 251 917 l 251 84 q 269 44 251 55 q 320 31 287 34 l 320 1 l 313 1 q 274 3 288 1 q 247 9 260 6 q 221 15 235 12 q 184 18 207 18 q 146 15 161 18 q 118 9 132 12 q 89 3 105 6 q 47 1 73 1 l 47 31 m -17 1019 l 132 1215 l 193 1215 l 343 1019 l 231 1019 l 163 1154 l 94 1019 l -17 1019 z "},"Ï":{"ha":368,"x_min":-24,"x_max":362,"o":"m 184 955 q 221 958 208 955 q 248 963 235 960 q 276 969 260 966 q 316 972 291 972 l 320 972 l 320 942 q 269 928 287 939 q 251 888 251 917 l 251 84 q 269 44 251 55 q 320 31 287 34 l 320 1 l 313 1 q 274 3 288 1 q 247 9 260 6 q 221 15 235 12 q 184 18 207 18 q 146 15 161 18 q 118 9 132 12 q 89 3 105 6 q 47 1 73 1 l 47 31 q 98 44 81 34 q 115 83 115 54 l 115 890 q 98 928 115 918 q 47 942 81 939 l 47 972 q 89 969 73 972 q 118 963 105 966 q 146 958 132 960 q 184 955 161 955 m -24 1109 q -17 1144 -24 1128 q 2 1172 -9 1160 q 31 1191 14 1184 q 65 1198 47 1198 q 100 1191 83 1198 q 128 1172 116 1184 q 147 1144 140 1160 q 154 1109 154 1128 q 147 1075 154 1091 q 128 1047 140 1059 q 100 1028 116 1035 q 65 1021 83 1021 q 31 1028 47 1021 q 2 1047 14 1035 q -17 1075 -9 1059 q -24 1109 -24 1091 m 274 1198 q 308 1191 292 1198 q 336 1172 324 1184 q 355 1144 349 1160 q 362 1109 362 1128 q 355 1075 362 1091 q 336 1047 349 1059 q 308 1028 324 1035 q 274 1021 292 1021 q 239 1028 256 1021 q 211 1047 223 1035 q 192 1075 199 1059 q 185 1109 185 1091 q 192 1144 185 1128 q 211 1172 199 1160 q 239 1191 223 1184 q 274 1198 256 1198 z "},"Ð":{"ha":1014,"x_min":64,"x_max":987,"o":"m 161 478 l 161 890 q 143 928 161 918 q 93 942 126 939 l 93 972 l 229 972 q 296 972 263 972 q 363 971 330 972 l 505 972 q 707 945 617 972 q 858 859 796 918 q 954 708 920 800 q 987 486 987 616 q 956 259 987 352 q 865 109 925 167 q 714 26 804 52 q 505 0 624 0 l 366 0 q 338 0 352 0 q 311 -1 325 -1 q 218 0 265 -1 q 124 1 172 1 l 93 1 l 93 31 q 143 44 126 34 q 161 83 161 54 l 161 373 l 64 373 l 64 478 l 161 478 m 564 478 l 564 373 l 296 373 l 296 84 q 301 61 296 70 q 316 48 307 52 q 337 42 325 43 q 366 41 350 41 l 497 41 q 663 73 597 41 q 770 162 730 104 q 827 303 810 220 q 844 486 844 385 q 835 598 844 543 q 809 703 827 654 q 764 794 791 753 q 698 866 736 836 q 610 913 660 897 q 498 930 560 930 l 366 930 q 315 918 333 930 q 296 877 296 905 l 296 478 l 564 478 z "},"Ñ":{"ha":998,"x_min":54,"x_max":944,"o":"m 123 84 l 123 893 q 119 916 123 907 q 106 930 115 925 q 85 937 98 935 q 56 941 73 939 l 56 970 q 96 968 81 970 q 121 963 110 966 q 144 957 132 960 q 179 954 157 954 q 211 957 197 954 q 235 963 224 960 q 257 969 246 966 q 280 972 268 972 l 284 972 l 835 52 l 836 888 q 818 927 836 917 q 766 941 800 938 l 766 971 q 810 966 788 968 q 856 964 833 964 q 900 966 878 964 q 944 971 922 968 l 944 941 q 893 928 911 938 q 876 889 876 918 l 876 0 l 706 0 l 163 910 l 164 83 q 181 44 164 54 q 232 31 199 34 l 232 1 q 188 6 210 4 q 144 7 166 7 q 98 6 121 7 q 54 1 76 4 l 54 31 q 105 45 87 34 q 123 84 123 56 m 413 1152 q 468 1139 446 1152 q 507 1112 490 1127 q 539 1085 524 1097 q 576 1073 555 1073 q 600 1081 589 1073 q 617 1101 610 1089 q 628 1126 624 1113 q 632 1149 632 1139 l 720 1149 q 710 1096 720 1121 q 682 1050 700 1070 q 640 1019 665 1031 q 587 1007 615 1007 l 583 1007 q 546 1016 562 1008 q 519 1035 530 1023 q 499 1059 507 1046 q 482 1083 490 1072 q 465 1102 474 1095 q 445 1109 456 1109 q 420 1101 429 1109 q 406 1080 410 1093 q 403 1051 402 1067 q 408 1018 404 1034 l 319 1017 q 340 1115 319 1078 q 413 1152 362 1152 z "},"Ò":{"ha":987,"x_min":27,"x_max":960,"o":"m 27 488 q 58 690 27 599 q 149 848 90 782 q 295 949 209 913 q 492 985 382 985 q 690 949 603 985 q 837 848 777 913 q 928 690 897 782 q 960 488 960 599 q 928 284 960 376 q 836 126 896 192 q 689 23 776 60 q 492 -14 602 -14 q 295 23 382 -14 q 150 126 209 60 q 59 284 90 192 q 27 488 27 376 m 492 27 q 591 45 547 27 q 672 96 636 64 q 736 172 709 128 q 781 268 763 216 q 808 375 799 319 q 817 488 817 431 q 808 601 817 545 q 781 707 799 656 q 736 802 763 758 q 672 877 709 845 q 591 927 636 909 q 492 945 546 945 q 394 927 439 945 q 313 877 349 909 q 250 801 277 844 q 205 707 223 758 q 178 600 187 656 q 170 488 170 544 q 178 375 170 431 q 205 268 187 319 q 250 172 223 216 q 313 96 277 128 q 394 45 349 64 q 492 27 439 27 m 319 1215 l 380 1215 l 530 1020 l 418 1020 l 319 1215 z "},"Ó":{"ha":987,"x_min":27,"x_max":960,"o":"m 27 488 q 58 690 27 599 q 149 848 90 782 q 295 949 209 913 q 492 985 382 985 q 690 949 603 985 q 837 848 777 913 q 928 690 897 782 q 960 488 960 599 q 928 284 960 376 q 836 126 896 192 q 689 23 776 60 q 492 -14 602 -14 q 295 23 382 -14 q 150 126 209 60 q 59 284 90 192 q 27 488 27 376 m 492 27 q 591 45 547 27 q 672 96 636 64 q 736 172 709 128 q 781 268 763 216 q 808 375 799 319 q 817 488 817 431 q 808 601 817 545 q 781 707 799 656 q 736 802 763 758 q 672 877 709 845 q 591 927 636 909 q 492 945 546 945 q 394 927 439 945 q 313 877 349 909 q 250 801 277 844 q 205 707 223 758 q 178 600 187 656 q 170 488 170 544 q 178 375 170 431 q 205 268 187 319 q 250 172 223 216 q 313 96 277 128 q 394 45 349 64 q 492 27 439 27 m 564 1213 l 625 1213 l 526 1018 l 414 1018 l 564 1213 z "},"Ô":{"ha":987,"x_min":27,"x_max":960,"o":"m 27 488 q 58 690 27 599 q 149 848 90 782 q 295 949 209 913 q 492 985 382 985 q 690 949 603 985 q 837 848 777 913 q 928 690 897 782 q 960 488 960 599 q 928 284 960 376 q 836 126 896 192 q 689 23 776 60 q 492 -14 602 -14 q 295 23 382 -14 q 150 126 209 60 q 59 284 90 192 q 27 488 27 376 m 492 27 q 591 45 547 27 q 672 96 636 64 q 736 172 709 128 q 781 268 763 216 q 808 375 799 319 q 817 488 817 431 q 808 601 817 545 q 781 707 799 656 q 736 802 763 758 q 672 877 709 845 q 591 927 636 909 q 492 945 546 945 q 394 927 439 945 q 313 877 349 909 q 250 801 277 844 q 205 707 223 758 q 178 600 187 656 q 170 488 170 544 q 178 375 170 431 q 205 268 187 319 q 250 172 223 216 q 313 96 277 128 q 394 45 349 64 q 492 27 439 27 m 334 1019 l 483 1215 l 544 1215 l 694 1019 l 583 1019 l 514 1154 l 446 1019 l 334 1019 z "},"Õ":{"ha":987,"x_min":27,"x_max":960,"o":"m 27 488 q 58 690 27 599 q 149 848 90 782 q 295 949 209 913 q 492 985 382 985 q 690 949 603 985 q 837 848 777 913 q 928 690 897 782 q 960 488 960 599 q 928 284 960 376 q 836 126 896 192 q 689 23 776 60 q 492 -14 602 -14 q 295 23 382 -14 q 150 126 209 60 q 59 284 90 192 q 27 488 27 376 m 170 488 q 178 375 170 431 q 205 268 187 319 q 250 172 223 216 q 313 96 277 128 q 394 45 349 64 q 492 27 439 27 q 591 45 547 27 q 672 96 636 64 q 736 172 709 128 q 781 268 763 216 q 808 375 799 319 q 817 488 817 431 q 808 601 817 545 q 781 707 799 656 q 736 802 763 758 q 672 877 709 845 q 591 927 636 909 q 492 945 546 945 q 394 927 439 945 q 313 877 349 909 q 250 801 277 844 q 205 707 223 758 q 178 600 187 656 q 170 488 170 544 m 313 1018 q 335 1117 313 1080 q 407 1154 357 1154 q 446 1148 429 1154 q 476 1133 463 1142 q 501 1114 490 1124 q 523 1095 512 1104 q 545 1081 534 1086 q 571 1075 557 1075 q 594 1083 584 1075 q 611 1103 604 1091 q 622 1128 618 1115 q 626 1152 626 1141 l 714 1151 q 704 1097 714 1122 q 675 1051 694 1071 q 632 1019 657 1031 q 577 1008 607 1008 q 540 1017 555 1009 q 513 1036 524 1024 q 493 1060 502 1047 q 476 1085 484 1074 q 459 1103 468 1096 q 439 1111 450 1111 q 414 1103 423 1111 q 401 1082 405 1095 q 397 1052 397 1069 q 403 1019 398 1036 l 313 1018 z "},"Ö":{"ha":987,"x_min":27,"x_max":960,"o":"m 27 488 q 58 690 27 599 q 149 848 90 782 q 295 949 209 913 q 492 985 382 985 q 690 949 603 985 q 837 848 777 913 q 928 690 897 782 q 960 488 960 599 q 928 284 960 376 q 836 126 896 192 q 689 23 776 60 q 492 -14 602 -14 q 295 23 382 -14 q 150 126 209 60 q 59 284 90 192 q 27 488 27 376 m 492 27 q 591 45 547 27 q 672 96 636 64 q 736 172 709 128 q 781 268 763 216 q 808 375 799 319 q 817 488 817 431 q 808 601 817 545 q 781 707 799 656 q 736 802 763 758 q 672 877 709 845 q 591 927 636 909 q 492 945 546 945 q 394 927 439 945 q 313 877 349 909 q 250 801 277 844 q 205 707 223 758 q 178 600 187 656 q 170 488 170 544 q 178 375 170 431 q 205 268 187 319 q 250 172 223 216 q 313 96 277 128 q 394 45 349 64 q 492 27 439 27 m 376 1196 q 410 1190 394 1196 q 438 1171 427 1183 q 457 1142 450 1158 q 465 1108 465 1126 q 457 1074 465 1090 q 438 1045 450 1057 q 410 1026 427 1034 q 376 1019 394 1019 q 341 1026 357 1019 q 313 1045 325 1034 q 294 1074 301 1057 q 287 1108 287 1090 q 294 1142 287 1126 q 313 1171 301 1158 q 341 1190 325 1183 q 376 1196 357 1196 m 585 1196 q 619 1190 603 1196 q 647 1171 635 1183 q 666 1142 659 1158 q 673 1108 673 1126 q 666 1074 673 1090 q 647 1045 659 1057 q 619 1026 635 1034 q 585 1019 603 1019 q 550 1026 566 1019 q 522 1045 534 1034 q 503 1074 510 1057 q 496 1108 496 1090 q 503 1142 496 1126 q 522 1171 510 1158 q 550 1190 534 1183 q 585 1196 566 1196 z "},"×":{"ha":452,"x_min":34,"x_max":418,"o":"m 34 218 l 152 336 l 40 449 l 95 504 l 207 392 l 326 511 l 418 420 l 298 300 l 398 201 l 342 146 l 243 245 l 125 127 l 34 218 z "},"Ø":{"ha":987,"x_min":27,"x_max":960,"o":"m 398 -6 q 370 -78 382 -46 q 350 -131 358 -109 l 214 -131 q 243 -54 228 -94 q 277 32 259 -13 q 170 105 217 60 q 92 208 123 150 q 44 337 60 267 q 27 488 27 408 q 58 690 27 599 q 149 848 90 782 q 295 949 209 913 q 492 985 382 985 q 642 966 573 985 q 671 1038 658 1003 q 699 1105 685 1072 l 834 1105 q 829 1092 834 1105 q 814 1053 824 1078 q 790 992 804 1028 q 759 913 777 957 q 908 741 857 850 q 960 488 960 631 q 928 284 960 376 q 836 126 896 192 q 689 23 776 60 q 492 -14 602 -14 q 444 -12 467 -14 q 398 -6 420 -9 m 304 104 q 381 302 341 199 q 463 511 422 406 q 544 718 504 616 q 621 913 585 821 q 561 937 593 928 q 492 945 529 945 q 394 927 439 945 q 313 877 349 909 q 250 801 277 844 q 205 707 223 758 q 178 600 187 656 q 170 488 170 544 q 178 378 170 433 q 203 274 186 323 q 245 180 220 224 q 304 104 271 136 m 492 27 q 591 45 547 27 q 672 96 636 64 q 736 172 709 128 q 781 268 763 216 q 808 375 799 319 q 817 488 817 431 q 811 579 817 534 q 793 667 805 624 q 764 748 782 709 q 723 821 747 787 q 674 695 700 762 q 620 559 648 629 q 565 420 593 490 q 511 283 538 350 q 460 154 485 216 q 416 38 436 92 q 452 30 433 33 q 492 27 471 27 z "},"Ù":{"ha":994,"x_min":47,"x_max":947,"o":"m 47 970 q 90 968 73 970 q 120 963 106 966 q 149 957 134 960 q 187 954 164 954 q 224 957 210 954 q 249 963 237 960 q 274 968 260 966 q 313 970 288 970 l 320 970 l 320 941 q 269 925 287 937 q 251 884 251 913 l 251 385 q 260 294 251 339 q 287 210 269 250 q 330 135 304 170 q 387 76 355 101 q 456 37 418 52 q 536 23 494 23 q 650 50 595 23 q 746 124 704 77 q 813 235 788 171 q 838 375 838 300 l 838 888 q 820 928 838 918 q 769 942 802 939 l 769 972 q 813 967 791 968 q 859 965 836 965 q 903 967 881 965 q 947 972 925 968 l 947 942 q 896 929 913 939 q 879 890 879 919 l 879 375 q 851 216 879 288 q 774 92 823 144 q 656 11 724 40 q 508 -18 588 -18 q 353 13 425 -18 q 228 97 281 44 q 145 222 176 151 q 115 375 115 294 l 115 884 q 98 925 115 913 q 47 941 81 937 l 47 970 m 413 1212 l 563 1017 l 451 1017 l 352 1212 l 413 1212 z "},"Ú":{"ha":994,"x_min":47,"x_max":947,"o":"m 47 970 q 90 968 73 970 q 120 963 106 966 q 149 957 134 960 q 187 954 164 954 q 224 957 210 954 q 249 963 237 960 q 274 968 260 966 q 313 970 288 970 l 320 970 l 320 941 q 269 925 287 937 q 251 884 251 913 l 251 385 q 260 294 251 339 q 287 210 269 250 q 330 135 304 170 q 387 76 355 101 q 456 37 418 52 q 536 23 494 23 q 650 50 595 23 q 746 124 704 77 q 813 235 788 171 q 838 375 838 300 l 838 888 q 820 928 838 918 q 769 942 802 939 l 769 972 q 813 967 791 968 q 859 965 836 965 q 903 967 881 965 q 947 972 925 968 l 947 942 q 896 929 913 939 q 879 890 879 919 l 879 375 q 851 216 879 288 q 774 92 823 144 q 656 11 724 40 q 508 -18 588 -18 q 353 13 425 -18 q 228 97 281 44 q 145 222 176 151 q 115 375 115 294 l 115 884 q 98 925 115 913 q 47 941 81 937 l 47 970 m 444 1017 l 593 1213 l 654 1213 l 555 1017 l 444 1017 z "},"Û":{"ha":994,"x_min":47,"x_max":947,"o":"m 187 954 q 224 957 210 954 q 249 963 237 960 q 274 968 260 966 q 313 970 288 970 l 320 970 l 320 941 q 269 925 287 937 q 251 884 251 913 l 251 385 q 260 294 251 339 q 287 210 269 250 q 330 135 304 170 q 387 76 355 101 q 456 37 418 52 q 536 23 494 23 q 650 50 595 23 q 746 124 704 77 q 813 235 788 171 q 838 375 838 300 l 838 888 q 820 928 838 918 q 769 942 802 939 l 769 972 q 813 967 791 968 q 859 965 836 965 q 903 967 881 965 q 947 972 925 968 l 947 942 q 896 929 913 939 q 879 890 879 919 l 879 375 q 851 216 879 288 q 774 92 823 144 q 656 11 724 40 q 508 -18 588 -18 q 353 13 425 -18 q 228 97 281 44 q 145 222 176 151 q 115 375 115 294 l 115 884 q 98 925 115 913 q 47 941 81 937 l 47 970 q 90 968 73 970 q 120 963 106 966 q 149 957 134 960 q 187 954 164 954 m 340 1018 l 490 1213 l 551 1213 l 701 1018 l 589 1018 l 521 1153 l 452 1018 l 340 1018 z "},"Ü":{"ha":994,"x_min":47,"x_max":947,"o":"m 47 970 q 90 968 73 970 q 120 963 106 966 q 149 957 134 960 q 187 954 164 954 q 224 957 210 954 q 249 963 237 960 q 274 968 260 966 q 313 970 288 970 l 320 970 l 320 941 q 269 925 287 937 q 251 884 251 913 l 251 385 q 260 294 251 339 q 287 210 269 250 q 330 135 304 170 q 387 76 355 101 q 456 37 418 52 q 536 23 494 23 q 650 50 595 23 q 746 124 704 77 q 813 235 788 171 q 838 375 838 300 l 838 888 q 820 928 838 918 q 769 942 802 939 l 769 972 q 813 967 791 968 q 859 965 836 965 q 903 967 881 965 q 947 972 925 968 l 947 942 q 896 929 913 939 q 879 890 879 919 l 879 375 q 851 216 879 288 q 774 92 823 144 q 656 11 724 40 q 508 -18 588 -18 q 353 13 425 -18 q 228 97 281 44 q 145 222 176 151 q 115 375 115 294 l 115 884 q 98 925 115 913 q 47 941 81 937 l 47 970 m 416 1196 q 451 1189 435 1196 q 479 1170 467 1182 q 498 1142 491 1158 q 505 1107 505 1126 q 498 1073 505 1089 q 479 1045 491 1057 q 451 1026 467 1033 q 416 1019 435 1019 q 382 1026 398 1019 q 354 1045 366 1033 q 335 1073 342 1057 q 328 1107 328 1089 q 335 1142 328 1126 q 354 1170 342 1158 q 382 1189 366 1182 q 416 1196 398 1196 m 536 1107 q 544 1142 536 1126 q 563 1170 551 1158 q 591 1189 574 1182 q 625 1196 607 1196 q 660 1189 644 1196 q 688 1170 675 1182 q 707 1142 700 1158 q 713 1107 713 1126 q 707 1073 713 1089 q 688 1045 700 1057 q 660 1026 675 1033 q 625 1019 644 1019 q 591 1026 607 1019 q 563 1045 574 1033 q 544 1073 551 1057 q 536 1107 536 1089 z "},"Ý":{"ha":743,"x_min":3,"x_max":736,"o":"m 3 966 q 38 963 22 966 q 70 958 55 961 q 99 954 85 956 q 127 951 113 951 q 159 955 143 951 q 194 968 176 958 l 411 490 l 665 968 q 680 963 673 964 q 692 962 686 962 q 715 965 705 962 q 736 968 725 968 l 736 934 l 735 934 q 719 933 727 934 q 703 931 710 933 q 689 924 695 929 q 678 911 683 920 l 435 452 l 435 84 q 454 42 435 55 q 505 30 473 30 l 505 0 q 429 7 465 3 q 352 12 393 12 q 297 9 326 12 q 232 1 267 7 l 232 31 q 282 44 265 34 q 300 83 300 54 l 300 407 q 281 448 294 420 q 251 514 268 477 q 214 595 234 551 q 175 682 195 639 q 136 766 155 726 q 104 838 118 806 q 82 888 90 869 q 73 907 73 907 q 59 919 69 915 q 38 924 49 922 q 17 928 26 926 q 5 932 7 929 l 3 966 m 460 1214 l 522 1214 l 422 1019 l 311 1019 l 460 1214 z "},"Þ":{"ha":737,"x_min":41,"x_max":710,"o":"m 41 969 l 41 999 q 82 996 66 999 q 110 990 97 994 q 137 985 123 987 q 174 982 151 982 q 211 985 197 982 q 236 990 224 987 q 263 996 248 994 q 302 999 277 999 l 307 999 l 307 969 q 255 955 273 966 q 237 916 237 944 l 237 791 l 414 791 q 528 771 475 791 q 622 712 582 750 q 686 621 663 674 q 710 503 710 568 q 686 384 710 437 q 622 293 663 331 q 528 234 582 255 q 414 214 475 214 l 237 214 l 237 84 q 255 44 237 55 q 307 31 273 34 l 307 1 l 299 1 q 261 3 275 1 q 235 9 247 6 q 210 15 224 12 q 174 18 197 18 q 137 15 151 18 q 110 9 123 12 q 82 3 97 6 q 41 1 66 1 l 41 31 q 91 44 74 34 q 109 83 109 54 l 109 917 q 91 956 109 945 q 41 969 74 966 m 237 751 l 237 342 l 407 342 q 466 345 436 342 q 524 354 496 347 q 577 374 552 361 q 620 407 602 387 q 650 457 639 428 q 661 528 661 487 q 641 625 661 583 q 587 695 621 667 q 508 737 553 723 q 414 751 464 751 l 237 751 z "},"ß":{"ha":682,"x_min":47,"x_max":648,"o":"m 47 711 q 70 807 47 762 q 129 886 92 852 q 216 939 166 920 q 322 959 267 959 q 442 939 390 959 q 530 886 494 919 q 584 812 566 854 q 603 728 603 770 q 586 646 603 678 q 545 591 570 613 q 491 555 519 569 q 437 528 462 541 q 395 502 412 515 q 378 467 378 488 q 398 429 378 444 q 448 398 418 413 q 513 365 478 383 q 578 317 548 346 q 628 243 608 288 q 648 134 648 199 q 631 66 648 97 q 585 12 614 35 q 514 -24 555 -11 q 424 -37 473 -37 q 270 10 323 -39 q 216 152 216 59 l 257 151 q 270 93 257 120 q 304 47 282 66 q 357 16 327 27 q 421 4 387 4 q 458 15 441 4 q 489 43 476 25 q 511 84 503 60 q 519 133 519 107 q 505 239 519 196 q 472 310 492 281 q 428 358 452 339 q 385 392 405 376 q 351 424 365 408 q 338 463 338 440 q 348 502 338 487 q 373 530 358 517 q 406 556 388 543 q 438 592 423 570 q 463 645 453 613 q 473 724 473 676 q 461 800 473 764 q 429 861 450 835 q 381 902 408 887 q 322 918 353 918 q 262 902 290 918 q 216 860 235 887 q 187 793 197 832 q 176 707 176 755 l 176 -15 l 47 -14 l 47 711 z "},"à":{"ha":757,"x_min":34,"x_max":716,"o":"m 34 204 q 37 245 34 227 q 49 281 41 264 q 70 315 57 298 q 100 348 82 331 q 151 372 120 366 q 219 378 181 378 q 297 375 256 378 q 378 372 338 372 q 456 379 419 372 q 519 406 493 386 l 519 412 q 517 452 519 429 q 509 498 515 474 q 495 545 504 522 q 472 586 486 568 q 441 615 459 604 q 400 626 423 626 q 336 615 363 626 q 290 588 310 604 q 256 552 271 572 q 228 517 241 533 q 200 490 214 500 q 166 479 185 479 q 140 483 155 479 q 112 495 125 488 q 89 511 98 502 q 80 530 80 520 q 97 570 80 552 q 142 603 115 589 q 205 628 170 617 q 276 646 240 639 q 345 657 312 653 q 403 661 378 661 q 498 641 454 661 q 576 588 543 622 q 629 510 610 555 q 648 414 648 465 l 648 83 q 666 44 648 54 q 716 31 683 34 l 716 1 q 672 6 690 3 q 638 12 654 9 q 604 16 622 14 q 560 18 586 18 q 539 18 549 18 q 519 17 529 18 q 479 11 498 16 q 443 1 461 6 q 405 -8 425 -4 q 359 -13 385 -13 l 348 -13 q 207 1 266 -13 q 109 42 147 15 q 52 111 71 70 q 34 204 34 151 m 171 204 q 172 167 171 188 q 179 125 174 146 q 195 83 184 104 q 224 47 206 63 q 270 21 243 31 q 337 12 298 12 q 375 14 355 12 q 418 21 395 16 l 519 42 l 519 373 q 446 344 485 353 q 368 332 406 336 q 293 324 329 328 q 231 308 258 320 q 187 272 203 296 q 171 204 171 248 m 304 926 l 453 731 l 342 731 l 243 926 l 304 926 z "},"á":{"ha":757,"x_min":34,"x_max":716,"o":"m 34 204 q 37 245 34 227 q 49 281 41 264 q 70 315 57 298 q 100 348 82 331 q 151 372 120 366 q 219 378 181 378 q 297 375 256 378 q 378 372 338 372 q 456 379 419 372 q 519 406 493 386 l 519 412 q 517 452 519 429 q 509 498 515 474 q 495 545 504 522 q 472 586 486 568 q 441 615 459 604 q 400 626 423 626 q 336 615 363 626 q 290 588 310 604 q 256 552 271 572 q 228 517 241 533 q 200 490 214 500 q 166 479 185 479 q 140 483 155 479 q 112 495 125 488 q 89 511 98 502 q 80 530 80 520 q 97 570 80 552 q 142 603 115 589 q 205 628 170 617 q 276 646 240 639 q 345 657 312 653 q 403 661 378 661 q 498 641 454 661 q 576 588 543 622 q 629 510 610 555 q 648 414 648 465 l 648 83 q 666 44 648 54 q 716 31 683 34 l 716 1 q 672 6 690 3 q 638 12 654 9 q 604 16 622 14 q 560 18 586 18 q 539 18 549 18 q 519 17 529 18 q 479 11 498 16 q 443 1 461 6 q 405 -8 425 -4 q 359 -13 385 -13 l 348 -13 q 207 1 266 -13 q 109 42 147 15 q 52 111 71 70 q 34 204 34 151 m 418 21 l 519 42 l 519 373 q 446 344 485 353 q 368 332 406 336 q 293 324 329 328 q 231 308 258 320 q 187 272 203 296 q 171 204 171 248 q 172 167 171 188 q 179 125 174 146 q 195 83 184 104 q 224 47 206 63 q 270 21 243 31 q 337 12 298 12 q 375 14 355 12 q 418 21 395 16 m 473 928 l 534 928 l 435 732 l 323 732 l 473 928 z "},"â":{"ha":757,"x_min":34,"x_max":716,"o":"m 34 204 q 37 245 34 227 q 49 281 41 264 q 70 315 57 298 q 100 348 82 331 q 151 372 120 366 q 219 378 181 378 q 297 375 256 378 q 378 372 338 372 q 456 379 419 372 q 519 406 493 386 l 519 412 q 517 452 519 429 q 509 498 515 474 q 495 545 504 522 q 472 586 486 568 q 441 615 459 604 q 400 626 423 626 q 336 615 363 626 q 290 588 310 604 q 256 552 271 572 q 228 517 241 533 q 200 490 214 500 q 166 479 185 479 q 140 483 155 479 q 112 495 125 488 q 89 511 98 502 q 80 530 80 520 q 97 570 80 552 q 142 603 115 589 q 205 628 170 617 q 276 646 240 639 q 345 657 312 653 q 403 661 378 661 q 498 641 454 661 q 576 588 543 622 q 629 510 610 555 q 648 414 648 465 l 648 83 q 666 44 648 54 q 716 31 683 34 l 716 1 q 672 6 690 3 q 638 12 654 9 q 604 16 622 14 q 560 18 586 18 q 539 18 549 18 q 519 17 529 18 q 479 11 498 16 q 443 1 461 6 q 405 -8 425 -4 q 359 -13 385 -13 l 348 -13 q 207 1 266 -13 q 109 42 147 15 q 52 111 71 70 q 34 204 34 151 m 171 204 q 172 167 171 188 q 179 125 174 146 q 195 83 184 104 q 224 47 206 63 q 270 21 243 31 q 337 12 298 12 q 375 14 355 12 q 418 21 395 16 l 519 42 l 519 373 q 446 344 485 353 q 368 332 406 336 q 293 324 329 328 q 231 308 258 320 q 187 272 203 296 q 171 204 171 248 m 177 730 l 326 925 l 388 925 l 537 730 l 425 730 l 357 865 l 288 730 l 177 730 z "},"ã":{"ha":757,"x_min":34,"x_max":716,"o":"m 34 204 q 37 245 34 227 q 49 281 41 264 q 70 315 57 298 q 100 348 82 331 q 151 372 120 366 q 219 378 181 378 q 297 375 256 378 q 378 372 338 372 q 456 379 419 372 q 519 406 493 386 l 519 412 q 517 452 519 429 q 509 498 515 474 q 495 545 504 522 q 472 586 486 568 q 441 615 459 604 q 400 626 423 626 q 336 615 363 626 q 290 588 310 604 q 256 552 271 572 q 228 517 241 533 q 200 490 214 500 q 166 479 185 479 q 140 483 155 479 q 112 495 125 488 q 89 511 98 502 q 80 530 80 520 q 97 570 80 552 q 142 603 115 589 q 205 628 170 617 q 276 646 240 639 q 345 657 312 653 q 403 661 378 661 q 498 641 454 661 q 576 588 543 622 q 629 510 610 555 q 648 414 648 465 l 648 83 q 666 44 648 54 q 716 31 683 34 l 716 1 q 672 6 690 3 q 638 12 654 9 q 604 16 622 14 q 560 18 586 18 q 539 18 549 18 q 519 17 529 18 q 479 11 498 16 q 443 1 461 6 q 405 -8 425 -4 q 359 -13 385 -13 l 348 -13 q 207 1 266 -13 q 109 42 147 15 q 52 111 71 70 q 34 204 34 151 m 171 204 q 172 167 171 188 q 179 125 174 146 q 195 83 184 104 q 224 47 206 63 q 270 21 243 31 q 337 12 298 12 q 375 14 355 12 q 418 21 395 16 l 519 42 l 519 373 q 446 344 485 353 q 368 332 406 336 q 293 324 329 328 q 231 308 258 320 q 187 272 203 296 q 171 204 171 248 m 174 732 q 196 831 174 794 q 269 868 218 868 q 308 862 291 868 q 338 848 325 857 q 362 829 351 839 q 384 810 374 819 q 406 795 395 801 q 432 789 418 789 q 455 798 445 789 q 472 818 465 806 q 484 843 479 829 q 488 866 488 856 l 576 865 q 566 811 576 837 q 538 766 555 786 q 495 735 520 747 q 442 723 471 723 l 439 723 q 401 731 417 724 q 374 750 386 739 q 354 775 363 762 q 338 799 346 788 q 321 818 330 810 q 300 825 312 825 q 276 817 285 825 q 262 796 267 809 q 259 767 258 783 q 264 734 260 750 l 174 732 z "},"ä":{"ha":757,"x_min":34,"x_max":716,"o":"m 34 204 q 37 245 34 227 q 49 281 41 264 q 70 315 57 298 q 100 348 82 331 q 151 372 120 366 q 219 378 181 378 q 297 375 256 378 q 378 372 338 372 q 456 379 419 372 q 519 406 493 386 l 519 412 q 517 452 519 429 q 509 498 515 474 q 495 545 504 522 q 472 586 486 568 q 441 615 459 604 q 400 626 423 626 q 336 615 363 626 q 290 588 310 604 q 256 552 271 572 q 228 517 241 533 q 200 490 214 500 q 166 479 185 479 q 140 483 155 479 q 112 495 125 488 q 89 511 98 502 q 80 530 80 520 q 97 570 80 552 q 142 603 115 589 q 205 628 170 617 q 276 646 240 639 q 345 657 312 653 q 403 661 378 661 q 498 641 454 661 q 576 588 543 622 q 629 510 610 555 q 648 414 648 465 l 648 83 q 666 44 648 54 q 716 31 683 34 l 716 1 q 672 6 690 3 q 638 12 654 9 q 604 16 622 14 q 560 18 586 18 q 539 18 549 18 q 519 17 529 18 q 479 11 498 16 q 443 1 461 6 q 405 -8 425 -4 q 359 -13 385 -13 l 348 -13 q 207 1 266 -13 q 109 42 147 15 q 52 111 71 70 q 34 204 34 151 m 171 204 q 172 167 171 188 q 179 125 174 146 q 195 83 184 104 q 224 47 206 63 q 270 21 243 31 q 337 12 298 12 q 375 14 355 12 q 418 21 395 16 l 519 42 l 519 373 q 446 344 485 353 q 368 332 406 336 q 293 324 329 328 q 231 308 258 320 q 187 272 203 296 q 171 204 171 248 m 246 905 q 281 899 264 905 q 309 880 297 892 q 328 851 321 867 q 335 817 335 836 q 328 783 335 799 q 309 754 321 766 q 281 735 297 743 q 246 728 264 728 q 212 735 228 728 q 183 754 195 743 q 164 783 172 766 q 157 817 157 799 q 164 851 157 836 q 183 880 172 867 q 212 899 195 892 q 246 905 228 905 m 366 817 q 373 851 366 836 q 392 880 380 867 q 420 899 404 892 q 455 905 437 905 q 489 899 473 905 q 517 880 505 892 q 536 851 530 867 q 543 817 543 836 q 536 783 543 799 q 517 754 530 766 q 489 735 505 743 q 455 728 473 728 q 420 735 437 728 q 392 754 404 743 q 373 783 380 766 q 366 817 366 799 z "},"å":{"ha":757,"x_min":34,"x_max":716,"o":"m 34 204 q 37 245 34 227 q 49 281 41 264 q 70 315 57 298 q 100 348 82 331 q 151 372 120 366 q 219 378 181 378 q 297 375 256 378 q 378 372 338 372 q 456 379 419 372 q 519 406 493 386 l 519 412 q 517 452 519 429 q 509 498 515 474 q 495 545 504 522 q 472 586 486 568 q 441 615 459 604 q 400 626 423 626 q 336 615 363 626 q 290 588 310 604 q 256 552 271 572 q 228 517 241 533 q 200 490 214 500 q 166 479 185 479 q 140 483 155 479 q 112 495 125 488 q 89 511 98 502 q 80 530 80 520 q 97 570 80 552 q 142 603 115 589 q 205 628 170 617 q 276 646 240 639 q 345 657 312 653 q 403 661 378 661 q 498 641 454 661 q 576 588 543 622 q 629 510 610 555 q 648 414 648 465 l 648 83 q 666 44 648 54 q 716 31 683 34 l 716 1 q 672 6 690 3 q 638 12 654 9 q 604 16 622 14 q 560 18 586 18 q 539 18 549 18 q 519 17 529 18 q 479 11 498 16 q 443 1 461 6 q 405 -8 425 -4 q 359 -13 385 -13 l 348 -13 q 207 1 266 -13 q 109 42 147 15 q 52 111 71 70 q 34 204 34 151 m 418 21 l 519 42 l 519 373 q 446 344 485 353 q 368 332 406 336 q 293 324 329 328 q 231 308 258 320 q 187 272 203 296 q 171 204 171 248 q 172 167 171 188 q 179 125 174 146 q 195 83 184 104 q 224 47 206 63 q 270 21 243 31 q 337 12 298 12 q 375 14 355 12 q 418 21 395 16 m 274 836 q 283 879 274 859 q 307 914 292 899 q 342 938 321 929 q 385 947 362 947 q 429 938 408 947 q 464 914 449 929 q 488 879 479 899 q 496 836 496 859 q 488 792 496 812 q 464 756 479 772 q 429 733 449 741 q 385 724 408 724 q 342 733 362 724 q 307 756 321 741 q 283 792 292 772 q 274 836 274 812 m 385 770 q 411 775 399 770 q 432 789 422 780 q 446 810 441 798 q 451 836 451 822 q 446 861 451 849 q 432 882 441 873 q 411 896 422 891 q 385 901 399 901 q 360 896 372 901 q 339 882 348 891 q 325 861 330 873 q 319 836 319 849 q 325 810 319 822 q 339 789 330 798 q 360 775 348 780 q 385 770 372 770 z "},"æ":{"ha":1289,"x_min":34,"x_max":1262,"o":"m 34 204 q 37 245 34 227 q 49 281 41 264 q 70 315 57 298 q 100 348 82 331 q 151 372 120 366 q 219 378 181 378 q 297 375 256 378 q 378 372 338 372 q 456 379 419 372 q 519 406 493 386 l 519 412 q 517 452 519 429 q 509 498 515 474 q 495 545 504 522 q 472 586 486 568 q 441 615 459 604 q 400 626 423 626 q 336 615 363 626 q 290 588 310 604 q 256 552 271 572 q 228 517 241 533 q 200 490 214 500 q 166 479 185 479 q 140 483 155 479 q 112 495 125 488 q 89 511 98 502 q 80 530 80 520 q 97 570 80 552 q 142 603 115 589 q 205 628 170 617 q 276 646 240 639 q 345 657 312 653 q 403 661 378 661 q 490 645 449 661 q 563 601 530 629 q 617 534 595 572 q 646 452 639 496 q 753 608 675 558 q 948 658 831 658 q 1044 644 1001 658 q 1120 608 1086 631 q 1177 556 1153 585 q 1216 495 1200 526 q 1238 431 1232 463 q 1244 372 1245 399 l 767 372 q 766 348 766 360 q 766 323 766 336 q 815 96 766 174 q 970 19 863 19 q 1035 31 1008 19 q 1082 63 1062 42 q 1119 111 1103 83 q 1152 172 1135 139 q 1181 203 1162 192 q 1218 214 1200 214 q 1248 203 1236 214 q 1261 172 1261 193 q 1240 109 1262 142 q 1178 48 1217 76 q 1085 3 1139 21 q 972 -16 1032 -16 q 760 31 841 -16 q 648 178 680 77 l 648 83 q 666 44 648 54 q 716 31 683 34 l 716 1 q 672 6 690 3 q 638 12 654 9 q 604 16 622 14 q 560 18 586 18 q 539 18 549 18 q 519 17 529 18 q 479 11 498 16 q 443 1 461 6 q 405 -8 425 -4 q 359 -13 385 -13 l 348 -13 q 207 1 266 -13 q 109 42 147 15 q 52 111 71 70 q 34 204 34 151 m 418 21 l 519 42 l 519 373 q 446 344 485 353 q 368 332 406 336 q 293 324 329 328 q 231 308 258 320 q 187 272 203 296 q 171 204 171 248 q 172 167 171 188 q 179 125 174 146 q 195 83 184 104 q 224 47 206 63 q 270 21 243 31 q 337 12 298 12 q 375 14 355 12 q 418 21 395 16 m 1101 407 q 1098 446 1102 424 q 1086 492 1095 469 q 1064 538 1077 515 q 1033 579 1050 561 q 994 609 1015 597 q 947 621 972 620 q 822 568 865 621 q 770 407 780 516 l 1101 407 z "},"ç":{"ha":686,"x_min":27,"x_max":661,"o":"m 345 658 q 466 646 413 658 q 555 611 519 634 q 610 556 591 589 q 629 484 629 524 q 612 460 629 468 q 574 452 596 452 q 531 461 553 452 q 499 487 510 469 q 486 513 492 499 q 473 542 480 528 q 457 571 467 557 q 433 595 448 585 q 397 613 418 606 q 345 621 376 620 q 262 603 296 621 q 206 548 228 585 q 174 455 184 511 q 163 323 163 399 q 212 96 163 174 q 368 19 261 19 q 433 31 406 19 q 480 63 460 42 q 517 111 500 83 q 549 172 533 139 q 578 203 559 192 q 616 214 597 214 q 646 203 633 214 q 659 172 659 193 q 638 109 661 142 q 576 48 615 76 q 483 3 536 21 q 370 -16 430 -16 q 221 4 285 -16 q 114 64 157 23 q 49 169 71 105 q 27 323 27 233 q 49 473 27 410 q 113 577 71 536 q 213 638 154 618 q 345 658 272 658 m 255 24 l 294 22 l 273 -39 q 291 -37 281 -38 q 310 -35 299 -36 q 334 -35 321 -35 q 376 -37 354 -35 q 415 -48 397 -40 q 445 -71 433 -56 q 456 -109 456 -85 q 444 -149 456 -134 q 412 -174 431 -165 q 367 -186 392 -182 q 319 -189 342 -189 q 279 -187 298 -189 q 248 -184 260 -185 l 252 -154 q 276 -156 262 -155 q 306 -157 290 -157 q 336 -156 321 -157 q 362 -149 351 -154 q 381 -135 374 -144 q 389 -111 389 -125 q 382 -86 389 -96 q 366 -71 376 -77 q 343 -63 356 -65 q 315 -60 330 -60 q 267 -65 291 -60 q 230 -75 243 -70 l 255 24 z "},"è":{"ha":686,"x_min":27,"x_max":661,"o":"m 345 658 q 441 644 398 658 q 517 608 484 631 q 574 556 550 585 q 613 495 598 526 q 636 431 629 463 q 642 372 643 399 l 165 372 q 164 348 164 360 q 163 323 163 336 q 212 96 163 174 q 368 19 261 19 q 433 31 406 19 q 480 63 460 42 q 517 111 500 83 q 549 172 533 139 q 578 203 559 192 q 616 214 597 214 q 646 203 633 214 q 659 172 659 193 q 638 109 661 142 q 576 48 615 76 q 483 3 536 21 q 370 -16 430 -16 q 221 4 285 -16 q 114 64 157 23 q 49 169 71 105 q 27 323 27 233 q 49 473 27 410 q 113 577 71 536 q 213 638 154 618 q 345 658 272 658 m 498 407 q 496 446 500 424 q 484 492 492 469 q 461 538 475 515 q 431 579 448 561 q 392 609 413 597 q 345 621 370 620 q 220 568 262 621 q 167 407 178 516 l 498 407 m 236 929 l 386 734 l 274 734 l 175 929 l 236 929 z "},"é":{"ha":686,"x_min":27,"x_max":661,"o":"m 27 323 q 49 473 27 410 q 113 577 71 536 q 213 638 154 618 q 345 658 272 658 q 441 644 398 658 q 517 608 484 631 q 574 556 550 585 q 613 495 598 526 q 636 431 629 463 q 642 372 643 399 l 165 372 q 164 348 164 360 q 163 323 163 336 q 212 96 163 174 q 368 19 261 19 q 433 31 406 19 q 480 63 460 42 q 517 111 500 83 q 549 172 533 139 q 578 203 559 192 q 616 214 597 214 q 646 203 633 214 q 659 172 659 193 q 638 109 661 142 q 576 48 615 76 q 483 3 536 21 q 370 -16 430 -16 q 221 4 285 -16 q 114 64 157 23 q 49 169 71 105 q 27 323 27 233 m 498 407 q 496 446 500 424 q 484 492 492 469 q 461 538 475 515 q 431 579 448 561 q 392 609 413 597 q 345 621 370 620 q 220 568 262 621 q 167 407 178 516 l 498 407 m 274 728 l 423 924 l 485 924 l 385 728 l 274 728 z "},"ê":{"ha":686,"x_min":27,"x_max":661,"o":"m 27 323 q 49 473 27 410 q 113 577 71 536 q 213 638 154 618 q 345 658 272 658 q 441 644 398 658 q 517 608 484 631 q 574 556 550 585 q 613 495 598 526 q 636 431 629 463 q 642 372 643 399 l 165 372 q 164 348 164 360 q 163 323 163 336 q 212 96 163 174 q 368 19 261 19 q 433 31 406 19 q 480 63 460 42 q 517 111 500 83 q 549 172 533 139 q 578 203 559 192 q 616 214 597 214 q 646 203 633 214 q 659 172 659 193 q 638 109 661 142 q 576 48 615 76 q 483 3 536 21 q 370 -16 430 -16 q 221 4 285 -16 q 114 64 157 23 q 49 169 71 105 q 27 323 27 233 m 498 407 q 496 446 500 424 q 484 492 492 469 q 461 538 475 515 q 431 579 448 561 q 392 609 413 597 q 345 621 370 620 q 220 568 262 621 q 167 407 178 516 l 498 407 m 168 729 l 317 924 l 378 924 l 528 729 l 416 729 l 348 864 l 279 729 l 168 729 z "},"ë":{"ha":686,"x_min":27,"x_max":661,"o":"m 27 323 q 49 473 27 410 q 113 577 71 536 q 213 638 154 618 q 345 658 272 658 q 441 644 398 658 q 517 608 484 631 q 574 556 550 585 q 613 495 598 526 q 636 431 629 463 q 642 372 643 399 l 165 372 q 164 348 164 360 q 163 323 163 336 q 212 96 163 174 q 368 19 261 19 q 433 31 406 19 q 480 63 460 42 q 517 111 500 83 q 549 172 533 139 q 578 203 559 192 q 616 214 597 214 q 646 203 633 214 q 659 172 659 193 q 638 109 661 142 q 576 48 615 76 q 483 3 536 21 q 370 -16 430 -16 q 221 4 285 -16 q 114 64 157 23 q 49 169 71 105 q 27 323 27 233 m 498 407 q 496 446 500 424 q 484 492 492 469 q 461 538 475 515 q 431 579 448 561 q 392 609 413 597 q 345 621 370 620 q 220 568 262 621 q 167 407 178 516 l 498 407 m 243 911 q 277 904 261 911 q 306 885 294 897 q 325 857 317 873 q 332 823 332 841 q 325 788 332 804 q 306 760 317 772 q 277 741 294 748 q 243 734 261 734 q 208 741 224 734 q 180 760 192 748 q 161 788 168 772 q 154 823 154 804 q 161 857 154 841 q 180 885 168 873 q 208 904 192 897 q 243 911 224 911 m 452 911 q 486 904 470 911 q 514 885 502 897 q 533 857 526 873 q 540 823 540 841 q 533 788 540 804 q 514 760 526 772 q 486 741 502 748 q 452 734 470 734 q 417 741 433 734 q 389 760 401 748 q 370 788 377 772 q 363 823 363 804 q 370 857 363 841 q 389 885 377 873 q 417 904 401 897 q 452 911 433 911 z "},"ì":{"ha":347,"x_min":29,"x_max":307,"o":"m 41 31 q 91 44 74 34 q 109 83 109 54 l 109 564 q 91 603 109 593 q 41 616 74 613 l 41 646 q 82 644 66 646 q 110 638 97 641 q 137 632 123 635 q 174 629 151 629 q 211 632 197 629 q 236 638 224 635 q 263 644 248 641 q 302 646 277 646 l 307 646 l 307 616 q 255 602 273 613 q 237 563 237 591 l 237 84 q 255 44 237 55 q 307 31 273 34 l 307 1 l 299 1 q 261 3 275 1 q 235 9 247 6 q 210 15 224 12 q 174 18 197 18 q 137 15 151 18 q 110 9 123 12 q 82 3 97 6 q 41 1 66 1 l 41 31 m 91 926 l 240 730 l 129 730 l 29 926 l 91 926 z "},"í":{"ha":347,"x_min":41,"x_max":325,"o":"m 41 31 q 91 44 74 34 q 109 83 109 54 l 109 564 q 91 603 109 593 q 41 616 74 613 l 41 646 q 82 644 66 646 q 110 638 97 641 q 137 632 123 635 q 174 629 151 629 q 211 632 197 629 q 236 638 224 635 q 263 644 248 641 q 302 646 277 646 l 307 646 l 307 616 q 255 602 273 613 q 237 563 237 591 l 237 84 q 255 44 237 55 q 307 31 273 34 l 307 1 l 299 1 q 261 3 275 1 q 235 9 247 6 q 210 15 224 12 q 174 18 197 18 q 137 15 151 18 q 110 9 123 12 q 82 3 97 6 q 41 1 66 1 l 41 31 m 264 927 l 325 927 l 226 732 l 114 732 l 264 927 z "},"î":{"ha":347,"x_min":-8,"x_max":352,"o":"m 41 31 q 91 44 74 34 q 109 83 109 54 l 109 564 q 91 603 109 593 q 41 616 74 613 l 41 646 q 82 644 66 646 q 110 638 97 641 q 137 632 123 635 q 174 629 151 629 q 211 632 197 629 q 236 638 224 635 q 263 644 248 641 q 302 646 277 646 l 307 646 l 307 616 q 255 602 273 613 q 237 563 237 591 l 237 84 q 255 44 237 55 q 307 31 273 34 l 307 1 l 299 1 q 261 3 275 1 q 235 9 247 6 q 210 15 224 12 q 174 18 197 18 q 137 15 151 18 q 110 9 123 12 q 82 3 97 6 q 41 1 66 1 l 41 31 m -8 732 l 141 927 l 202 928 l 352 732 l 240 732 l 172 867 l 103 732 l -8 732 z "},"ï":{"ha":347,"x_min":-33,"x_max":353,"o":"m 174 629 q 211 632 197 629 q 236 638 224 635 q 263 644 248 641 q 302 646 277 646 l 307 646 l 307 616 q 255 602 273 613 q 237 563 237 591 l 237 84 q 255 44 237 55 q 307 31 273 34 l 307 1 l 299 1 q 261 3 275 1 q 235 9 247 6 q 210 15 224 12 q 174 18 197 18 q 137 15 151 18 q 110 9 123 12 q 82 3 97 6 q 41 1 66 1 l 41 31 q 91 44 74 34 q 109 83 109 54 l 109 564 q 91 603 109 593 q 41 616 74 613 l 41 646 q 82 644 66 646 q 110 638 97 641 q 137 632 123 635 q 174 629 151 629 m -33 814 q -25 849 -33 833 q -6 877 -18 865 q 22 896 5 889 q 56 903 38 903 q 91 896 75 903 q 119 877 107 889 q 138 849 131 865 q 145 814 145 833 q 138 780 145 796 q 119 752 131 764 q 91 733 107 740 q 56 726 75 726 q 22 733 38 726 q -6 752 5 740 q -25 780 -18 764 q -33 814 -33 796 m 265 903 q 299 896 283 903 q 328 877 315 889 q 347 849 340 865 q 353 814 353 833 q 347 780 353 796 q 328 752 340 764 q 299 733 315 740 q 265 726 283 726 q 231 733 247 726 q 202 752 214 740 q 183 780 191 764 q 176 814 176 796 q 183 849 176 833 q 202 877 191 865 q 231 896 214 889 q 265 903 247 903 z "},"ð":{"ha":681,"x_min":27,"x_max":654,"o":"m 27 321 q 48 457 27 395 q 109 565 69 519 q 208 636 149 610 q 341 661 266 661 q 379 660 361 661 q 413 654 397 659 q 446 644 429 650 q 479 626 462 637 q 430 721 461 675 q 364 806 398 766 l 272 746 l 252 778 l 329 829 q 273 854 302 844 q 214 871 245 864 l 222 908 q 296 886 260 900 q 365 852 332 873 l 439 900 l 459 868 l 405 833 q 507 721 461 781 q 585 596 553 661 q 636 462 618 531 q 654 321 654 393 q 632 189 654 251 q 570 81 610 127 q 472 9 530 35 q 341 -18 414 -18 q 203 6 262 -18 q 105 73 144 29 q 46 180 66 117 q 27 321 27 243 m 341 23 q 432 48 397 23 q 489 115 468 73 q 517 210 509 157 q 525 321 525 264 q 517 428 525 375 q 488 524 509 481 q 431 594 467 567 q 341 621 395 621 q 276 609 304 621 q 227 577 248 597 q 193 528 206 556 q 171 467 179 500 q 159 396 163 433 q 156 321 156 359 q 164 218 156 271 q 194 122 173 165 q 251 51 216 79 q 341 23 287 23 z "},"ñ":{"ha":802,"x_min":41,"x_max":761,"o":"m 237 645 l 237 579 q 329 641 277 621 q 438 661 380 661 q 548 641 500 661 q 628 588 595 622 q 676 510 660 555 q 692 414 692 465 l 692 84 q 710 44 692 55 q 761 31 728 34 l 761 1 l 753 1 q 715 3 729 1 q 690 9 701 6 q 665 15 678 12 q 628 18 651 18 q 591 15 605 18 q 564 9 577 12 q 536 3 551 6 q 495 1 521 1 l 495 31 q 546 44 528 34 q 563 83 563 54 l 563 412 q 561 452 563 429 q 552 498 558 474 q 535 545 546 522 q 509 586 525 568 q 471 615 493 604 q 419 626 449 626 q 354 610 384 626 q 301 569 324 594 q 262 512 278 543 q 237 450 245 481 l 237 84 q 239 60 237 70 q 246 44 241 50 q 261 35 251 38 q 288 31 271 32 l 288 1 l 280 1 q 243 3 256 1 q 219 9 230 6 q 195 15 208 12 q 159 18 182 18 q 124 15 136 18 q 102 9 113 12 q 79 3 92 6 q 41 1 66 1 l 41 31 q 91 44 74 34 q 109 83 109 54 l 109 559 q 91 597 109 587 q 41 611 74 608 l 41 641 q 94 633 73 636 q 126 628 114 629 q 146 625 139 626 q 159 625 153 625 q 190 628 176 625 q 215 635 204 631 q 237 645 227 640 m 294 871 q 334 866 317 871 q 364 851 351 860 q 388 832 377 842 q 410 813 399 822 q 433 799 421 804 q 458 793 444 793 q 481 801 471 793 q 499 821 492 809 q 510 846 506 833 q 513 869 513 859 l 602 869 q 591 815 602 841 q 564 770 581 790 q 521 739 546 751 q 468 727 496 727 l 465 727 q 427 735 443 728 q 400 754 412 743 q 380 779 389 766 q 363 803 372 792 q 347 822 355 814 q 326 829 338 829 q 301 821 311 829 q 288 800 292 813 q 285 771 284 787 q 290 738 286 754 l 200 736 q 222 835 200 798 q 294 871 243 871 z "},"ò":{"ha":677,"x_min":27,"x_max":650,"o":"m 27 323 q 107 579 27 497 q 346 661 186 661 q 484 641 426 661 q 578 579 541 621 q 633 473 615 537 q 650 323 650 410 q 633 175 650 239 q 578 70 615 112 q 484 7 541 28 q 346 -14 426 -14 q 27 323 27 -14 m 346 20 q 474 97 433 20 q 514 323 514 174 q 473 550 514 476 q 346 624 433 624 q 210 547 256 624 q 163 323 163 470 q 209 96 163 172 q 346 20 254 20 m 182 924 l 243 924 l 393 729 l 282 729 l 182 924 z "},"ó":{"ha":677,"x_min":27,"x_max":650,"o":"m 346 661 q 484 641 426 661 q 578 579 541 621 q 633 473 615 537 q 650 323 650 410 q 633 175 650 239 q 578 70 615 112 q 484 7 541 28 q 346 -14 426 -14 q 27 323 27 -14 q 107 579 27 497 q 346 661 186 661 m 163 323 q 209 96 163 172 q 346 20 254 20 q 474 97 433 20 q 514 323 514 174 q 473 550 514 476 q 346 624 433 624 q 210 547 256 624 q 163 323 163 470 m 425 926 l 486 926 l 387 730 l 276 730 l 425 926 z "},"ô":{"ha":677,"x_min":27,"x_max":650,"o":"m 346 661 q 484 641 426 661 q 578 579 541 621 q 633 473 615 537 q 650 323 650 410 q 633 175 650 239 q 578 70 615 112 q 484 7 541 28 q 346 -14 426 -14 q 27 323 27 -14 q 107 579 27 497 q 346 661 186 661 m 163 323 q 209 96 163 172 q 346 20 254 20 q 474 97 433 20 q 514 323 514 174 q 473 550 514 476 q 346 624 433 624 q 210 547 256 624 q 163 323 163 470 m 164 730 l 313 924 l 374 924 l 524 730 l 412 730 l 344 864 l 275 730 l 164 730 z "},"õ":{"ha":677,"x_min":27,"x_max":650,"o":"m 27 323 q 107 579 27 497 q 346 661 186 661 q 484 641 426 661 q 578 579 541 621 q 633 473 615 537 q 650 323 650 410 q 633 175 650 239 q 578 70 615 112 q 484 7 541 28 q 346 -14 426 -14 q 27 323 27 -14 m 346 20 q 474 97 433 20 q 514 323 514 174 q 473 550 514 476 q 346 624 433 624 q 210 547 256 624 q 163 323 163 470 q 209 96 163 172 q 346 20 254 20 m 231 869 q 286 857 264 869 q 325 829 308 844 q 358 802 342 814 q 395 790 374 790 q 418 798 408 790 q 435 818 428 806 q 446 843 442 830 q 450 867 450 857 l 538 865 q 528 812 538 838 q 500 767 518 787 q 458 735 483 747 q 405 724 433 724 l 401 724 q 364 732 380 724 q 337 751 349 740 q 317 775 326 762 q 300 800 309 789 q 283 819 292 811 q 263 826 275 826 q 238 818 248 826 q 224 797 229 810 q 221 767 220 784 q 227 734 222 751 l 137 733 q 159 832 137 795 q 231 869 180 869 z "},"ö":{"ha":677,"x_min":27,"x_max":650,"o":"m 346 661 q 484 641 426 661 q 578 579 541 621 q 633 473 615 537 q 650 323 650 410 q 633 175 650 239 q 578 70 615 112 q 484 7 541 28 q 346 -14 426 -14 q 27 323 27 -14 q 107 579 27 497 q 346 661 186 661 m 346 20 q 474 97 433 20 q 514 323 514 174 q 473 550 514 476 q 346 624 433 624 q 210 547 256 624 q 163 323 163 470 q 209 96 163 172 q 346 20 254 20 m 226 903 q 260 896 244 903 q 289 877 277 889 q 308 849 300 865 q 315 814 315 833 q 308 780 315 796 q 289 752 300 764 q 260 733 277 740 q 226 726 244 726 q 191 733 208 726 q 163 752 175 740 q 144 780 151 764 q 137 814 137 796 q 144 849 137 833 q 163 877 151 865 q 191 896 175 889 q 226 903 208 903 m 346 814 q 353 849 346 833 q 372 877 360 865 q 400 896 384 889 q 435 903 416 903 q 469 896 453 903 q 497 877 485 889 q 516 849 509 865 q 523 814 523 833 q 516 780 523 796 q 497 752 509 764 q 469 733 485 740 q 435 726 453 726 q 400 733 416 726 q 372 752 384 740 q 353 780 360 764 q 346 814 346 796 z "},"÷":{"ha":487,"x_min":34,"x_max":453,"o":"m 453 515 l 453 410 l 34 410 l 34 515 l 453 515 m 243 755 q 278 748 262 755 q 306 729 294 741 q 325 701 318 717 q 332 666 332 684 q 325 632 332 648 q 306 604 318 616 q 278 585 294 591 q 243 578 262 578 q 209 585 225 578 q 181 604 193 591 q 162 632 169 616 q 155 666 155 648 q 162 701 155 684 q 181 729 169 717 q 209 748 193 741 q 243 755 225 755 m 155 270 q 162 304 155 288 q 181 333 169 321 q 209 352 193 345 q 243 359 225 359 q 278 352 262 359 q 306 333 294 345 q 325 304 318 321 q 332 270 332 288 q 325 236 332 252 q 306 208 318 220 q 278 189 294 195 q 243 182 262 182 q 209 189 225 182 q 181 208 193 195 q 162 236 169 220 q 155 270 155 252 z "},"ø":{"ha":715,"x_min":75,"x_max":698,"o":"m 321 -9 q 306 -48 313 -30 q 293 -82 299 -66 l 157 -82 q 180 -23 169 -52 q 201 32 191 5 q 75 323 75 111 q 154 579 75 497 q 393 661 234 661 q 424 660 409 661 q 453 658 439 659 q 472 704 463 681 q 491 752 481 728 l 627 752 q 624 744 627 753 q 613 717 620 734 q 596 675 606 700 q 574 621 587 651 q 668 510 638 583 q 698 323 698 437 q 680 175 698 239 q 626 70 663 112 q 531 7 589 28 q 393 -14 473 -14 q 356 -13 374 -14 q 321 -9 338 -12 m 393 20 q 521 97 481 20 q 562 323 562 174 q 555 436 562 387 q 534 522 548 485 q 485 400 511 465 q 433 272 458 336 q 382 145 407 207 q 336 29 357 83 q 363 22 349 24 q 393 20 378 20 m 437 618 q 393 624 416 624 q 257 547 303 624 q 211 323 211 470 q 239 132 211 204 q 288 254 264 195 q 336 371 312 313 q 385 491 360 430 q 437 618 410 551 z "},"ù":{"ha":802,"x_min":41,"x_max":761,"o":"m 761 36 l 761 6 q 699 16 729 9 q 640 22 669 22 q 602 18 621 22 q 564 2 583 14 l 564 68 q 473 5 524 25 q 363 -14 423 -14 q 254 5 301 -14 q 174 59 206 25 q 126 137 142 92 q 110 233 110 182 l 110 562 q 92 602 110 591 q 41 616 74 613 l 41 646 l 45 646 q 85 644 71 646 q 112 638 100 641 q 137 632 123 635 q 174 629 151 629 q 211 632 197 629 q 238 638 225 635 q 266 644 250 641 q 307 646 281 646 l 307 616 q 256 603 273 613 q 239 564 239 593 l 239 235 q 241 196 239 218 q 250 149 243 173 q 267 102 256 125 q 293 61 277 79 q 331 32 309 43 q 382 21 353 21 q 448 37 418 21 q 500 78 477 53 q 540 135 524 103 q 564 197 556 166 l 564 562 q 563 586 564 576 q 556 602 561 596 q 541 611 551 608 q 514 616 530 614 l 514 646 l 518 646 q 557 644 544 646 q 582 638 571 641 q 606 632 593 635 q 642 629 619 629 q 677 632 665 629 q 699 638 689 635 q 722 644 709 641 q 761 646 735 646 l 761 616 q 710 603 728 613 q 693 564 693 593 l 693 88 q 710 49 693 59 q 761 36 728 39 m 459 735 l 348 735 l 249 930 l 310 930 l 459 735 z "},"ú":{"ha":802,"x_min":41,"x_max":761,"o":"m 761 36 l 761 6 q 699 16 729 9 q 640 22 669 22 q 602 18 621 22 q 564 2 583 14 l 564 68 q 473 5 524 25 q 363 -14 423 -14 q 254 5 301 -14 q 174 59 206 25 q 126 137 142 92 q 110 233 110 182 l 110 562 q 92 602 110 591 q 41 616 74 613 l 41 646 l 45 646 q 85 644 71 646 q 112 638 100 641 q 137 632 123 635 q 174 629 151 629 q 211 632 197 629 q 238 638 225 635 q 266 644 250 641 q 307 646 281 646 l 307 616 q 256 603 273 613 q 239 564 239 593 l 239 235 q 241 196 239 218 q 250 149 243 173 q 267 102 256 125 q 293 61 277 79 q 331 32 309 43 q 382 21 353 21 q 448 37 418 21 q 500 78 477 53 q 540 135 524 103 q 564 197 556 166 l 564 562 q 563 586 564 576 q 556 602 561 596 q 541 611 551 608 q 514 616 530 614 l 514 646 l 518 646 q 557 644 544 646 q 582 638 571 641 q 606 632 593 635 q 642 629 619 629 q 677 632 665 629 q 699 638 689 635 q 722 644 709 641 q 761 646 735 646 l 761 616 q 710 603 728 613 q 693 564 693 593 l 693 88 q 710 49 693 59 q 761 36 728 39 m 319 730 l 469 925 l 530 925 l 431 730 l 319 730 z "},"û":{"ha":802,"x_min":41,"x_max":761,"o":"m 761 36 l 761 6 q 699 16 729 9 q 640 22 669 22 q 602 18 621 22 q 564 2 583 14 l 564 68 q 473 5 524 25 q 363 -14 423 -14 q 254 5 301 -14 q 174 59 206 25 q 126 137 142 92 q 110 233 110 182 l 110 562 q 92 602 110 591 q 41 616 74 613 l 41 646 l 45 646 q 85 644 71 646 q 112 638 100 641 q 137 632 123 635 q 174 629 151 629 q 211 632 197 629 q 238 638 225 635 q 266 644 250 641 q 307 646 281 646 l 307 616 q 256 603 273 613 q 239 564 239 593 l 239 235 q 241 196 239 218 q 250 149 243 173 q 267 102 256 125 q 293 61 277 79 q 331 32 309 43 q 382 21 353 21 q 448 37 418 21 q 500 78 477 53 q 540 135 524 103 q 564 197 556 166 l 564 562 q 563 586 564 576 q 556 602 561 596 q 541 611 551 608 q 514 616 530 614 l 514 646 l 518 646 q 557 644 544 646 q 582 638 571 641 q 606 632 593 635 q 642 629 619 629 q 677 632 665 629 q 699 638 689 635 q 722 644 709 641 q 761 646 735 646 l 761 616 q 710 603 728 613 q 693 564 693 593 l 693 88 q 710 49 693 59 q 761 36 728 39 m 581 731 l 470 731 l 401 866 l 333 731 l 222 731 l 371 926 l 432 926 l 581 731 z "},"ü":{"ha":802,"x_min":41,"x_max":761,"o":"m 761 36 l 761 6 q 699 16 729 9 q 640 22 669 22 q 602 18 621 22 q 564 2 583 14 l 564 68 q 473 5 524 25 q 363 -14 423 -14 q 254 5 301 -14 q 174 59 206 25 q 126 137 142 92 q 110 233 110 182 l 110 562 q 92 602 110 591 q 41 616 74 613 l 41 646 l 45 646 q 85 644 71 646 q 112 638 100 641 q 137 632 123 635 q 174 629 151 629 q 211 632 197 629 q 238 638 225 635 q 266 644 250 641 q 307 646 281 646 l 307 616 q 256 603 273 613 q 239 564 239 593 l 239 235 q 241 196 239 218 q 250 149 243 173 q 267 102 256 125 q 293 61 277 79 q 331 32 309 43 q 382 21 353 21 q 448 37 418 21 q 500 78 477 53 q 540 135 524 103 q 564 197 556 166 l 564 562 q 563 586 564 576 q 556 602 561 596 q 541 611 551 608 q 514 616 530 614 l 514 646 l 518 646 q 557 644 544 646 q 582 638 571 641 q 606 632 593 635 q 642 629 619 629 q 677 632 665 629 q 699 638 689 635 q 722 644 709 641 q 761 646 735 646 l 761 616 q 710 603 728 613 q 693 564 693 593 l 693 88 q 710 49 693 59 q 761 36 728 39 m 298 730 q 263 736 279 730 q 235 755 247 743 q 216 784 222 768 q 209 819 209 800 q 216 853 209 837 q 235 881 222 869 q 263 900 247 893 q 298 907 279 907 q 332 900 316 907 q 360 881 349 893 q 379 853 372 869 q 387 819 387 837 q 379 784 387 800 q 360 756 372 768 q 332 737 348 744 q 298 730 316 730 m 507 730 q 472 736 488 730 q 444 755 456 743 q 425 784 431 768 q 418 819 418 800 q 425 853 418 837 q 444 881 431 869 q 472 900 456 893 q 507 907 488 907 q 541 900 525 907 q 569 881 557 893 q 588 853 581 869 q 595 819 595 837 q 588 784 595 800 q 569 756 581 768 q 541 737 557 744 q 507 730 525 730 z "},"ý":{"ha":710,"x_min":0,"x_max":703,"o":"m 191 644 l 416 174 l 629 644 q 643 640 636 641 q 656 638 650 638 q 680 642 669 638 q 702 645 690 645 l 703 645 l 703 610 q 692 610 701 610 q 674 607 684 609 q 655 599 665 604 q 640 583 646 593 l 290 -193 q 260 -248 276 -223 q 225 -290 243 -273 q 186 -318 207 -308 q 141 -328 165 -328 q 95 -319 120 -328 q 72 -299 80 -313 q 62 -271 64 -286 q 65 -241 60 -256 q 81 -219 70 -227 q 104 -214 90 -214 q 143 -219 121 -214 q 187 -224 165 -224 q 228 -214 209 -224 q 260 -172 247 -204 l 346 17 q 296 121 319 74 q 252 212 273 169 q 211 297 231 256 q 170 382 191 338 q 126 476 149 427 q 74 584 102 525 q 59 596 69 592 q 38 602 49 600 q 17 605 26 604 q 5 608 7 606 l 0 643 q 36 640 19 642 q 67 635 52 637 q 97 630 83 632 q 125 628 111 628 q 157 631 141 628 q 191 644 173 635 m 472 926 l 533 926 l 434 731 l 323 731 l 472 926 z "},"þ":{"ha":772,"x_min":41,"x_max":745,"o":"m 41 1069 q 82 1067 66 1069 q 110 1061 97 1064 q 137 1056 123 1058 q 174 1053 151 1053 q 210 1056 197 1053 q 235 1062 224 1059 q 261 1067 247 1065 q 299 1069 275 1069 l 307 1069 l 307 1040 q 255 1026 273 1036 q 237 986 237 1015 l 237 772 q 441 824 313 824 q 578 804 521 824 q 673 742 636 783 q 728 636 710 700 q 745 486 745 572 q 728 338 745 401 q 673 233 710 275 q 578 170 636 191 q 441 149 521 149 q 237 201 314 149 l 237 -14 q 255 -54 237 -43 q 307 -68 273 -64 l 307 -98 l 299 -98 q 261 -95 275 -98 q 235 -90 247 -93 q 210 -84 224 -87 q 174 -81 197 -81 q 137 -84 151 -81 q 110 -89 123 -86 q 82 -95 97 -92 q 41 -98 66 -98 l 41 -68 q 91 -55 74 -64 q 109 -16 109 -45 l 109 987 q 91 1026 109 1017 q 41 1040 74 1036 l 41 1069 m 258 487 q 304 260 258 336 q 441 184 349 184 q 569 261 528 184 q 609 487 609 337 q 568 714 609 640 q 441 788 528 788 q 304 711 351 788 q 258 487 258 634 z "},"ÿ":{"ha":710,"x_min":0,"x_max":703,"o":"m 191 644 l 416 174 l 629 644 q 643 640 636 641 q 656 638 650 638 q 680 642 669 638 q 702 645 690 645 l 703 645 l 703 610 q 692 610 701 610 q 674 607 684 609 q 655 599 665 604 q 640 583 646 593 l 290 -193 q 260 -248 276 -223 q 225 -290 243 -273 q 186 -318 207 -308 q 141 -328 165 -328 q 95 -319 120 -328 q 72 -299 80 -313 q 62 -271 64 -286 q 65 -241 60 -256 q 81 -219 70 -227 q 104 -214 90 -214 q 143 -219 121 -214 q 187 -224 165 -224 q 228 -214 209 -224 q 260 -172 247 -204 l 346 17 q 296 121 319 74 q 252 212 273 169 q 211 297 231 256 q 170 382 191 338 q 126 476 149 427 q 74 584 102 525 q 59 596 69 592 q 38 602 49 600 q 17 605 26 604 q 5 608 7 606 l 0 643 q 36 640 19 642 q 67 635 52 637 q 97 630 83 632 q 125 628 111 628 q 157 631 141 628 q 191 644 173 635 m 273 909 q 308 903 292 909 q 336 884 324 896 q 355 856 348 871 q 362 821 362 840 q 355 787 362 803 q 336 759 348 770 q 308 740 324 747 q 273 732 292 732 q 239 740 255 732 q 211 759 222 747 q 192 787 199 770 q 184 821 184 803 q 192 856 184 840 q 211 884 199 871 q 239 903 222 896 q 273 909 255 909 m 393 821 q 400 856 393 840 q 419 884 408 871 q 448 903 431 896 q 482 909 464 909 q 516 903 500 909 q 545 884 532 896 q 564 856 557 871 q 570 821 570 840 q 564 787 570 803 q 545 759 557 770 q 516 740 532 747 q 482 732 500 732 q 448 740 464 732 q 419 759 431 747 q 400 787 408 770 q 393 821 393 803 z "},"Đ":{"ha":1014,"x_min":51,"x_max":987,"o":"m 161 485 l 161 890 q 143 928 161 918 q 93 942 126 939 l 93 972 l 229 972 q 296 972 263 972 q 363 971 330 972 l 505 972 q 707 945 617 972 q 858 859 796 918 q 954 708 920 800 q 987 486 987 616 q 956 259 987 352 q 865 109 925 167 q 714 26 804 52 q 505 0 624 0 l 366 0 q 338 0 352 0 q 311 -1 325 -1 q 218 0 265 -1 q 124 1 172 1 l 93 1 l 93 31 q 143 44 126 34 q 161 83 161 54 l 161 380 l 51 380 l 51 485 l 161 485 m 482 485 l 482 380 l 296 380 l 296 84 q 301 61 296 70 q 316 48 307 52 q 337 42 325 43 q 366 41 350 41 l 497 41 q 663 73 597 41 q 770 162 730 104 q 827 303 810 220 q 844 486 844 385 q 835 598 844 543 q 809 703 827 654 q 764 794 791 753 q 698 866 736 836 q 610 913 660 897 q 498 930 560 930 l 366 930 q 315 918 333 930 q 296 877 296 905 l 296 485 l 482 485 z "},"đ":{"ha":836,"x_min":27,"x_max":809,"o":"m 27 323 q 45 473 27 410 q 100 577 62 536 q 194 638 137 618 q 332 658 252 658 q 543 602 467 658 l 543 729 l 338 729 l 338 800 l 543 800 l 543 918 q 539 942 543 932 q 526 957 534 951 q 505 966 517 963 q 475 970 492 969 l 475 1000 q 519 995 501 998 q 553 989 537 992 q 588 985 570 987 q 632 983 606 983 q 653 983 643 983 q 672 984 663 983 l 672 800 l 809 800 l 809 729 l 672 729 l 672 83 q 689 44 672 54 q 740 31 707 34 l 740 1 q 696 6 714 3 q 663 12 679 9 q 628 16 646 14 q 584 18 610 18 q 563 18 573 18 q 543 17 553 18 l 543 49 q 452 3 505 18 q 332 -13 399 -13 q 194 8 252 -13 q 100 71 137 28 q 45 176 62 113 q 27 323 27 239 m 163 323 q 211 98 163 174 q 363 22 259 22 q 474 53 429 22 q 543 139 519 83 l 543 545 q 376 621 490 621 q 215 548 267 621 q 163 323 163 475 z "},"ı":{"ha":361,"x_min":47,"x_max":313,"o":"m 47 646 q 89 644 73 646 q 117 638 104 641 q 143 632 130 635 q 180 629 157 629 q 217 632 204 629 q 243 638 231 635 q 270 644 255 641 q 309 646 284 646 l 313 646 l 313 616 q 262 602 280 613 q 244 563 244 591 l 244 84 q 262 44 244 55 q 313 31 280 34 l 313 1 l 306 1 q 268 3 281 1 q 242 9 254 6 q 217 15 231 12 q 180 18 203 18 q 143 15 157 18 q 117 9 130 12 q 89 3 104 6 q 47 1 73 1 l 47 31 q 98 44 81 34 q 115 83 115 54 l 115 564 q 98 603 115 593 q 47 616 81 613 l 47 646 z "},"Ł":{"ha":698,"x_min":27,"x_max":677,"o":"m 123 492 l 123 890 q 106 928 123 918 q 56 941 89 938 l 56 970 q 98 968 81 970 q 128 963 114 966 q 157 957 142 960 q 195 954 172 954 q 231 957 218 954 q 257 963 245 960 q 282 968 269 966 q 321 970 296 970 l 328 970 l 328 941 q 277 927 295 937 q 259 887 259 916 l 259 492 l 549 492 l 549 387 l 259 387 l 259 84 q 264 61 259 70 q 278 48 269 52 q 300 42 287 43 q 328 41 313 41 l 595 41 q 630 53 618 41 q 642 90 643 66 l 676 90 q 674 64 676 75 q 672 43 673 54 q 672 23 671 33 q 677 0 673 13 l 328 0 q 301 0 315 0 q 274 -1 288 -1 q 181 0 228 -1 q 87 1 134 1 l 56 1 l 56 31 q 106 44 89 34 q 123 83 123 54 l 123 387 l 27 387 l 27 492 l 123 492 z "},"ł":{"ha":549,"x_min":41,"x_max":528,"o":"m 258 274 l 258 84 q 275 44 258 55 q 327 31 293 34 l 327 1 l 319 1 q 281 3 295 1 q 255 9 267 6 q 230 15 243 12 q 193 18 216 18 q 156 15 170 18 q 130 9 142 12 q 101 3 117 6 q 60 1 86 1 l 60 31 q 90 35 77 32 q 111 44 102 38 q 124 59 119 50 q 128 83 128 68 l 128 274 l 41 274 l 41 379 l 128 379 l 128 1070 l 193 1070 q 230 1073 217 1070 q 256 1079 243 1076 q 282 1084 268 1082 q 323 1087 297 1087 l 327 1087 l 327 1057 q 275 1043 293 1054 q 258 1004 258 1032 l 258 379 l 528 379 l 528 274 l 258 274 z "},"Œ":{"ha":1554,"x_min":81,"x_max":1513,"o":"m 81 488 q 113 690 81 599 q 203 848 144 782 q 350 949 263 913 q 547 985 436 985 q 684 969 621 985 q 799 922 747 953 q 891 847 851 891 q 959 747 932 802 l 959 890 q 942 928 959 918 q 891 942 924 939 l 891 972 l 1027 972 q 1095 972 1061 972 q 1162 971 1128 972 l 1487 972 q 1481 949 1482 959 q 1481 928 1480 939 q 1484 907 1482 918 q 1486 882 1486 897 l 1451 882 q 1440 919 1453 906 q 1405 931 1428 931 q 1284 931 1344 931 q 1164 930 1225 930 q 1113 918 1131 930 q 1095 877 1095 905 l 1095 555 l 1369 555 q 1408 572 1398 555 q 1421 623 1418 589 l 1451 623 q 1444 533 1444 578 q 1451 445 1444 487 l 1421 445 q 1407 496 1418 478 q 1367 514 1396 514 l 1095 514 l 1095 84 q 1100 61 1095 70 q 1114 48 1105 52 q 1136 42 1123 43 q 1164 41 1148 41 l 1432 41 q 1467 53 1454 41 q 1478 90 1479 66 l 1512 90 q 1511 64 1512 75 q 1508 43 1509 54 q 1507 23 1506 33 q 1513 0 1508 13 l 1164 0 q 1137 0 1150 0 q 1109 -1 1123 -1 q 1017 0 1063 -1 q 922 1 970 1 l 891 1 l 891 31 q 942 44 924 34 q 959 83 959 54 l 959 228 q 891 127 932 172 q 799 51 851 82 q 683 3 747 20 q 546 -14 620 -14 q 350 23 436 -14 q 204 126 263 60 q 113 284 144 192 q 81 488 81 376 m 547 27 q 646 45 601 27 q 727 96 690 64 q 790 172 763 128 q 835 268 817 216 q 862 375 853 319 q 871 488 871 431 q 862 601 871 545 q 835 707 853 656 q 790 802 817 758 q 727 877 763 845 q 645 927 690 909 q 547 945 600 945 q 448 927 493 945 q 367 877 403 909 q 304 801 331 844 q 259 707 277 758 q 233 600 241 656 q 224 488 224 544 q 233 375 224 431 q 259 268 241 319 q 304 172 277 216 q 367 96 331 128 q 448 45 403 64 q 547 27 493 27 z "},"œ":{"ha":1179,"x_min":27,"x_max":1153,"o":"m 346 661 q 495 637 434 661 q 592 562 555 613 q 696 634 633 611 q 839 658 758 658 q 935 644 892 658 q 1010 608 977 631 q 1067 556 1044 585 q 1107 495 1091 526 q 1129 431 1122 463 q 1135 372 1136 399 l 658 372 q 657 348 657 360 q 657 323 657 336 q 706 96 657 174 q 861 19 754 19 q 926 31 899 19 q 973 63 953 42 q 1010 111 994 83 q 1042 172 1026 139 q 1072 203 1053 192 q 1109 214 1090 214 q 1139 203 1126 214 q 1152 172 1152 193 q 1131 109 1153 142 q 1069 48 1108 76 q 976 3 1029 21 q 863 -16 923 -16 q 700 8 768 -16 q 589 83 631 32 q 492 10 552 35 q 346 -14 433 -14 q 27 323 27 -14 q 107 579 27 497 q 346 661 186 661 m 346 20 q 474 97 433 20 q 514 323 514 174 q 473 550 514 476 q 346 624 433 624 q 210 547 256 624 q 163 323 163 470 q 209 96 163 172 q 346 20 254 20 m 991 407 q 989 446 993 424 q 977 492 985 469 q 955 538 968 515 q 924 579 941 561 q 885 609 906 597 q 838 621 863 620 q 713 568 755 621 q 661 407 671 516 l 991 407 z "},"Š":{"ha":785,"x_min":34,"x_max":753,"o":"m 107 241 q 114 242 111 241 q 121 242 118 242 q 165 227 147 242 q 199 189 183 212 q 230 139 214 166 q 268 89 246 113 q 320 48 290 65 q 395 30 351 32 l 407 30 q 490 46 452 30 q 556 90 528 62 q 600 156 584 117 q 615 239 615 194 q 592 297 615 271 q 532 347 570 323 q 447 394 495 371 q 349 441 399 416 q 251 494 299 466 q 164 556 202 522 q 101 633 125 591 q 75 729 77 675 q 95 830 73 783 q 158 910 117 876 q 257 964 199 945 q 385 984 315 984 q 461 977 424 984 q 533 957 499 970 q 595 927 566 945 q 644 889 623 910 q 676 845 665 868 q 689 797 688 821 q 684 769 690 781 q 668 747 678 756 q 645 734 658 739 q 617 729 631 729 q 572 743 593 729 q 548 772 557 753 q 530 812 538 790 q 511 858 522 835 q 484 900 500 881 q 442 931 467 919 q 378 943 416 943 q 239 900 284 943 q 197 772 194 856 q 224 708 199 736 q 289 655 249 680 q 378 609 328 631 q 481 564 429 587 q 582 513 533 541 q 670 452 631 486 q 730 375 708 418 q 751 275 753 332 q 717 160 749 213 q 636 67 686 106 q 523 6 586 28 q 395 -16 460 -16 q 295 -6 348 -16 q 194 19 242 3 q 106 57 145 35 q 47 106 67 79 q 34 145 35 123 q 43 188 34 168 q 69 222 52 208 q 107 241 86 237 m 189 1213 l 300 1213 l 369 1078 l 437 1213 l 549 1213 l 399 1017 l 338 1017 l 189 1213 z "},"š":{"ha":556,"x_min":34,"x_max":523,"o":"m 83 161 q 126 151 110 161 q 156 126 143 141 q 179 92 168 111 q 204 58 190 74 q 239 32 218 43 q 290 22 259 22 q 354 32 327 22 q 399 61 381 43 q 425 102 416 79 q 434 151 434 125 q 417 189 434 172 q 373 220 401 205 q 311 249 346 235 q 240 278 277 262 q 170 312 204 294 q 109 356 136 331 q 67 412 83 380 q 53 485 52 444 q 71 555 54 523 q 117 609 87 587 q 190 645 147 632 q 286 657 233 657 q 365 645 326 657 q 433 614 403 633 q 483 570 464 595 q 503 521 502 546 q 497 498 503 509 q 483 479 492 488 q 463 467 474 471 q 440 462 452 462 q 416 469 427 462 q 399 490 407 476 q 385 521 392 504 q 369 555 377 538 q 349 588 360 573 q 321 612 337 603 q 282 623 304 622 q 185 596 218 623 q 153 522 153 569 q 169 477 153 496 q 212 441 185 457 q 272 410 238 425 q 340 380 305 395 q 408 347 375 365 q 467 306 441 329 q 508 253 493 283 q 522 182 523 222 q 496 96 519 133 q 435 35 472 59 q 354 -2 399 10 q 264 -14 309 -14 q 205 -7 238 -14 q 140 11 172 -1 q 82 37 109 22 q 43 68 56 52 q 34 97 35 81 q 40 127 34 113 q 58 151 46 141 q 83 161 69 161 m 92 928 l 204 928 l 273 793 l 341 928 l 452 928 l 303 733 l 241 732 l 92 928 z "},"Ÿ":{"ha":743,"x_min":3,"x_max":736,"o":"m 194 968 l 411 490 l 665 968 q 680 963 673 964 q 692 962 686 962 q 715 965 705 962 q 736 968 725 968 l 736 934 l 735 934 q 719 933 727 934 q 703 931 710 933 q 689 924 695 929 q 678 911 683 920 l 435 452 l 435 84 q 454 42 435 55 q 505 30 473 30 l 505 0 q 429 7 465 3 q 352 12 393 12 q 297 9 326 12 q 232 1 267 7 l 232 31 q 282 44 265 34 q 300 83 300 54 l 300 407 q 281 448 294 420 q 251 514 268 477 q 214 595 234 551 q 175 682 195 639 q 136 766 155 726 q 104 838 118 806 q 82 888 90 869 q 73 907 73 907 q 59 919 69 915 q 38 924 49 922 q 17 928 26 926 q 5 932 7 929 l 3 966 q 38 963 22 966 q 70 958 55 961 q 99 954 85 956 q 127 951 113 951 q 159 955 143 951 q 194 968 176 958 m 300 1197 q 335 1190 319 1197 q 363 1171 351 1183 q 382 1143 375 1159 q 389 1109 389 1127 q 382 1074 389 1090 q 363 1046 375 1058 q 335 1027 351 1034 q 300 1020 319 1020 q 266 1027 282 1020 q 238 1046 250 1034 q 219 1074 226 1058 q 212 1109 212 1090 q 219 1143 212 1127 q 238 1171 226 1159 q 266 1190 250 1183 q 300 1197 282 1197 m 509 1197 q 544 1190 528 1197 q 572 1171 559 1183 q 591 1143 584 1159 q 597 1109 597 1127 q 591 1074 597 1090 q 572 1046 584 1058 q 544 1027 559 1034 q 509 1020 528 1020 q 475 1027 491 1020 q 447 1046 458 1034 q 428 1074 435 1058 q 420 1109 420 1090 q 428 1143 420 1127 q 447 1171 435 1159 q 475 1190 458 1183 q 509 1197 491 1197 z "},"Ž":{"ha":897,"x_min":34,"x_max":863,"o":"m 603 930 l 481 930 l 130 930 q 104 927 114 930 q 90 918 95 924 q 84 902 85 911 q 83 881 83 893 l 49 881 q 51 906 49 895 q 54 927 53 917 q 55 948 55 937 q 49 971 54 958 l 787 970 l 218 43 l 753 42 q 827 90 829 42 l 862 90 q 860 64 862 75 q 857 43 859 54 q 857 23 856 33 q 863 0 858 13 l 34 3 l 603 930 m 320 1213 l 389 1078 l 457 1213 l 568 1213 l 419 1017 l 358 1017 l 209 1213 l 320 1213 z "},"ž":{"ha":596,"x_min":17,"x_max":572,"o":"m 17 3 l 377 610 l 313 610 l 128 610 q 102 606 112 610 q 88 594 93 602 q 82 576 83 587 q 82 554 81 566 l 47 554 q 50 579 47 568 q 53 601 52 591 q 53 621 54 611 q 47 644 53 631 l 553 644 l 195 35 l 491 34 q 517 38 507 34 q 531 50 526 42 q 537 67 536 57 q 537 90 538 77 l 572 90 q 570 64 572 75 q 567 43 568 54 q 567 23 566 33 q 572 0 568 13 l 17 0 l 17 3 m 236 928 l 304 793 l 373 928 l 484 928 l 335 733 l 274 733 l 125 928 l 236 928 z "},"ƒ":{"ha":569,"x_min":41,"x_max":545,"o":"m 127 644 l 127 673 q 142 769 127 724 q 189 848 158 814 q 266 902 220 882 q 372 922 311 922 q 439 915 408 922 q 493 890 470 907 q 531 849 517 874 q 545 789 545 824 q 540 766 545 777 q 526 748 534 755 q 506 735 517 740 q 483 731 494 731 q 459 738 469 731 q 445 758 450 745 q 437 788 440 772 q 430 822 433 804 q 419 853 427 839 q 397 876 411 867 q 359 885 382 885 q 313 873 332 885 q 284 841 295 861 q 268 797 273 822 q 260 747 262 772 q 257 698 258 722 q 256 657 257 674 l 256 644 l 416 644 l 416 609 l 256 609 l 256 84 q 274 44 256 55 q 326 31 292 34 l 326 1 l 318 1 q 279 3 294 1 q 254 9 265 6 q 229 15 242 12 q 192 18 215 18 q 155 15 169 18 q 128 9 141 12 q 100 3 115 6 q 59 1 85 1 l 59 31 q 89 35 76 32 q 110 44 101 38 q 122 59 118 50 q 127 83 127 68 l 127 609 l 41 609 l 41 644 l 127 644 z "},"ˆ":{"ha":428,"x_min":34,"x_max":394,"o":"m 34 1015 l 183 1210 l 245 1210 l 394 1015 l 282 1015 l 214 1149 l 145 1015 l 34 1015 z "},"ˇ":{"ha":428,"x_min":34,"x_max":394,"o":"m 145 1210 l 214 1076 l 282 1210 l 394 1210 l 245 1015 l 183 1015 l 34 1210 l 145 1210 z "},"˘":{"ha":317,"x_min":34,"x_max":283,"o":"m 111 1156 q 113 1120 111 1137 q 118 1091 114 1103 q 132 1072 123 1079 q 157 1065 141 1065 q 186 1073 174 1065 q 204 1093 197 1080 q 212 1122 210 1105 q 213 1156 214 1139 l 283 1156 q 273 1114 281 1135 q 251 1075 266 1092 q 213 1047 236 1058 q 157 1036 191 1036 q 109 1043 132 1036 q 70 1065 87 1050 q 43 1103 53 1080 q 34 1156 34 1126 l 111 1156 z "},"˙":{"ha":245,"x_min":34,"x_max":212,"o":"m 34 1143 q 41 1177 34 1161 q 60 1205 48 1193 q 88 1224 72 1217 q 123 1231 104 1231 q 157 1224 141 1231 q 185 1205 174 1217 q 204 1177 197 1193 q 212 1143 212 1161 q 204 1108 212 1124 q 185 1080 197 1092 q 157 1061 174 1068 q 123 1054 141 1054 q 88 1061 104 1054 q 60 1080 72 1068 q 41 1108 48 1092 q 34 1143 34 1124 z "},"˚":{"ha":290,"x_min":34,"x_max":256,"o":"m 34 1150 q 43 1194 34 1173 q 66 1229 52 1214 q 102 1253 81 1244 q 145 1261 122 1261 q 189 1253 168 1261 q 224 1229 209 1244 q 248 1194 239 1214 q 256 1150 256 1173 q 248 1107 256 1127 q 224 1072 239 1086 q 189 1048 209 1057 q 145 1039 168 1039 q 102 1048 122 1039 q 66 1072 81 1057 q 43 1107 52 1086 q 34 1150 34 1127 m 79 1150 q 84 1125 79 1137 q 99 1104 90 1113 q 120 1089 108 1095 q 145 1084 132 1084 q 171 1089 159 1084 q 192 1104 182 1095 q 206 1125 201 1113 q 211 1150 211 1137 q 206 1176 211 1164 q 192 1197 201 1187 q 171 1211 182 1206 q 145 1216 159 1216 q 120 1211 132 1216 q 99 1197 108 1206 q 84 1176 90 1187 q 79 1150 79 1164 z "},"˛":{"ha":294,"x_min":34,"x_max":260,"o":"m 218 -39 l 197 22 l 235 24 l 260 -75 q 223 -65 247 -70 q 175 -60 199 -60 q 148 -63 161 -60 q 124 -71 134 -65 q 108 -86 114 -77 q 102 -111 102 -96 q 109 -135 102 -125 q 128 -149 117 -144 q 155 -156 140 -154 q 184 -157 170 -157 q 214 -156 200 -157 q 238 -154 229 -155 l 243 -184 q 211 -187 230 -185 q 172 -189 193 -189 q 123 -186 148 -189 q 79 -174 99 -182 q 46 -149 59 -165 q 34 -109 34 -134 q 45 -71 34 -85 q 75 -48 57 -56 q 115 -37 93 -40 q 156 -35 136 -35 q 180 -35 169 -35 q 199 -37 191 -36 q 218 -39 210 -38 z "},"˜":{"ha":551,"x_min":75,"x_max":476,"o":"m 169 1170 q 208 1164 191 1170 q 238 1149 225 1158 q 263 1131 252 1141 q 284 1112 274 1120 q 307 1097 295 1103 q 332 1091 318 1091 q 355 1099 345 1091 q 373 1119 366 1107 q 384 1144 380 1131 q 388 1168 388 1158 l 476 1167 q 466 1114 476 1139 q 438 1069 456 1088 q 396 1037 420 1049 q 342 1025 371 1025 l 339 1025 q 302 1034 317 1026 q 275 1053 286 1042 q 255 1077 263 1064 q 238 1102 246 1090 q 221 1120 230 1113 q 201 1128 212 1128 q 176 1120 185 1128 q 163 1099 167 1112 q 159 1069 159 1086 q 165 1036 160 1053 l 75 1035 q 96 1133 75 1097 q 169 1170 118 1170 z "},"˝":{"ha":448,"x_min":34,"x_max":414,"o":"m 34 1019 l 184 1215 l 245 1215 l 145 1019 l 34 1019 m 353 1215 l 414 1215 l 315 1019 l 203 1019 l 353 1215 z "},"̀":{"ha":279,"x_min":34,"x_max":245,"o":"m 245 1019 l 133 1019 l 34 1214 l 95 1214 l 245 1019 z "},"́":{"ha":279,"x_min":34,"x_max":245,"o":"m 34 1019 l 184 1215 l 245 1215 l 145 1019 l 34 1019 z "},"̂":{"ha":428,"x_min":34,"x_max":394,"o":"m 34 1015 l 183 1210 l 245 1210 l 394 1015 l 282 1015 l 214 1149 l 145 1015 l 34 1015 z "},"̃":{"ha":469,"x_min":34,"x_max":435,"o":"m 128 1170 q 183 1158 161 1170 q 222 1131 205 1145 q 255 1103 239 1116 q 292 1091 271 1091 q 315 1099 304 1091 q 332 1119 325 1107 q 343 1144 339 1131 q 347 1168 347 1158 l 435 1167 q 425 1114 435 1139 q 397 1069 415 1088 q 355 1037 380 1049 q 302 1025 330 1025 l 298 1025 q 261 1034 277 1026 q 234 1053 245 1042 q 214 1077 222 1064 q 197 1102 205 1090 q 180 1120 189 1113 q 160 1128 172 1128 q 135 1120 144 1128 q 121 1099 125 1112 q 118 1069 117 1086 q 123 1036 119 1053 l 34 1035 q 56 1133 34 1097 q 128 1170 77 1170 z "},"̄":{"ha":412,"x_min":20,"x_max":357,"o":"m 357 1031 l 20 1031 l 20 1140 l 357 1140 l 357 1031 z "},"̇":{"ha":245,"x_min":34,"x_max":212,"o":"m 34 1143 q 41 1177 34 1161 q 60 1205 48 1193 q 88 1224 72 1217 q 123 1231 104 1231 q 157 1224 141 1231 q 185 1205 174 1217 q 204 1177 197 1193 q 212 1143 212 1161 q 204 1108 212 1124 q 185 1080 197 1092 q 157 1061 174 1068 q 123 1054 141 1054 q 88 1061 104 1054 q 60 1080 72 1068 q 41 1108 48 1092 q 34 1143 34 1124 z "},"̈":{"ha":454,"x_min":34,"x_max":420,"o":"m 34 1143 q 41 1177 34 1161 q 60 1205 48 1193 q 88 1224 72 1217 q 123 1231 104 1231 q 157 1224 141 1231 q 185 1205 174 1217 q 204 1177 197 1193 q 212 1143 212 1161 q 204 1108 212 1124 q 185 1080 197 1092 q 157 1061 174 1068 q 123 1054 141 1054 q 88 1061 104 1054 q 60 1080 72 1068 q 41 1108 48 1092 q 34 1143 34 1124 m 332 1231 q 366 1224 350 1231 q 394 1205 382 1217 q 413 1177 406 1193 q 420 1143 420 1161 q 413 1108 420 1124 q 394 1080 406 1092 q 366 1061 382 1068 q 332 1054 350 1054 q 297 1061 313 1054 q 269 1080 281 1068 q 250 1108 257 1092 q 243 1143 243 1124 q 250 1177 243 1161 q 269 1205 257 1193 q 297 1224 281 1217 q 332 1231 313 1231 z "},"̊":{"ha":290,"x_min":34,"x_max":256,"o":"m 34 1150 q 43 1194 34 1173 q 66 1229 52 1214 q 102 1253 81 1244 q 145 1261 122 1261 q 189 1253 168 1261 q 224 1229 209 1244 q 248 1194 239 1214 q 256 1150 256 1173 q 248 1107 256 1127 q 224 1072 239 1086 q 189 1048 209 1057 q 145 1039 168 1039 q 102 1048 122 1039 q 66 1072 81 1057 q 43 1107 52 1086 q 34 1150 34 1127 m 79 1150 q 84 1125 79 1137 q 99 1104 90 1113 q 120 1089 108 1095 q 145 1084 132 1084 q 171 1089 159 1084 q 192 1104 182 1095 q 206 1125 201 1113 q 211 1150 211 1137 q 206 1176 211 1164 q 192 1197 201 1187 q 171 1211 182 1206 q 145 1216 159 1216 q 120 1211 132 1216 q 99 1197 108 1206 q 84 1176 90 1187 q 79 1150 79 1164 z "},"̌":{"ha":428,"x_min":34,"x_max":394,"o":"m 145 1210 l 214 1076 l 282 1210 l 394 1210 l 245 1015 l 183 1015 l 34 1210 l 145 1210 z "},"̧":{"ha":294,"x_min":34,"x_max":260,"o":"m 59 24 l 98 22 l 77 -39 q 95 -37 85 -38 q 114 -35 103 -36 q 138 -35 125 -35 q 180 -37 158 -35 q 219 -48 201 -40 q 249 -71 237 -56 q 260 -109 260 -85 q 248 -149 260 -134 q 216 -174 235 -165 q 171 -186 196 -182 q 123 -189 146 -189 q 83 -187 102 -189 q 52 -184 64 -185 l 56 -154 q 80 -156 66 -155 q 110 -157 94 -157 q 140 -156 125 -157 q 166 -149 155 -154 q 185 -135 178 -144 q 193 -111 193 -125 q 186 -86 193 -96 q 170 -71 180 -77 q 147 -63 160 -65 q 119 -60 134 -60 q 71 -65 95 -60 q 34 -75 47 -70 l 59 24 z "},"–":{"ha":752,"x_min":34,"x_max":718,"o":"m 34 240 l 34 345 l 718 345 l 718 240 l 34 240 z "},"—":{"ha":752,"x_min":34,"x_max":718,"o":"m 34 240 l 34 345 l 718 345 l 718 240 l 34 240 z "},"‘":{"ha":263,"x_min":34,"x_max":229,"o":"m 110 818 q 122 787 114 801 q 143 762 130 774 q 174 739 156 750 q 218 715 193 728 l 218 692 q 146 722 179 702 q 87 771 113 743 q 48 837 62 800 q 34 913 34 873 q 42 952 34 934 q 63 983 50 970 q 94 1004 76 996 q 132 1011 111 1011 q 170 1004 152 1011 q 201 983 188 996 q 222 952 214 970 q 229 913 229 934 q 222 876 229 893 q 201 845 214 858 q 170 824 188 831 q 132 816 152 816 q 110 818 120 816 z "},"’":{"ha":263,"x_min":34,"x_max":229,"o":"m 34 913 q 42 952 34 934 q 63 983 50 970 q 94 1004 76 996 q 132 1011 111 1011 q 170 1004 152 1011 q 201 983 188 996 q 222 952 214 970 q 229 913 229 934 q 215 836 229 872 q 177 771 201 800 q 118 723 152 743 q 45 692 85 703 l 45 715 q 89 739 71 728 q 120 762 107 750 q 141 787 133 774 q 153 818 149 801 q 132 816 143 816 q 94 824 111 816 q 63 845 76 831 q 42 876 50 858 q 34 913 34 893 z "},"‚":{"ha":263,"x_min":34,"x_max":229,"o":"m 34 84 q 42 122 34 104 q 63 154 50 140 q 94 174 76 167 q 132 182 111 182 q 170 174 152 182 q 201 154 188 167 q 222 122 214 140 q 229 84 229 104 q 215 6 229 43 q 177 -58 201 -30 q 118 -107 152 -87 q 45 -136 85 -127 l 45 -113 q 89 -90 71 -101 q 120 -67 107 -79 q 141 -42 133 -56 q 153 -11 149 -28 q 132 -14 144 -14 q 94 -6 111 -14 q 63 15 76 2 q 42 46 50 28 q 34 84 34 64 z "},"“":{"ha":500,"x_min":34,"x_max":467,"o":"m 34 790 q 48 868 34 832 q 86 932 62 904 q 145 981 111 961 q 218 1011 178 1001 l 218 988 q 174 965 193 976 q 143 942 156 954 q 122 917 130 930 q 110 886 114 903 q 132 888 120 888 q 170 880 152 888 q 201 860 188 873 q 222 828 214 846 q 229 790 229 810 q 222 752 229 770 q 201 721 214 734 q 170 700 188 708 q 132 692 152 692 q 94 700 111 692 q 63 721 76 708 q 42 752 50 734 q 34 790 34 770 m 271 790 q 285 868 271 832 q 324 932 299 904 q 382 981 349 961 q 455 1011 416 1001 l 455 988 q 412 965 430 976 q 380 942 393 954 q 359 917 368 930 q 347 886 351 903 q 369 888 357 888 q 407 880 389 888 q 438 860 425 873 q 459 828 452 846 q 467 790 467 810 q 459 752 467 770 q 438 721 452 734 q 407 700 425 708 q 369 692 389 692 q 331 700 349 692 q 300 721 313 708 q 279 752 287 734 q 271 790 271 770 z "},"”":{"ha":500,"x_min":34,"x_max":467,"o":"m 34 913 q 42 952 34 934 q 63 983 50 970 q 94 1004 76 996 q 132 1011 111 1011 q 170 1004 152 1011 q 201 983 188 996 q 222 952 214 970 q 229 913 229 934 q 215 836 229 872 q 177 771 201 800 q 118 723 152 743 q 45 692 85 703 l 45 715 q 89 739 71 728 q 120 762 107 750 q 141 787 133 774 q 153 818 149 801 q 132 816 143 816 q 94 824 111 816 q 63 845 76 831 q 42 876 50 858 q 34 913 34 893 m 271 913 q 279 952 271 934 q 300 983 287 970 q 331 1004 313 996 q 369 1011 349 1011 q 407 1004 389 1011 q 438 983 425 996 q 459 952 452 970 q 467 913 467 934 q 453 836 467 872 q 414 771 439 800 q 356 723 389 743 q 283 692 322 703 l 283 715 q 326 739 308 728 q 357 762 345 750 q 378 787 370 774 q 391 818 387 801 q 369 816 380 816 q 331 824 349 816 q 300 845 313 831 q 279 876 287 858 q 271 913 271 893 z "},"„":{"ha":500,"x_min":34,"x_max":467,"o":"m 271 79 q 279 117 271 99 q 300 148 287 135 q 331 169 313 161 q 369 176 349 176 q 407 169 389 176 q 438 148 425 161 q 459 117 452 135 q 467 79 467 99 q 453 1 467 37 q 414 -64 439 -35 q 356 -112 389 -92 q 283 -142 322 -132 l 283 -119 q 326 -96 308 -106 q 357 -73 345 -85 q 378 -47 370 -61 q 391 -16 387 -34 q 369 -19 382 -19 q 331 -11 349 -19 q 300 10 313 -3 q 279 41 287 23 q 271 79 271 58 m 34 79 q 42 117 34 99 q 63 148 50 135 q 94 169 76 161 q 132 176 111 176 q 170 169 152 176 q 201 148 188 161 q 222 117 214 135 q 229 79 229 99 q 215 1 229 37 q 177 -64 201 -35 q 118 -112 152 -92 q 45 -142 85 -132 l 45 -119 q 89 -96 71 -106 q 120 -73 107 -85 q 141 -47 133 -61 q 153 -16 149 -34 q 132 -19 144 -19 q 94 -11 111 -19 q 63 10 76 -3 q 42 41 50 23 q 34 79 34 58 z "},"†":{"ha":732,"x_min":34,"x_max":699,"o":"m 34 728 l 34 806 l 298 806 l 298 975 l 434 975 l 434 806 l 699 806 l 699 728 l 434 728 l 434 -1 l 298 -1 l 298 728 l 34 728 z "},"‡":{"ha":734,"x_min":34,"x_max":701,"o":"m 34 428 l 34 506 l 299 506 l 299 728 l 34 728 l 34 806 l 299 806 l 299 975 l 436 975 l 436 806 l 701 806 l 701 728 l 436 728 l 436 506 l 701 506 l 701 428 l 436 428 l 436 -1 l 299 -1 l 299 428 l 34 428 z "},"•":{"ha":340,"x_min":34,"x_max":307,"o":"m 34 338 q 45 390 34 366 q 75 432 56 414 q 118 460 94 450 q 170 470 143 470 q 222 460 198 470 q 266 432 247 450 q 296 390 285 414 q 307 338 307 366 q 296 287 307 311 q 266 245 285 262 q 222 217 247 227 q 170 207 198 207 q 118 217 143 207 q 75 245 94 227 q 45 287 56 262 q 34 338 34 311 z "},"…":{"ha":682,"x_min":34,"x_max":648,"o":"m 34 79 q 41 114 34 98 q 60 142 47 130 q 88 161 72 154 q 122 168 104 168 q 157 161 140 168 q 185 142 173 154 q 204 114 197 130 q 211 79 211 98 q 204 45 211 61 q 185 17 197 28 q 157 -2 173 5 q 122 -9 140 -9 q 88 -2 104 -9 q 60 17 72 5 q 41 45 47 28 q 34 79 34 61 m 349 168 q 383 161 367 168 q 412 142 399 154 q 431 114 424 130 q 437 79 437 98 q 431 45 437 61 q 412 17 424 28 q 383 -2 399 5 q 349 -9 367 -9 q 314 -2 330 -9 q 286 17 298 5 q 267 45 274 28 q 260 79 260 61 q 267 114 260 98 q 286 142 274 130 q 314 161 298 154 q 349 168 330 168 m 471 79 q 477 114 471 98 q 496 142 484 130 q 525 161 509 154 q 559 168 541 168 q 593 161 577 168 q 622 142 610 154 q 641 114 634 130 q 648 79 648 98 q 641 45 648 61 q 622 17 634 28 q 593 -2 610 5 q 559 -9 577 -9 q 525 -2 541 -9 q 496 17 509 5 q 477 45 484 28 q 471 79 471 61 z "},"‰":{"ha":1056,"x_min":34,"x_max":1022,"o":"m 471 987 l 607 987 l 221 0 l 85 0 l 471 987 m 34 819 q 44 879 34 850 q 74 930 55 908 q 121 965 94 952 q 181 979 148 979 q 240 965 214 979 q 287 930 267 952 q 317 879 307 908 q 328 819 328 850 q 317 756 328 785 q 286 706 306 728 q 238 673 266 685 q 176 661 210 661 q 118 674 144 661 q 73 709 92 687 q 44 759 54 730 q 34 819 34 787 m 873 304 q 933 291 906 304 q 980 255 960 277 q 1011 204 1000 233 q 1022 143 1022 175 q 1011 82 1022 111 q 979 32 1000 53 q 931 -2 959 10 q 869 -15 903 -15 q 811 -2 838 -15 q 767 33 785 12 q 738 83 748 55 q 728 143 728 112 q 738 203 728 174 q 768 255 749 233 q 813 291 787 277 q 873 304 840 304 m 514 304 q 574 291 547 304 q 621 255 601 277 q 651 204 640 233 q 663 143 663 175 q 651 82 663 111 q 620 32 640 53 q 572 -2 600 10 q 510 -15 544 -15 q 452 -2 478 -15 q 407 33 426 12 q 378 83 389 55 q 368 143 368 112 q 379 203 368 174 q 408 255 389 233 q 454 291 427 277 q 514 304 481 304 m 248 819 q 245 882 248 855 q 234 928 242 909 q 213 955 227 946 q 177 964 199 964 q 146 953 159 964 q 126 923 134 942 q 115 877 118 903 q 111 819 111 850 q 115 774 111 799 q 126 728 119 749 q 145 691 134 706 q 174 676 157 676 q 211 692 197 676 q 233 731 225 709 q 244 778 241 753 q 248 819 248 802 m 941 143 q 939 207 941 180 q 928 253 936 235 q 906 280 920 271 q 871 289 892 289 q 832 270 846 289 q 811 219 818 251 q 805 143 805 186 q 808 99 805 123 q 820 53 812 75 q 839 16 827 31 q 867 1 851 1 q 904 17 890 1 q 927 56 919 33 q 938 102 935 78 q 941 143 941 126 m 582 143 q 579 207 582 180 q 569 253 576 235 q 547 280 561 271 q 511 289 533 289 q 473 270 487 289 q 452 219 458 251 q 446 143 446 186 q 449 99 446 123 q 460 53 452 75 q 480 16 468 31 q 508 1 492 1 q 545 17 530 1 q 568 56 559 33 q 579 102 576 78 q 582 143 582 126 z "},"‹":{"ha":699,"x_min":34,"x_max":665,"o":"m 34 469 l 665 770 l 665 642 l 197 434 l 665 227 l 665 98 l 34 396 l 34 469 z "},"›":{"ha":699,"x_min":34,"x_max":665,"o":"m 665 469 l 665 396 l 34 98 l 34 227 l 502 434 l 34 642 l 34 770 l 665 469 z "},"⁄":{"ha":541,"x_min":7,"x_max":534,"o":"m 534 1021 l 146 -37 l 7 -37 l 8 -37 l 395 1021 l 534 1021 z "},"∕":{"ha":541,"x_min":7,"x_max":534,"o":"m 534 1021 l 146 -37 l 7 -37 l 8 -37 l 395 1021 l 534 1021 z "},"₣":{"ha":711,"x_min":18,"x_max":677,"o":"m 18 195 l 221 195 l 221 972 l 677 972 q 671 949 672 959 q 671 928 670 939 q 674 907 672 918 q 675 882 675 897 l 641 882 q 630 919 642 906 q 595 931 617 931 q 472 931 533 931 q 350 930 412 930 l 350 514 l 545 514 q 584 531 574 514 q 597 582 594 549 l 627 582 q 620 492 620 538 q 627 404 621 446 l 597 404 q 583 455 594 437 q 543 473 572 473 l 350 473 l 350 195 l 554 195 l 554 117 l 350 117 l 350 0 l 221 0 l 221 117 l 18 117 l 18 195 z "},"₤":{"ha":657,"x_min":14,"x_max":623,"o":"m 151 545 q 99 651 121 597 q 76 759 77 705 q 94 856 75 813 q 150 929 113 899 q 240 974 186 958 q 361 989 293 989 q 452 971 410 989 q 525 922 494 954 q 573 847 555 890 q 590 753 590 804 q 583 723 590 736 q 564 702 576 710 q 538 689 553 693 q 510 685 524 685 q 483 689 496 685 q 463 702 471 694 q 452 724 454 711 q 458 754 450 737 q 468 820 471 785 q 450 883 465 854 q 413 930 436 911 q 361 949 389 949 q 247 909 283 949 q 210 785 210 870 q 217 729 210 758 q 236 670 224 701 q 261 609 247 640 q 289 545 275 577 l 536 545 l 536 467 l 320 467 q 335 418 328 443 q 345 368 342 393 l 536 368 l 536 290 l 349 290 q 324 210 344 245 q 282 148 304 174 q 240 108 259 123 q 217 92 221 94 l 623 92 l 623 0 l 79 0 q 59 5 69 0 q 42 19 48 9 q 36 44 35 29 q 50 79 37 58 q 82 115 62 99 q 124 146 102 132 q 170 175 146 161 q 212 206 193 189 q 243 243 231 222 q 259 290 256 263 l 14 290 l 14 368 l 246 368 q 224 416 237 392 q 196 467 212 441 l 14 467 l 14 545 l 151 545 z "},"₧":{"ha":1326,"x_min":47,"x_max":1313,"o":"m 115 83 l 115 890 q 98 928 115 918 q 47 942 81 939 l 47 972 l 451 972 q 577 947 519 972 q 677 880 635 923 q 744 778 720 837 q 768 650 768 720 q 745 522 768 580 q 679 421 722 463 q 577 356 636 379 q 446 333 517 333 l 251 333 l 251 84 q 270 42 251 55 q 320 30 289 30 l 320 0 q 244 7 280 3 q 168 12 209 12 q 112 9 142 12 q 47 1 83 7 l 47 31 q 98 44 81 34 q 115 83 115 54 m 445 374 q 522 396 488 374 q 581 456 557 418 q 619 544 606 494 q 632 650 632 594 q 619 758 632 707 q 583 847 606 808 q 525 908 559 886 q 450 931 492 931 l 251 931 l 251 374 l 445 374 m 817 645 q 868 667 848 648 q 902 711 888 686 q 928 765 917 736 q 953 819 940 794 q 982 860 966 844 q 1023 876 999 876 l 1023 645 l 1190 645 l 1190 610 l 1023 610 l 1023 251 q 1023 210 1023 234 q 1025 161 1023 186 q 1033 111 1027 136 q 1050 67 1039 86 q 1080 35 1062 47 q 1126 23 1099 23 q 1164 32 1149 23 q 1186 55 1178 41 q 1197 86 1194 69 q 1204 120 1201 104 q 1213 150 1208 136 q 1227 170 1217 163 q 1251 177 1236 177 q 1273 173 1261 177 q 1293 160 1284 168 q 1308 142 1302 153 q 1313 119 1313 131 q 1298 59 1312 84 q 1261 18 1284 34 q 1204 -6 1237 1 q 1133 -14 1171 -14 q 1031 3 1076 -14 q 956 52 986 20 q 910 130 926 84 q 895 235 895 176 l 895 610 l 808 610 l 808 645 l 817 645 z "},"€":{"ha":907,"x_min":34,"x_max":873,"o":"m 34 641 l 264 641 q 335 781 289 717 q 444 892 382 845 q 581 965 506 939 q 737 991 656 991 q 873 971 803 991 l 873 930 q 764 948 815 948 q 640 923 698 948 q 536 857 583 899 q 455 759 490 814 q 401 641 421 703 l 718 641 l 718 563 l 383 563 q 376 479 376 523 q 377 444 376 462 q 381 409 378 427 l 718 411 l 718 329 l 397 329 q 448 207 415 264 q 528 107 481 150 q 633 40 574 64 q 761 16 692 16 q 873 32 814 16 l 873 -9 q 814 -21 844 -17 q 756 -24 785 -24 q 599 3 675 -24 q 457 77 522 30 q 342 189 392 124 q 266 329 292 254 l 34 329 l 34 407 l 245 408 q 239 482 239 445 q 245 563 239 524 l 34 563 l 34 641 z "},"№":{"ha":1662,"x_min":54,"x_max":1634,"o":"m 1320 926 q 1457 905 1400 926 q 1552 843 1515 885 q 1607 738 1590 802 q 1625 587 1625 674 q 1607 440 1625 503 q 1552 334 1590 376 q 1457 271 1515 292 q 1320 250 1400 250 q 1001 587 1001 250 q 1081 844 1001 762 q 1320 926 1160 926 m 54 31 q 105 45 87 34 q 123 84 123 56 l 123 893 q 119 916 123 907 q 106 930 115 925 q 85 937 98 935 q 56 941 73 939 l 56 970 q 96 968 81 970 q 121 963 110 966 q 144 957 132 960 q 179 954 157 954 q 211 957 197 954 q 235 963 224 960 q 257 969 246 966 q 280 972 268 972 l 284 972 l 835 52 l 836 888 q 818 927 836 917 q 766 941 800 938 l 766 971 q 810 966 788 968 q 856 964 833 964 q 900 966 878 964 q 944 971 922 968 l 944 941 q 893 928 911 938 q 876 889 876 918 l 876 0 l 706 0 l 163 910 l 164 83 q 181 44 164 54 q 232 31 199 34 l 232 1 q 188 6 210 4 q 144 7 166 7 q 98 6 121 7 q 54 1 76 4 l 54 31 m 1137 587 q 1183 361 1137 437 q 1320 285 1229 285 q 1448 361 1408 285 q 1488 587 1488 438 q 1448 814 1488 741 q 1320 888 1407 888 q 1183 811 1230 888 q 1137 587 1137 734 m 1634 178 l 1634 62 l 1000 62 l 1000 178 l 1634 178 z "},"™":{"ha":1289,"x_min":7,"x_max":1249,"o":"m 494 664 q 524 672 514 666 q 534 695 534 678 l 534 1160 q 524 1181 534 1177 q 495 1187 515 1185 l 495 1204 q 518 1203 510 1204 q 533 1200 526 1202 q 546 1196 539 1198 q 566 1195 553 1195 q 584 1197 576 1195 q 598 1200 592 1198 q 611 1203 605 1202 q 624 1205 617 1205 l 627 1205 l 875 732 l 1118 1205 q 1132 1203 1126 1205 q 1144 1200 1137 1202 q 1158 1197 1151 1198 q 1176 1195 1166 1195 q 1196 1196 1189 1195 q 1210 1200 1203 1198 q 1224 1203 1216 1202 q 1247 1204 1232 1204 l 1247 1187 q 1218 1181 1227 1185 q 1208 1160 1208 1177 l 1208 695 q 1219 672 1208 678 q 1249 664 1229 666 l 1249 647 l 1244 647 q 1222 648 1230 647 q 1207 652 1214 650 q 1193 655 1200 654 q 1172 656 1185 656 q 1150 655 1158 656 q 1133 652 1141 654 q 1116 649 1125 650 q 1091 647 1106 647 l 1091 664 q 1121 672 1111 666 q 1131 694 1131 677 l 1131 1177 l 858 647 l 831 647 l 557 1170 l 557 694 q 567 672 557 677 q 597 664 577 666 l 597 647 q 545 651 572 651 q 494 647 519 651 l 494 664 m 24 1147 l 7 1147 q 10 1166 9 1160 q 11 1178 11 1173 q 10 1191 11 1184 q 7 1211 9 1198 l 468 1211 q 465 1191 466 1198 q 464 1178 464 1184 q 465 1166 464 1173 q 468 1147 466 1160 l 451 1147 q 443 1177 449 1166 q 420 1187 437 1187 l 275 1187 l 275 700 q 286 676 275 683 q 315 669 296 669 l 315 651 q 271 655 292 653 q 226 658 250 658 q 157 652 198 658 l 157 669 q 186 676 177 671 q 196 699 196 682 l 196 1187 l 55 1187 q 32 1177 38 1187 q 24 1147 26 1166 z "},"−":{"ha":581,"x_min":34,"x_max":547,"o":"m 34 232 l 34 337 l 547 337 l 547 232 l 34 232 z "},"∫":{"ha":717,"x_min":0,"x_max":710,"o":"m 86 -41 q 101 -62 96 -48 q 109 -92 105 -75 q 115 -125 112 -108 q 126 -156 119 -142 q 149 -179 134 -170 q 186 -189 163 -189 q 233 -176 214 -189 q 262 -145 251 -164 q 280 -101 274 -125 q 289 -51 286 -76 q 291 -1 291 -25 q 291 39 291 22 l 292 673 q 307 769 292 724 q 354 848 323 814 q 430 902 385 882 q 536 922 476 922 q 604 915 572 922 q 659 890 635 907 q 696 849 682 874 q 710 789 709 824 q 705 766 710 777 q 690 748 699 755 q 670 735 682 740 q 648 731 659 731 q 635 733 642 731 q 624 738 629 734 q 610 758 614 745 q 602 788 605 771 q 595 822 598 804 q 584 853 591 839 q 562 876 576 867 q 524 885 547 885 q 478 873 496 885 q 448 841 460 861 q 431 797 437 822 q 423 747 425 772 q 421 698 421 722 q 421 657 421 674 l 420 23 q 404 -73 420 -28 q 357 -152 388 -118 q 280 -206 326 -186 q 174 -226 234 -226 q 106 -218 138 -226 q 52 -194 75 -210 q 15 -153 28 -178 q 0 -93 1 -127 q 5 -70 0 -81 q 20 -52 11 -60 q 40 -39 29 -43 q 62 -35 52 -35 q 86 -41 77 -35 z "},"≈":{"ha":782,"x_min":34,"x_max":748,"o":"m 187 229 q 249 219 216 229 q 315 193 281 209 q 384 160 349 178 q 451 126 418 142 q 514 100 484 111 q 569 90 544 90 q 586 92 577 90 q 602 97 594 93 q 621 121 614 104 q 632 157 629 138 q 637 196 636 177 q 638 227 638 215 l 748 227 q 738 154 748 192 q 705 85 727 116 q 650 34 683 54 q 572 14 617 14 q 507 26 541 14 q 437 58 472 39 q 368 100 402 77 q 300 142 333 123 q 239 174 268 161 q 186 186 210 186 q 166 177 174 186 q 152 151 157 167 q 143 117 146 136 q 139 79 140 98 q 137 44 138 60 q 137 20 137 28 l 34 20 q 43 89 34 52 q 72 157 53 126 q 120 209 91 188 q 187 229 149 229 m 187 500 q 249 490 216 500 q 315 465 281 480 q 384 431 349 449 q 451 397 418 413 q 514 372 484 382 q 569 361 544 361 q 586 363 577 361 q 602 368 594 364 q 621 392 614 376 q 632 429 629 409 q 637 467 636 448 q 638 498 638 486 l 748 498 q 738 425 748 463 q 705 356 727 387 q 650 305 683 325 q 572 285 617 285 q 507 298 541 285 q 437 330 472 311 q 368 371 402 349 q 300 413 333 394 q 239 445 268 432 q 186 458 210 458 q 166 448 174 458 q 152 422 157 438 q 143 388 146 407 q 139 350 140 369 q 137 316 138 332 q 137 291 137 300 l 34 291 q 43 360 34 323 q 72 428 53 397 q 120 480 91 459 q 187 500 149 500 z "},"≤":{"ha":655,"x_min":34,"x_max":621,"o":"m 34 509 l 621 800 l 621 676 l 186 476 l 621 277 l 621 152 l 34 439 l 34 509 m 56 99 l 621 99 l 621 -1 l 56 -1 l 56 99 z "},"≥":{"ha":655,"x_min":34,"x_max":621,"o":"m 34 676 l 34 800 l 621 509 l 621 439 l 34 152 l 34 277 l 469 476 l 34 676 m 34 -1 l 34 99 l 600 99 l 600 -1 l 34 -1 z "}}}
